{
.appVersion = "1268";
DisplayStrings = (
"\012the quick brown fox jumps over the lazy dog. ",
"opqrstvxy.,-",
freacking,
ij,
k,
rr,
lv,
y,
x,
" ",
"i.,-"
);
copyright = "Copyright © 2019 by Dan Büschlen. All rights reserved.";
customParameters = (
{
name = Axes;
value = (
{
Name = Weight;
Tag = wght;
}
);
}
);
date = "2019-11-07 14:39:33 +0000";
designer = "Dan Büschlen";
designerURL = "https://www.danbueschlen.ch";
familyName = bang;
fontMaster = (
{
ascender = 750;
capHeight = 700;
descender = -250;
id = "E2857279-2EBA-495B-814E-9CD52C7A5F8C";
weightValue = 0;
xHeight = 500;
},
{
ascender = 750;
capHeight = 700;
descender = -250;
id = "DD439194-7281-4DC7-85BF-0C2680351E76";
weight = Bold;
weightValue = 70;
xHeight = 500;
}
);
glyphs = (
{
glyphname = a;
lastChange = "2019-11-15 19:16:26 +0000";
layers = (
{
associatedMasterId = "E2857279-2EBA-495B-814E-9CD52C7A5F8C";
layerId = "79D2F8AA-4178-4270-A044-4719567B48C6";
name = "Nov 8 19, 14:47";
paths = (
{
closed = 1;
nodes = (
"486 0 LINE SMOOTH",
"499 0 OFFCURVE",
"506 7 OFFCURVE",
"506 20 CURVE SMOOTH",
"506 480 LINE SMOOTH",
"506 493 OFFCURVE",
"499 500 OFFCURVE",
"486 500 CURVE SMOOTH",
"114 500 LINE SMOOTH",
"101 500 OFFCURVE",
"94 493 OFFCURVE",
"94 480 CURVE SMOOTH",
"94 383 LINE SMOOTH",
"94 370 OFFCURVE",
"101 363 OFFCURVE",
"114 363 CURVE SMOOTH",
"145 363 LINE SMOOTH",
"158 363 OFFCURVE",
"165 370 OFFCURVE",
"165 383 CURVE SMOOTH",
"165 416 LINE SMOOTH",
"165 425 OFFCURVE",
"169 429 OFFCURVE",
"178 429 CURVE SMOOTH",
"422 429 LINE SMOOTH",
"431 429 OFFCURVE",
"435 425 OFFCURVE",
"435 416 CURVE SMOOTH",
"435 298 LINE SMOOTH",
"435 285 OFFCURVE",
"428 278 OFFCURVE",
"415 278 CURVE SMOOTH",
"114 278 LINE SMOOTH",
"101 278 OFFCURVE",
"94 271 OFFCURVE",
"94 258 CURVE SMOOTH",
"94 20 LINE SMOOTH",
"94 7 OFFCURVE",
"101 0 OFFCURVE",
"114 0 CURVE SMOOTH"
);
},
{
closed = 1;
nodes = (
"173 71 OFFCURVE",
"169 75 OFFCURVE",
"169 84 CURVE SMOOTH",
"169 194 LINE SMOOTH",
"169 203 OFFCURVE",
"173 207 OFFCURVE",
"182 207 CURVE SMOOTH",
"422 207 LINE SMOOTH",
"431 207 OFFCURVE",
"435 203 OFFCURVE",
"435 194 CURVE SMOOTH",
"435 84 LINE SMOOTH",
"435 75 OFFCURVE",
"431 71 OFFCURVE",
"422 71 CURVE SMOOTH",
"182 71 LINE SMOOTH"
);
}
);
width = 600;
},
{
associatedMasterId = "E2857279-2EBA-495B-814E-9CD52C7A5F8C";
layerId = "F71C4575-02BE-4254-800B-1DB1095F37F8";
name = "Nov 8 19, 16:36";
paths = (
{
closed = 1;
nodes = (
"458 0 LINE SMOOTH",
"471 0 OFFCURVE",
"478 7 OFFCURVE",
"478 20 CURVE SMOOTH",
"478 480 LINE SMOOTH",
"478 493 OFFCURVE",
"471 500 OFFCURVE",
"458 500 CURVE SMOOTH",
"114 500 LINE SMOOTH",
"101 500 OFFCURVE",
"94 493 OFFCURVE",
"94 480 CURVE SMOOTH",
"94 383 LINE SMOOTH",
"94 370 OFFCURVE",
"101 363 OFFCURVE",
"114 363 CURVE SMOOTH",
"145 363 LINE SMOOTH",
"158 363 OFFCURVE",
"165 370 OFFCURVE",
"165 383 CURVE SMOOTH",
"165 416 LINE SMOOTH",
"165 425 OFFCURVE",
"169 429 OFFCURVE",
"178 429 CURVE SMOOTH",
"394 429 LINE SMOOTH",
"403 429 OFFCURVE",
"407 425 OFFCURVE",
"407 416 CURVE SMOOTH",
"407 300 LINE SMOOTH",
"407 287 OFFCURVE",
"400 280 OFFCURVE",
"387 280 CURVE SMOOTH",
"114 280 LINE SMOOTH",
"101 280 OFFCURVE",
"94 273 OFFCURVE",
"94 260 CURVE SMOOTH",
"94 20 LINE SMOOTH",
"94 7 OFFCURVE",
"101 0 OFFCURVE",
"114 0 CURVE SMOOTH"
);
},
{
closed = 1;
nodes = (
"173 71 OFFCURVE",
"169 75 OFFCURVE",
"169 84 CURVE SMOOTH",
"169 196 LINE SMOOTH",
"169 205 OFFCURVE",
"173 209 OFFCURVE",
"182 209 CURVE SMOOTH",
"394 209 LINE SMOOTH",
"403 209 OFFCURVE",
"407 205 OFFCURVE",
"407 196 CURVE SMOOTH",
"407 84 LINE SMOOTH",
"407 75 OFFCURVE",
"403 71 OFFCURVE",
"394 71 CURVE SMOOTH",
"182 71 LINE SMOOTH"
);
}
);
width = 600;
},
{
associatedMasterId = "E2857279-2EBA-495B-814E-9CD52C7A5F8C";
layerId = "C73F838E-96B3-42CB-B7F1-E3C9D682C668";
name = "Nov 11 19, 21:03";
paths = (
{
closed = 1;
nodes = (
"443 0 LINE SMOOTH",
"466 0 OFFCURVE",
"478 12 OFFCURVE",
"478 35 CURVE SMOOTH",
"478 430 LINE SMOOTH",
"478 476 OFFCURVE",
"454 500 OFFCURVE",
"408 500 CURVE SMOOTH",
"129 500 LINE SMOOTH",
"106 500 OFFCURVE",
"94 488 OFFCURVE",
"94 465 CURVE SMOOTH",
"94 398 LINE SMOOTH",
"94 375 OFFCURVE",
"106 363 OFFCURVE",
"129 363 CURVE SMOOTH",
"130 363 LINE SMOOTH",
"153 363 OFFCURVE",
"165 375 OFFCURVE",
"165 398 CURVE SMOOTH",
"165 394 LINE SMOOTH",
"165 418 OFFCURVE",
"176 429 OFFCURVE",
"200 429 CURVE SMOOTH",
"372 429 LINE SMOOTH",
"396 429 OFFCURVE",
"407 418 OFFCURVE",
"407 394 CURVE SMOOTH",
"407 280 LINE",
"164 280 LINE SMOOTH",
"118 280 OFFCURVE",
"94 256 OFFCURVE",
"94 210 CURVE SMOOTH",
"94 35 LINE SMOOTH",
"94 12 OFFCURVE",
"106 0 OFFCURVE",
"129 0 CURVE SMOOTH"
);
},
{
closed = 1;
nodes = (
"171 71 OFFCURVE",
"165 77 OFFCURVE",
"165 89 CURVE SMOOTH",
"165 191 LINE SMOOTH",
"165 204 OFFCURVE",
"171 209 OFFCURVE",
"183 209 CURVE SMOOTH",
"389 209 LINE SMOOTH",
"401 209 OFFCURVE",
"407 203 OFFCURVE",
"407 191 CURVE SMOOTH",
"407 89 LINE SMOOTH",
"407 77 OFFCURVE",
"401 71 OFFCURVE",
"389 71 CURVE SMOOTH",
"183 71 LINE SMOOTH"
);
}
);
width = 600;
},
{
layerId = "E2857279-2EBA-495B-814E-9CD52C7A5F8C";
paths = (
{
closed = 1;
nodes = (
"454 0 LINE SMOOTH",
"454 0 OFFCURVE",
"454 0 OFFCURVE",
"454 0 CURVE SMOOTH",
"454 500 LINE SMOOTH",
"454 500 OFFCURVE",
"454 500 OFFCURVE",
"454 500 CURVE SMOOTH",
"60 500 LINE SMOOTH",
"60 500 OFFCURVE",
"60 500 OFFCURVE",
"60 500 CURVE SMOOTH",
"60 363 LINE SMOOTH",
"60 363 OFFCURVE",
"60 363 OFFCURVE",
"60 363 CURVE SMOOTH",
"131 363 LINE SMOOTH",
"131 363 OFFCURVE",
"131 363 OFFCURVE",
"131 363 CURVE SMOOTH",
"131 429 LINE SMOOTH",
"131 429 OFFCURVE",
"131 429 OFFCURVE",
"131 429 CURVE SMOOTH",
"383 429 LINE SMOOTH",
"383 429 OFFCURVE",
"383 429 OFFCURVE",
"383 429 CURVE SMOOTH",
"383 285 LINE",
"60 285 LINE SMOOTH",
"60 285 OFFCURVE",
"60 285 OFFCURVE",
"60 285 CURVE SMOOTH",
"60 0 LINE SMOOTH",
"60 0 OFFCURVE",
"60 0 OFFCURVE",
"60 0 CURVE SMOOTH"
);
},
{
closed = 1;
nodes = (
"131 71 OFFCURVE",
"131 71 OFFCURVE",
"131 71 CURVE SMOOTH",
"131 214 LINE SMOOTH",
"131 214 OFFCURVE",
"131 214 OFFCURVE",
"131 214 CURVE SMOOTH",
"383 214 LINE",
"383 71 LINE SMOOTH",
"383 71 OFFCURVE",
"383 71 OFFCURVE",
"383 71 CURVE SMOOTH",
"131 71 LINE SMOOTH"
);
}
);
width = 524;
},
{
associatedMasterId = "E2857279-2EBA-495B-814E-9CD52C7A5F8C";
layerId = "E09B2F8C-A161-459F-B635-11F5A054DB09";
name = "Nov 12 19, 13:22";
paths = (
{
closed = 1;
nodes = (
"419 0 LINE SMOOTH",
"442 0 OFFCURVE",
"454 12 OFFCURVE",
"454 35 CURVE SMOOTH",
"454 430 LINE SMOOTH",
"454 476 OFFCURVE",
"430 500 OFFCURVE",
"384 500 CURVE SMOOTH",
"95 500 LINE SMOOTH",
"72 500 OFFCURVE",
"60 488 OFFCURVE",
"60 465 CURVE SMOOTH",
"60 398 LINE SMOOTH",
"60 375 OFFCURVE",
"72 363 OFFCURVE",
"95 363 CURVE SMOOTH",
"96 363 LINE SMOOTH",
"119 363 OFFCURVE",
"131 375 OFFCURVE",
"131 398 CURVE SMOOTH",
"131 416 LINE SMOOTH",
"131 423 OFFCURVE",
"137 429 OFFCURVE",
"144 429 CURVE SMOOTH",
"365 429 LINE SMOOTH",
"377 429 OFFCURVE",
"383 423 OFFCURVE",
"383 411 CURVE SMOOTH",
"383 280 LINE",
"130 280 LINE SMOOTH",
"84 280 OFFCURVE",
"60 256 OFFCURVE",
"60 210 CURVE SMOOTH",
"60 35 LINE SMOOTH",
"60 12 OFFCURVE",
"72 0 OFFCURVE",
"95 0 CURVE SMOOTH"
);
},
{
closed = 1;
nodes = (
"137 71 OFFCURVE",
"131 77 OFFCURVE",
"131 89 CURVE SMOOTH",
"131 191 LINE SMOOTH",
"131 204 OFFCURVE",
"137 209 OFFCURVE",
"149 209 CURVE SMOOTH",
"365 209 LINE SMOOTH",
"377 209 OFFCURVE",
"383 203 OFFCURVE",
"383 191 CURVE SMOOTH",
"383 89 LINE SMOOTH",
"383 77 OFFCURVE",
"377 71 OFFCURVE",
"365 71 CURVE SMOOTH",
"149 71 LINE SMOOTH"
);
}
);
width = 524;
},
{
associatedMasterId = "DD439194-7281-4DC7-85BF-0C2680351E76";
layerId = "BAD5BEE6-F6E0-45FA-9CC1-9DE0A5514751";
name = "Nov 8 19, 14:47";
paths = (
{
closed = 1;
nodes = (
"486 0 LINE SMOOTH",
"499 0 OFFCURVE",
"506 7 OFFCURVE",
"506 20 CURVE SMOOTH",
"506 480 LINE SMOOTH",
"506 493 OFFCURVE",
"499 500 OFFCURVE",
"486 500 CURVE SMOOTH",
"114 500 LINE SMOOTH",
"101 500 OFFCURVE",
"94 493 OFFCURVE",
"94 480 CURVE SMOOTH",
"94 383 LINE SMOOTH",
"94 370 OFFCURVE",
"101 363 OFFCURVE",
"114 363 CURVE SMOOTH",
"145 363 LINE SMOOTH",
"158 363 OFFCURVE",
"165 370 OFFCURVE",
"165 383 CURVE SMOOTH",
"165 416 LINE SMOOTH",
"165 425 OFFCURVE",
"169 429 OFFCURVE",
"178 429 CURVE SMOOTH",
"422 429 LINE SMOOTH",
"431 429 OFFCURVE",
"435 425 OFFCURVE",
"435 416 CURVE SMOOTH",
"435 298 LINE SMOOTH",
"435 285 OFFCURVE",
"428 278 OFFCURVE",
"415 278 CURVE SMOOTH",
"114 278 LINE SMOOTH",
"101 278 OFFCURVE",
"94 271 OFFCURVE",
"94 258 CURVE SMOOTH",
"94 20 LINE SMOOTH",
"94 7 OFFCURVE",
"101 0 OFFCURVE",
"114 0 CURVE SMOOTH"
);
},
{
closed = 1;
nodes = (
"173 71 OFFCURVE",
"169 75 OFFCURVE",
"169 84 CURVE SMOOTH",
"169 194 LINE SMOOTH",
"169 203 OFFCURVE",
"173 207 OFFCURVE",
"182 207 CURVE SMOOTH",
"422 207 LINE SMOOTH",
"431 207 OFFCURVE",
"435 203 OFFCURVE",
"435 194 CURVE SMOOTH",
"435 84 LINE SMOOTH",
"435 75 OFFCURVE",
"431 71 OFFCURVE",
"422 71 CURVE SMOOTH",
"182 71 LINE SMOOTH"
);
}
);
width = 600;
},
{
associatedMasterId = "DD439194-7281-4DC7-85BF-0C2680351E76";
layerId = "F006EACD-4848-4AD4-8A67-E672C3306688";
name = "Nov 8 19, 16:36";
paths = (
{
closed = 1;
nodes = (
"458 0 LINE SMOOTH",
"471 0 OFFCURVE",
"478 7 OFFCURVE",
"478 20 CURVE SMOOTH",
"478 480 LINE SMOOTH",
"478 493 OFFCURVE",
"471 500 OFFCURVE",
"458 500 CURVE SMOOTH",
"114 500 LINE SMOOTH",
"101 500 OFFCURVE",
"94 493 OFFCURVE",
"94 480 CURVE SMOOTH",
"94 383 LINE SMOOTH",
"94 370 OFFCURVE",
"101 363 OFFCURVE",
"114 363 CURVE SMOOTH",
"145 363 LINE SMOOTH",
"158 363 OFFCURVE",
"165 370 OFFCURVE",
"165 383 CURVE SMOOTH",
"165 416 LINE SMOOTH",
"165 425 OFFCURVE",
"169 429 OFFCURVE",
"178 429 CURVE SMOOTH",
"394 429 LINE SMOOTH",
"403 429 OFFCURVE",
"407 425 OFFCURVE",
"407 416 CURVE SMOOTH",
"407 300 LINE SMOOTH",
"407 287 OFFCURVE",
"400 280 OFFCURVE",
"387 280 CURVE SMOOTH",
"114 280 LINE SMOOTH",
"101 280 OFFCURVE",
"94 273 OFFCURVE",
"94 260 CURVE SMOOTH",
"94 20 LINE SMOOTH",
"94 7 OFFCURVE",
"101 0 OFFCURVE",
"114 0 CURVE SMOOTH"
);
},
{
closed = 1;
nodes = (
"173 71 OFFCURVE",
"169 75 OFFCURVE",
"169 84 CURVE SMOOTH",
"169 196 LINE SMOOTH",
"169 205 OFFCURVE",
"173 209 OFFCURVE",
"182 209 CURVE SMOOTH",
"394 209 LINE SMOOTH",
"403 209 OFFCURVE",
"407 205 OFFCURVE",
"407 196 CURVE SMOOTH",
"407 84 LINE SMOOTH",
"407 75 OFFCURVE",
"403 71 OFFCURVE",
"394 71 CURVE SMOOTH",
"182 71 LINE SMOOTH"
);
}
);
width = 600;
},
{
associatedMasterId = "DD439194-7281-4DC7-85BF-0C2680351E76";
layerId = "F7ECD59C-66AF-4266-B4E8-9D3C9DA3AF01";
name = "Nov 11 19, 21:03";
paths = (
{
closed = 1;
nodes = (
"443 0 LINE SMOOTH",
"466 0 OFFCURVE",
"478 12 OFFCURVE",
"478 35 CURVE SMOOTH",
"478 430 LINE SMOOTH",
"478 476 OFFCURVE",
"454 500 OFFCURVE",
"408 500 CURVE SMOOTH",
"129 500 LINE SMOOTH",
"106 500 OFFCURVE",
"94 488 OFFCURVE",
"94 465 CURVE SMOOTH",
"94 398 LINE SMOOTH",
"94 375 OFFCURVE",
"106 363 OFFCURVE",
"129 363 CURVE SMOOTH",
"130 363 LINE SMOOTH",
"153 363 OFFCURVE",
"165 375 OFFCURVE",
"165 398 CURVE SMOOTH",
"165 394 LINE SMOOTH",
"165 418 OFFCURVE",
"176 429 OFFCURVE",
"200 429 CURVE SMOOTH",
"372 429 LINE SMOOTH",
"396 429 OFFCURVE",
"407 418 OFFCURVE",
"407 394 CURVE SMOOTH",
"407 280 LINE",
"164 280 LINE SMOOTH",
"118 280 OFFCURVE",
"94 256 OFFCURVE",
"94 210 CURVE SMOOTH",
"94 35 LINE SMOOTH",
"94 12 OFFCURVE",
"106 0 OFFCURVE",
"129 0 CURVE SMOOTH"
);
},
{
closed = 1;
nodes = (
"171 71 OFFCURVE",
"165 77 OFFCURVE",
"165 89 CURVE SMOOTH",
"165 191 LINE SMOOTH",
"165 204 OFFCURVE",
"171 209 OFFCURVE",
"183 209 CURVE SMOOTH",
"389 209 LINE SMOOTH",
"401 209 OFFCURVE",
"407 203 OFFCURVE",
"407 191 CURVE SMOOTH",
"407 89 LINE SMOOTH",
"407 77 OFFCURVE",
"401 71 OFFCURVE",
"389 71 CURVE SMOOTH",
"183 71 LINE SMOOTH"
);
}
);
width = 600;
},
{
layerId = "DD439194-7281-4DC7-85BF-0C2680351E76";
paths = (
{
closed = 1;
nodes = (
"384 0 LINE SMOOTH",
"430 0 OFFCURVE",
"454 24 OFFCURVE",
"454 70 CURVE SMOOTH",
"454 430 LINE SMOOTH",
"454 476 OFFCURVE",
"430 500 OFFCURVE",
"384 500 CURVE SMOOTH",
"130 500 LINE SMOOTH",
"84 500 OFFCURVE",
"60 476 OFFCURVE",
"60 430 CURVE SMOOTH",
"60 398 LINE SMOOTH",
"60 375 OFFCURVE",
"72 363 OFFCURVE",
"95 363 CURVE SMOOTH",
"96 363 LINE SMOOTH",
"119 363 OFFCURVE",
"131 375 OFFCURVE",
"131 398 CURVE SMOOTH",
"131 411 LINE SMOOTH",
"131 423 OFFCURVE",
"137 429 OFFCURVE",
"149 429 CURVE SMOOTH",
"365 429 LINE SMOOTH",
"377 429 OFFCURVE",
"383 423 OFFCURVE",
"383 411 CURVE SMOOTH",
"383 285 LINE",
"130 285 LINE SMOOTH",
"84 285 OFFCURVE",
"60 261 OFFCURVE",
"60 215 CURVE SMOOTH",
"60 70 LINE SMOOTH",
"60 24 OFFCURVE",
"84 0 OFFCURVE",
"130 0 CURVE SMOOTH"
);
},
{
closed = 1;
nodes = (
"137 71 OFFCURVE",
"131 77 OFFCURVE",
"131 89 CURVE SMOOTH",
"131 196 LINE SMOOTH",
"131 208 OFFCURVE",
"137 214 OFFCURVE",
"149 214 CURVE SMOOTH",
"383 214 LINE",
"383 89 LINE SMOOTH",
"383 77 OFFCURVE",
"377 71 OFFCURVE",
"365 71 CURVE SMOOTH",
"149 71 LINE SMOOTH"
);
}
);
width = 524;
},
{
associatedMasterId = "DD439194-7281-4DC7-85BF-0C2680351E76";
layerId = "0622039D-1F78-47E5-99B3-D4B46FB0E9A4";
name = "Nov 12 19, 13:22";
paths = (
{
closed = 1;
nodes = (
"419 0 LINE SMOOTH",
"442 0 OFFCURVE",
"454 12 OFFCURVE",
"454 35 CURVE SMOOTH",
"454 430 LINE SMOOTH",
"454 476 OFFCURVE",
"430 500 OFFCURVE",
"384 500 CURVE SMOOTH",
"95 500 LINE SMOOTH",
"72 500 OFFCURVE",
"60 488 OFFCURVE",
"60 465 CURVE SMOOTH",
"60 398 LINE SMOOTH",
"60 375 OFFCURVE",
"72 363 OFFCURVE",
"95 363 CURVE SMOOTH",
"96 363 LINE SMOOTH",
"119 363 OFFCURVE",
"131 375 OFFCURVE",
"131 398 CURVE SMOOTH",
"131 416 LINE SMOOTH",
"131 423 OFFCURVE",
"137 429 OFFCURVE",
"144 429 CURVE SMOOTH",
"365 429 LINE SMOOTH",
"377 429 OFFCURVE",
"383 423 OFFCURVE",
"383 411 CURVE SMOOTH",
"383 280 LINE",
"130 280 LINE SMOOTH",
"84 280 OFFCURVE",
"60 256 OFFCURVE",
"60 210 CURVE SMOOTH",
"60 35 LINE SMOOTH",
"60 12 OFFCURVE",
"72 0 OFFCURVE",
"95 0 CURVE SMOOTH"
);
},
{
closed = 1;
nodes = (
"137 71 OFFCURVE",
"131 77 OFFCURVE",
"131 89 CURVE SMOOTH",
"131 191 LINE SMOOTH",
"131 204 OFFCURVE",
"137 209 OFFCURVE",
"149 209 CURVE SMOOTH",
"365 209 LINE SMOOTH",
"377 209 OFFCURVE",
"383 203 OFFCURVE",
"383 191 CURVE SMOOTH",
"383 89 LINE SMOOTH",
"383 77 OFFCURVE",
"377 71 OFFCURVE",
"365 71 CURVE SMOOTH",
"149 71 LINE SMOOTH"
);
}
);
width = 524;
},
{
associatedMasterId = "E2857279-2EBA-495B-814E-9CD52C7A5F8C";
layerId = "CAD0FCFF-3D24-45B4-AA89-393830800A12";
name = "Nov 12 19, 22:17";
paths = (
{
closed = 1;
nodes = (
"384 0 LINE SMOOTH",
"430 0 OFFCURVE",
"454 24 OFFCURVE",
"454 70 CURVE SMOOTH",
"454 430 LINE SMOOTH",
"454 476 OFFCURVE",
"430 500 OFFCURVE",
"384 500 CURVE SMOOTH",
"130 500 LINE SMOOTH",
"84 500 OFFCURVE",
"60 476 OFFCURVE",
"60 430 CURVE SMOOTH",
"60 398 LINE SMOOTH",
"60 375 OFFCURVE",
"72 363 OFFCURVE",
"95 363 CURVE SMOOTH",
"96 363 LINE SMOOTH",
"119 363 OFFCURVE",
"131 375 OFFCURVE",
"131 398 CURVE SMOOTH",
"131 416 LINE SMOOTH",
"131 423 OFFCURVE",
"137 429 OFFCURVE",
"144 429 CURVE SMOOTH",
"365 429 LINE SMOOTH",
"377 429 OFFCURVE",
"383 423 OFFCURVE",
"383 411 CURVE SMOOTH",
"383 285 LINE",
"130 285 LINE SMOOTH",
"84 285 OFFCURVE",
"60 261 OFFCURVE",
"60 215 CURVE SMOOTH",
"60 70 LINE SMOOTH",
"60 24 OFFCURVE",
"84 0 OFFCURVE",
"130 0 CURVE SMOOTH"
);
},
{
closed = 1;
nodes = (
"137 71 OFFCURVE",
"131 77 OFFCURVE",
"131 89 CURVE SMOOTH",
"131 196 LINE SMOOTH",
"131 209 OFFCURVE",
"137 214 OFFCURVE",
"149 214 CURVE SMOOTH",
"383 214 LINE",
"383 89 LINE SMOOTH",
"383 77 OFFCURVE",
"377 71 OFFCURVE",
"365 71 CURVE SMOOTH",
"149 71 LINE SMOOTH"
);
}
);
width = 524;
}
);
rightMetricsKey = o;
unicode = 0061;
},
{
glyphname = b;
lastChange = "2019-11-15 19:19:36 +0000";
layers = (
{
layerId = "E2857279-2EBA-495B-814E-9CD52C7A5F8C";
paths = (
{
closed = 1;
nodes = (
"474 0 LINE SMOOTH",
"474 0 OFFCURVE",
"474 0 OFFCURVE",
"474 0 CURVE SMOOTH",
"474 500 LINE SMOOTH",
"474 500 OFFCURVE",
"474 500 OFFCURVE",
"474 500 CURVE SMOOTH",
"151 500 LINE",
"151 750 LINE",
"151 750 OFFCURVE",
"151 750 OFFCURVE",
"151 750 CURVE SMOOTH",
"80 750 LINE SMOOTH",
"80 750 OFFCURVE",
"80 750 OFFCURVE",
"80 750 CURVE",
"80 500 LINE",
"80 0 LINE SMOOTH",
"80 0 OFFCURVE",
"80 0 OFFCURVE",
"80 0 CURVE SMOOTH"
);
},
{
closed = 1;
nodes = (
"151 71 LINE SMOOTH",
"151 71 OFFCURVE",
"151 71 OFFCURVE",
"151 71 CURVE SMOOTH",
"151 429 LINE",
"403 429 LINE SMOOTH",
"403 429 OFFCURVE",
"403 429 OFFCURVE",
"403 429 CURVE SMOOTH",
"403 71 LINE SMOOTH",
"403 71 OFFCURVE",
"403 71 OFFCURVE",
"403 71 CURVE SMOOTH"
);
}
);
width = 544;
},
{
layerId = "DD439194-7281-4DC7-85BF-0C2680351E76";
paths = (
{
closed = 1;
nodes = (
"399 0 LINE SMOOTH",
"444 0 OFFCURVE",
"469 25 OFFCURVE",
"469 70 CURVE SMOOTH",
"469 430 LINE SMOOTH",
"469 476 OFFCURVE",
"445 500 OFFCURVE",
"399 500 CURVE SMOOTH",
"146 500 LINE",
"146 715 LINE",
"146 738 OFFCURVE",
"134 750 OFFCURVE",
"111 750 CURVE SMOOTH",
"110 750 LINE SMOOTH",
"87 750 OFFCURVE",
"75 738 OFFCURVE",
"75 715 CURVE",
"75 500 LINE",
"75 70 LINE SMOOTH",
"75 25 OFFCURVE",
"99 0 OFFCURVE",
"145 0 CURVE SMOOTH"
);
},
{
closed = 1;
nodes = (
"164 71 LINE SMOOTH",
"152 71 OFFCURVE",
"146 77 OFFCURVE",
"146 89 CURVE SMOOTH",
"146 429 LINE",
"380 429 LINE SMOOTH",
"392 429 OFFCURVE",
"398 423 OFFCURVE",
"398 411 CURVE SMOOTH",
"398 89 LINE SMOOTH",
"398 77 OFFCURVE",
"392 71 OFFCURVE",
"380 71 CURVE SMOOTH"
);
}
);
width = 539;
},
{
associatedMasterId = "DD439194-7281-4DC7-85BF-0C2680351E76";
layerId = "DD07B5BE-A45E-45BC-8298-F477659893A2";
name = "Nov 15 19, 14:57";
paths = (
{
closed = 1;
nodes = (
"399 0 LINE SMOOTH",
"444 0 OFFCURVE",
"469 25 OFFCURVE",
"469 70 CURVE SMOOTH",
"469 360 LINE SMOOTH",
"469 406 OFFCURVE",
"445 430 OFFCURVE",
"399 430 CURVE SMOOTH",
"146 430 LINE",
"146 665 LINE",
"146 688 OFFCURVE",
"134 700 OFFCURVE",
"111 700 CURVE SMOOTH",
"110 700 LINE SMOOTH",
"87 700 OFFCURVE",
"75 688 OFFCURVE",
"75 665 CURVE",
"75 430 LINE",
"75 70 LINE SMOOTH",
"75 25 OFFCURVE",
"99 0 OFFCURVE",
"145 0 CURVE SMOOTH"
);
},
{
closed = 1;
nodes = (
"159 71 LINE SMOOTH",
"150 71 OFFCURVE",
"146 75 OFFCURVE",
"146 84 CURVE SMOOTH",
"146 359 LINE",
"380 359 LINE SMOOTH",
"392 359 OFFCURVE",
"398 353 OFFCURVE",
"398 341 CURVE SMOOTH",
"398 84 LINE SMOOTH",
"398 75 OFFCURVE",
"394 71 OFFCURVE",
"385 71 CURVE SMOOTH"
);
}
);
width = 539;
},
{
associatedMasterId = "E2857279-2EBA-495B-814E-9CD52C7A5F8C";
layerId = "3B20D527-A8E1-42A5-8CC3-D1EBE792393B";
name = "Nov 15 19, 15:32";
paths = (
{
closed = 1;
nodes = (
"474 0 LINE SMOOTH",
"474 0 OFFCURVE",
"474 0 OFFCURVE",
"474 0 CURVE SMOOTH",
"474 429 LINE SMOOTH",
"474 429 OFFCURVE",
"474 429 OFFCURVE",
"474 429 CURVE SMOOTH",
"151 429 LINE",
"151 700 LINE",
"151 700 OFFCURVE",
"151 700 OFFCURVE",
"151 700 CURVE SMOOTH",
"80 700 LINE SMOOTH",
"80 700 OFFCURVE",
"80 700 OFFCURVE",
"80 700 CURVE",
"80 429 LINE",
"80 0 LINE SMOOTH",
"80 0 OFFCURVE",
"80 0 OFFCURVE",
"80 0 CURVE SMOOTH"
);
},
{
closed = 1;
nodes = (
"151 71 LINE SMOOTH",
"151 71 OFFCURVE",
"151 71 OFFCURVE",
"151 71 CURVE SMOOTH",
"151 358 LINE",
"403 358 LINE SMOOTH",
"403 358 OFFCURVE",
"403 358 OFFCURVE",
"403 358 CURVE SMOOTH",
"403 71 LINE SMOOTH",
"403 71 OFFCURVE",
"403 71 OFFCURVE",
"403 71 CURVE SMOOTH"
);
}
);
width = 544;
}
);
unicode = 0062;
},
{
glyphname = c;
lastChange = "2019-11-15 19:20:35 +0000";
layers = (
{
layerId = "E2857279-2EBA-495B-814E-9CD52C7A5F8C";
paths = (
{
closed = 1;
nodes = (
"484 356 LINE SMOOTH",
"484 356 OFFCURVE",
"484 368 OFFCURVE",
"484 391 CURVE SMOOTH",
"484 430 LINE SMOOTH",
"484 476 OFFCURVE",
"484 500 OFFCURVE",
"484 500 CURVE SMOOTH",
"70 500 LINE SMOOTH",
"70 500 OFFCURVE",
"70 500 OFFCURVE",
"70 500 CURVE SMOOTH",
"70 70 LINE SMOOTH",
"70 24 OFFCURVE",
"70 0 OFFCURVE",
"70 0 CURVE SMOOTH",
"484 0 LINE SMOOTH",
"484 0 OFFCURVE",
"484 0 OFFCURVE",
"484 0 CURVE SMOOTH",
"484 144 LINE SMOOTH",
"484 144 OFFCURVE",
"484 144 OFFCURVE",
"484 144 CURVE SMOOTH",
"413 144 LINE SMOOTH",
"413 144 OFFCURVE",
"413 144 OFFCURVE",
"413 144 CURVE SMOOTH",
"413 71 LINE SMOOTH",
"413 71 OFFCURVE",
"413 71 OFFCURVE",
"413 71 CURVE SMOOTH",
"141 70 LINE SMOOTH",
"141 70 OFFCURVE",
"141 70 OFFCURVE",
"141 70 CURVE SMOOTH",
"141 429 LINE SMOOTH",
"141 429 OFFCURVE",
"141 429 OFFCURVE",
"141 429 CURVE SMOOTH",
"413 429 LINE SMOOTH",
"413 429 OFFCURVE",
"413 429 OFFCURVE",
"413 429 CURVE SMOOTH",
"413 391 LINE SMOOTH",
"413 368 OFFCURVE",
"413 356 OFFCURVE",
"413 356 CURVE SMOOTH"
);
}
);
width = 544;
},
{
layerId = "DD439194-7281-4DC7-85BF-0C2680351E76";
paths = (
{
closed = 1;
nodes = (
"449 356 LINE SMOOTH",
"472 356 OFFCURVE",
"484 368 OFFCURVE",
"484 391 CURVE SMOOTH",
"484 430 LINE SMOOTH",
"484 476 OFFCURVE",
"460 500 OFFCURVE",
"414 500 CURVE SMOOTH",
"140 500 LINE SMOOTH",
"94 500 OFFCURVE",
"70 476 OFFCURVE",
"70 430 CURVE SMOOTH",
"70 70 LINE SMOOTH",
"70 24 OFFCURVE",
"94 0 OFFCURVE",
"140 0 CURVE SMOOTH",
"414 0 LINE SMOOTH",
"460 0 OFFCURVE",
"484 24 OFFCURVE",
"484 70 CURVE SMOOTH",
"484 109 LINE SMOOTH",
"484 132 OFFCURVE",
"472 144 OFFCURVE",
"449 144 CURVE SMOOTH",
"448 144 LINE SMOOTH",
"425 144 OFFCURVE",
"413 132 OFFCURVE",
"413 109 CURVE SMOOTH",
"413 89 LINE SMOOTH",
"413 77 OFFCURVE",
"407 71 OFFCURVE",
"395 71 CURVE SMOOTH",
"159 70 LINE SMOOTH",
"147 70 OFFCURVE",
"141 76 OFFCURVE",
"141 88 CURVE SMOOTH",
"141 411 LINE SMOOTH",
"141 423 OFFCURVE",
"147 429 OFFCURVE",
"159 429 CURVE SMOOTH",
"395 429 LINE SMOOTH",
"407 429 OFFCURVE",
"413 423 OFFCURVE",
"413 411 CURVE SMOOTH",
"413 391 LINE SMOOTH",
"413 368 OFFCURVE",
"425 356 OFFCURVE",
"448 356 CURVE SMOOTH"
);
}
);
width = 544;
}
);
unicode = 0063;
},
{
glyphname = d;
lastChange = "2019-11-15 19:21:19 +0000";
layers = (
{
layerId = "E2857279-2EBA-495B-814E-9CD52C7A5F8C";
paths = (
{
closed = 1;
nodes = (
"464 0 LINE SMOOTH",
"464 0 OFFCURVE",
"464 0 OFFCURVE",
"464 0 CURVE SMOOTH",
"464 500 LINE",
"464 750 LINE",
"464 750 OFFCURVE",
"464 750 OFFCURVE",
"464 750 CURVE SMOOTH",
"393 750 LINE SMOOTH",
"393 750 OFFCURVE",
"393 750 OFFCURVE",
"393 750 CURVE",
"393 500 LINE",
"70 500 LINE SMOOTH",
"70 500 OFFCURVE",
"70 500 OFFCURVE",
"70 500 CURVE SMOOTH",
"70 0 LINE SMOOTH",
"70 0 OFFCURVE",
"70 0 OFFCURVE",
"70 0 CURVE SMOOTH"
);
},
{
closed = 1;
nodes = (
"141 71 OFFCURVE",
"141 71 OFFCURVE",
"141 71 CURVE SMOOTH",
"141 429 LINE SMOOTH",
"141 429 OFFCURVE",
"141 429 OFFCURVE",
"141 429 CURVE SMOOTH",
"393 429 LINE",
"393 71 LINE SMOOTH",
"393 71 OFFCURVE",
"393 71 OFFCURVE",
"393 71 CURVE SMOOTH",
"141 71 LINE SMOOTH"
);
}
);
width = 544;
},
{
layerId = "DD439194-7281-4DC7-85BF-0C2680351E76";
paths = (
{
closed = 1;
nodes = (
"394 0 LINE SMOOTH",
"440 0 OFFCURVE",
"464 25 OFFCURVE",
"464 70 CURVE SMOOTH",
"464 500 LINE",
"464 715 LINE",
"464 738 OFFCURVE",
"452 750 OFFCURVE",
"429 750 CURVE SMOOTH",
"428 750 LINE SMOOTH",
"405 750 OFFCURVE",
"393 738 OFFCURVE",
"393 715 CURVE",
"393 500 LINE",
"140 500 LINE SMOOTH",
"94 500 OFFCURVE",
"70 476 OFFCURVE",
"70 430 CURVE SMOOTH",
"70 70 LINE SMOOTH",
"70 25 OFFCURVE",
"95 0 OFFCURVE",
"140 0 CURVE SMOOTH"
);
},
{
closed = 1;
nodes = (
"147 71 OFFCURVE",
"141 77 OFFCURVE",
"141 89 CURVE SMOOTH",
"141 411 LINE SMOOTH",
"141 423 OFFCURVE",
"147 429 OFFCURVE",
"159 429 CURVE SMOOTH",
"393 429 LINE",
"393 89 LINE SMOOTH",
"393 77 OFFCURVE",
"387 71 OFFCURVE",
"375 71 CURVE SMOOTH",
"159 71 LINE SMOOTH"
);
}
);
width = 539;
},
{
associatedMasterId = "DD439194-7281-4DC7-85BF-0C2680351E76";
layerId = "AE1F521B-378E-4602-88DD-F42EF53D1D3F";
name = "Nov 15 19, 14:57";
paths = (
{
closed = 1;
nodes = (
"394 0 LINE SMOOTH",
"440 0 OFFCURVE",
"464 25 OFFCURVE",
"464 70 CURVE SMOOTH",
"464 429 LINE",
"464 665 LINE",
"464 688 OFFCURVE",
"452 700 OFFCURVE",
"429 700 CURVE SMOOTH",
"428 700 LINE SMOOTH",
"405 700 OFFCURVE",
"393 688 OFFCURVE",
"393 665 CURVE",
"393 429 LINE",
"140 429 LINE SMOOTH",
"94 429 OFFCURVE",
"70 405 OFFCURVE",
"70 359 CURVE SMOOTH",
"70 70 LINE SMOOTH",
"70 25 OFFCURVE",
"95 0 OFFCURVE",
"140 0 CURVE SMOOTH"
);
},
{
closed = 1;
nodes = (
"145 71 OFFCURVE",
"141 75 OFFCURVE",
"141 84 CURVE SMOOTH",
"141 340 LINE SMOOTH",
"141 352 OFFCURVE",
"147 358 OFFCURVE",
"159 358 CURVE SMOOTH",
"393 358 LINE",
"393 84 LINE SMOOTH",
"393 75 OFFCURVE",
"389 71 OFFCURVE",
"380 71 CURVE SMOOTH",
"154 71 LINE SMOOTH"
);
}
);
width = 539;
},
{
associatedMasterId = "E2857279-2EBA-495B-814E-9CD52C7A5F8C";
layerId = "385D8FE0-1CAD-4D3D-AAFE-428D2281809F";
name = "Nov 15 19, 15:32";
paths = (
{
closed = 1;
nodes = (
"464 0 LINE SMOOTH",
"464 0 OFFCURVE",
"464 0 OFFCURVE",
"464 0 CURVE SMOOTH",
"464 429 LINE",
"464 700 LINE",
"464 700 OFFCURVE",
"464 700 OFFCURVE",
"464 700 CURVE SMOOTH",
"393 700 LINE SMOOTH",
"393 700 OFFCURVE",
"393 700 OFFCURVE",
"393 700 CURVE",
"393 429 LINE",
"70 429 LINE SMOOTH",
"70 429 OFFCURVE",
"70 429 OFFCURVE",
"70 429 CURVE SMOOTH",
"70 0 LINE SMOOTH",
"70 0 OFFCURVE",
"70 0 OFFCURVE",
"70 0 CURVE SMOOTH"
);
},
{
closed = 1;
nodes = (
"141 71 OFFCURVE",
"141 71 OFFCURVE",
"141 71 CURVE SMOOTH",
"141 358 LINE SMOOTH",
"141 358 OFFCURVE",
"141 358 OFFCURVE",
"141 358 CURVE SMOOTH",
"393 358 LINE",
"393 71 LINE SMOOTH",
"393 71 OFFCURVE",
"393 71 OFFCURVE",
"393 71 CURVE SMOOTH",
"141 71 LINE SMOOTH"
);
}
);
width = 544;
}
);
unicode = 0064;
},
{
glyphname = e;
lastChange = "2019-11-15 19:17:26 +0000";
layers = (
{
layerId = "E2857279-2EBA-495B-814E-9CD52C7A5F8C";
paths = (
{
closed = 1;
nodes = (
"70 500 LINE SMOOTH",
"70 500 OFFCURVE",
"70 500 OFFCURVE",
"70 500 CURVE SMOOTH",
"70 0 LINE SMOOTH",
"70 0 OFFCURVE",
"70 0 OFFCURVE",
"70 0 CURVE SMOOTH",
"464 0 LINE SMOOTH",
"464 0 OFFCURVE",
"464 0 OFFCURVE",
"464 0 CURVE SMOOTH",
"464 137 LINE SMOOTH",
"464 137 OFFCURVE",
"464 137 OFFCURVE",
"464 137 CURVE SMOOTH",
"393 137 LINE SMOOTH",
"393 137 OFFCURVE",
"393 137 OFFCURVE",
"393 137 CURVE SMOOTH",
"393 71 LINE SMOOTH",
"393 71 OFFCURVE",
"393 71 OFFCURVE",
"393 71 CURVE SMOOTH",
"141 71 LINE SMOOTH",
"141 71 OFFCURVE",
"141 71 OFFCURVE",
"141 71 CURVE SMOOTH",
"141 225 LINE",
"464 225 LINE SMOOTH",
"464 225 OFFCURVE",
"464 225 OFFCURVE",
"464 225 CURVE SMOOTH",
"464 500 LINE SMOOTH",
"464 500 OFFCURVE",
"464 500 OFFCURVE",
"464 500 CURVE SMOOTH"
);
},
{
closed = 1;
nodes = (
"393 429 OFFCURVE",
"393 429 OFFCURVE",
"393 429 CURVE SMOOTH",
"393 296 LINE SMOOTH",
"393 296 OFFCURVE",
"393 296 OFFCURVE",
"393 296 CURVE SMOOTH",
"141 296 LINE",
"141 429 LINE SMOOTH",
"141 429 OFFCURVE",
"141 429 OFFCURVE",
"141 429 CURVE SMOOTH",
"393 429 LINE SMOOTH"
);
}
);
width = 524;
},
{
layerId = "DD439194-7281-4DC7-85BF-0C2680351E76";
paths = (
{
closed = 1;
nodes = (
"140 500 LINE SMOOTH",
"94 500 OFFCURVE",
"70 476 OFFCURVE",
"70 430 CURVE SMOOTH",
"70 70 LINE SMOOTH",
"70 24 OFFCURVE",
"94 0 OFFCURVE",
"140 0 CURVE SMOOTH",
"394 0 LINE SMOOTH",
"440 0 OFFCURVE",
"464 24 OFFCURVE",
"464 70 CURVE SMOOTH",
"464 102 LINE SMOOTH",
"464 125 OFFCURVE",
"452 137 OFFCURVE",
"429 137 CURVE SMOOTH",
"428 137 LINE SMOOTH",
"405 137 OFFCURVE",
"393 125 OFFCURVE",
"393 102 CURVE SMOOTH",
"393 89 LINE SMOOTH",
"393 77 OFFCURVE",
"387 71 OFFCURVE",
"375 71 CURVE SMOOTH",
"159 71 LINE SMOOTH",
"147 71 OFFCURVE",
"141 77 OFFCURVE",
"141 89 CURVE SMOOTH",
"141 225 LINE",
"394 225 LINE SMOOTH",
"440 225 OFFCURVE",
"464 249 OFFCURVE",
"464 295 CURVE SMOOTH",
"464 430 LINE SMOOTH",
"464 476 OFFCURVE",
"440 500 OFFCURVE",
"394 500 CURVE SMOOTH"
);
},
{
closed = 1;
nodes = (
"387 429 OFFCURVE",
"393 423 OFFCURVE",
"393 411 CURVE SMOOTH",
"393 314 LINE SMOOTH",
"393 302 OFFCURVE",
"387 296 OFFCURVE",
"375 296 CURVE SMOOTH",
"141 296 LINE",
"141 411 LINE SMOOTH",
"141 423 OFFCURVE",
"147 429 OFFCURVE",
"159 429 CURVE SMOOTH",
"375 429 LINE SMOOTH"
);
}
);
width = 524;
}
);
unicode = 0065;
},
{
glyphname = f;
lastChange = "2019-11-15 18:22:45 +0000";
layers = (
{
layerId = "E2857279-2EBA-495B-814E-9CD52C7A5F8C";
paths = (
{
closed = 1;
nodes = (
"346 430 OFFCURVE",
"346 478 OFFCURVE",
"346 501 CURVE SMOOTH",
"346 501 LINE SMOOTH",
"346 501 OFFCURVE",
"346 501 OFFCURVE",
"346 501 CURVE SMOOTH",
"201 501 LINE",
"201 679 LINE",
"201 679 OFFCURVE",
"201 679 OFFCURVE",
"201 679 CURVE",
"343 679 LINE SMOOTH",
"343 679 OFFCURVE",
"343 679 OFFCURVE",
"343 679 CURVE SMOOTH",
"343 750 LINE SMOOTH",
"343 750 OFFCURVE",
"343 750 OFFCURVE",
"343 750 CURVE SMOOTH",
"130 750 LINE",
"130 750 OFFCURVE",
"130 750 OFFCURVE",
"130 750 CURVE",
"130 0 LINE",
"130 0 OFFCURVE",
"130 0 OFFCURVE",
"130 0 CURVE SMOOTH",
"201 0 LINE SMOOTH",
"201 0 OFFCURVE",
"201 0 OFFCURVE",
"201 0 CURVE",
"201 167 OFFCURVE",
"201 311 OFFCURVE",
"201 430 CURVE",
"346 430 LINE SMOOTH"
);
},
{
closed = 1;
nodes = (
"45 430 LINE SMOOTH",
"45 430 OFFCURVE",
"45 430 OFFCURVE",
"45 430 CURVE SMOOTH",
"45 501 LINE SMOOTH",
"45 501 OFFCURVE",
"45 501 OFFCURVE",
"45 501 CURVE SMOOTH",
"130 501 LINE",
"130 430 LINE"
);
}
);
width = 391;
},
{
layerId = "DD439194-7281-4DC7-85BF-0C2680351E76";
paths = (
{
closed = 1;
nodes = (
"329 430 OFFCURVE",
"341 442 OFFCURVE",
"341 465 CURVE SMOOTH",
"341 466 LINE SMOOTH",
"341 489 OFFCURVE",
"329 501 OFFCURVE",
"306 501 CURVE SMOOTH",
"196 501 LINE",
"196 661 LINE",
"196 673 OFFCURVE",
"202 679 OFFCURVE",
"214 679 CURVE",
"303 679 LINE SMOOTH",
"330 679 OFFCURVE",
"338 691 OFFCURVE",
"338 714 CURVE SMOOTH",
"338 715 LINE SMOOTH",
"338 738 OFFCURVE",
"326 750 OFFCURVE",
"303 750 CURVE SMOOTH",
"195 750 LINE",
"149 750 OFFCURVE",
"125 726 OFFCURVE",
"125 680 CURVE",
"125 35 LINE",
"125 16 OFFCURVE",
"137 0 OFFCURVE",
"160 0 CURVE SMOOTH",
"161 0 LINE SMOOTH",
"184 0 OFFCURVE",
"196 12 OFFCURVE",
"196 35 CURVE",
"196 202 OFFCURVE",
"196 311 OFFCURVE",
"196 430 CURVE",
"306 430 LINE SMOOTH"
);
},
{
closed = 1;
nodes = (
"75 430 LINE SMOOTH",
"52 430 OFFCURVE",
"40 442 OFFCURVE",
"40 465 CURVE SMOOTH",
"40 466 LINE SMOOTH",
"40 489 OFFCURVE",
"52 501 OFFCURVE",
"75 501 CURVE SMOOTH",
"125 501 LINE",
"125 430 LINE"
);
}
);
width = 381;
}
);
unicode = 0066;
},
{
glyphname = g;
lastChange = "2019-11-15 19:22:01 +0000";
layers = (
{
associatedMasterId = "E2857279-2EBA-495B-814E-9CD52C7A5F8C";
layerId = "B19140BB-7176-4963-B149-E1601F97B380";
name = "Nov 8 19, 14:34";
paths = (
{
closed = 1;
nodes = (
"282 71 LINE SMOOTH",
"269 71 OFFCURVE",
"262 78 OFFCURVE",
"262 91 CURVE SMOOTH",
"262 160 LINE SMOOTH",
"262 173 OFFCURVE",
"269 180 OFFCURVE",
"282 180 CURVE SMOOTH",
"396 180 LINE SMOOTH",
"409 180 OFFCURVE",
"416 187 OFFCURVE",
"416 200 CURVE SMOOTH",
"416 453 LINE",
"420 453 LINE SMOOTH",
"433 453 OFFCURVE",
"440 460 OFFCURVE",
"440 473 CURVE SMOOTH",
"440 504 LINE SMOOTH",
"440 517 OFFCURVE",
"433 524 OFFCURVE",
"420 524 CURVE SMOOTH",
"389 524 LINE SMOOTH",
"376 524 OFFCURVE",
"369 517 OFFCURVE",
"369 504 CURVE SMOOTH",
"369 500 LINE",
"144 500 LINE SMOOTH",
"131 500 OFFCURVE",
"124 493 OFFCURVE",
"124 480 CURVE SMOOTH",
"124 200 LINE SMOOTH",
"124 187 OFFCURVE",
"131 180 OFFCURVE",
"144 180 CURVE SMOOTH",
"171 180 LINE SMOOTH",
"184 180 OFFCURVE",
"191 177 OFFCURVE",
"191 160 CURVE SMOOTH",
"191 91 LINE SMOOTH",
"191 78 OFFCURVE",
"184 71 OFFCURVE",
"171 71 CURVE SMOOTH",
"114 71 LINE SMOOTH",
"101 71 OFFCURVE",
"94 64 OFFCURVE",
"94 51 CURVE SMOOTH",
"94 -119 LINE SMOOTH",
"94 -132 OFFCURVE",
"101 -139 OFFCURVE",
"114 -139 CURVE SMOOTH",
"486 -139 LINE SMOOTH",
"499 -139 OFFCURVE",
"506 -132 OFFCURVE",
"506 -119 CURVE SMOOTH",
"506 51 LINE SMOOTH",
"506 64 OFFCURVE",
"499 71 OFFCURVE",
"486 71 CURVE SMOOTH"
);
},
{
closed = 1;
nodes = (
"195 425 OFFCURVE",
"199 429 OFFCURVE",
"208 429 CURVE SMOOTH",
"332 429 LINE SMOOTH",
"341 429 OFFCURVE",
"345 425 OFFCURVE",
"345 416 CURVE SMOOTH",
"345 264 LINE SMOOTH",
"345 255 OFFCURVE",
"341 251 OFFCURVE",
"332 251 CURVE SMOOTH",
"208 251 LINE SMOOTH",
"199 251 OFFCURVE",
"195 255 OFFCURVE",
"195 264 CURVE SMOOTH",
"195 416 LINE SMOOTH"
);
},
{
closed = 1;
nodes = (
"435 -64 OFFCURVE",
"431 -68 OFFCURVE",
"422 -68 CURVE SMOOTH",
"178 -68 LINE SMOOTH",
"169 -68 OFFCURVE",
"165 -64 OFFCURVE",
"165 -55 CURVE SMOOTH",
"165 -13 LINE SMOOTH",
"165 -4 OFFCURVE",
"169 0 OFFCURVE",
"178 0 CURVE SMOOTH",
"422 0 LINE SMOOTH",
"431 0 OFFCURVE",
"435 -4 OFFCURVE",
"435 -13 CURVE SMOOTH",
"435 -55 LINE SMOOTH"
);
}
);
width = 600;
},
{
associatedMasterId = "E2857279-2EBA-495B-814E-9CD52C7A5F8C";
layerId = "6B11A56F-7456-4523-B3DD-9E6E73DD66F9";
name = "Nov 8 19, 14:49";
paths = (
{
closed = 1;
nodes = (
"282 71 LINE SMOOTH",
"269 71 OFFCURVE",
"262 78 OFFCURVE",
"262 91 CURVE SMOOTH",
"262 160 LINE SMOOTH",
"262 173 OFFCURVE",
"269 180 OFFCURVE",
"282 180 CURVE SMOOTH",
"396 180 LINE SMOOTH",
"409 180 OFFCURVE",
"416 187 OFFCURVE",
"416 200 CURVE SMOOTH",
"416 451 LINE SMOOTH",
"416 464 OFFCURVE",
"423 471 OFFCURVE",
"436 471 CURVE SMOOTH",
"438 471 LINE SMOOTH",
"451 471 OFFCURVE",
"458 478 OFFCURVE",
"458 491 CURVE SMOOTH",
"458 522 LINE SMOOTH",
"458 535 OFFCURVE",
"451 542 OFFCURVE",
"438 542 CURVE SMOOTH",
"407 542 LINE SMOOTH",
"394 542 OFFCURVE",
"387 535 OFFCURVE",
"387 522 CURVE SMOOTH",
"387 520 LINE SMOOTH",
"387 507 OFFCURVE",
"380 500 OFFCURVE",
"367 500 CURVE SMOOTH",
"144 500 LINE SMOOTH",
"131 500 OFFCURVE",
"124 493 OFFCURVE",
"124 480 CURVE SMOOTH",
"124 200 LINE SMOOTH",
"124 187 OFFCURVE",
"131 180 OFFCURVE",
"144 180 CURVE SMOOTH",
"171 180 LINE SMOOTH",
"184 180 OFFCURVE",
"191 177 OFFCURVE",
"191 160 CURVE SMOOTH",
"191 91 LINE SMOOTH",
"191 78 OFFCURVE",
"184 71 OFFCURVE",
"171 71 CURVE SMOOTH",
"114 71 LINE SMOOTH",
"101 71 OFFCURVE",
"94 64 OFFCURVE",
"94 51 CURVE SMOOTH",
"94 -119 LINE SMOOTH",
"94 -132 OFFCURVE",
"101 -139 OFFCURVE",
"114 -139 CURVE SMOOTH",
"486 -139 LINE SMOOTH",
"499 -139 OFFCURVE",
"506 -132 OFFCURVE",
"506 -119 CURVE SMOOTH",
"506 51 LINE SMOOTH",
"506 64 OFFCURVE",
"499 71 OFFCURVE",
"486 71 CURVE SMOOTH"
);
},
{
closed = 1;
nodes = (
"195 425 OFFCURVE",
"199 429 OFFCURVE",
"208 429 CURVE SMOOTH",
"332 429 LINE SMOOTH",
"341 429 OFFCURVE",
"345 425 OFFCURVE",
"345 416 CURVE SMOOTH",
"345 264 LINE SMOOTH",
"345 255 OFFCURVE",
"341 251 OFFCURVE",
"332 251 CURVE SMOOTH",
"208 251 LINE SMOOTH",
"199 251 OFFCURVE",
"195 255 OFFCURVE",
"195 264 CURVE SMOOTH",
"195 416 LINE SMOOTH"
);
},
{
closed = 1;
nodes = (
"435 -64 OFFCURVE",
"431 -68 OFFCURVE",
"422 -68 CURVE SMOOTH",
"178 -68 LINE SMOOTH",
"169 -68 OFFCURVE",
"165 -64 OFFCURVE",
"165 -55 CURVE SMOOTH",
"165 -13 LINE SMOOTH",
"165 -4 OFFCURVE",
"169 0 OFFCURVE",
"178 0 CURVE SMOOTH",
"422 0 LINE SMOOTH",
"431 0 OFFCURVE",
"435 -4 OFFCURVE",
"435 -13 CURVE SMOOTH",
"435 -55 LINE SMOOTH"
);
}
);
width = 600;
},
{
associatedMasterId = "E2857279-2EBA-495B-814E-9CD52C7A5F8C";
layerId = "6A914D94-A4F6-4BEA-AF94-F911A5C1A7D3";
name = "Nov 8 19, 16:22";
paths = (
{
closed = 1;
nodes = (
"262 0 LINE",
"262 90 LINE",
"446 90 LINE SMOOTH",
"459 90 OFFCURVE",
"466 97 OFFCURVE",
"466 110 CURVE SMOOTH",
"466 451 LINE SMOOTH",
"466 464 OFFCURVE",
"473 471 OFFCURVE",
"486 471 CURVE SMOOTH",
"498 471 LINE SMOOTH",
"511 471 OFFCURVE",
"518 478 OFFCURVE",
"518 491 CURVE SMOOTH",
"518 532 LINE SMOOTH",
"518 545 OFFCURVE",
"511 552 OFFCURVE",
"498 552 CURVE SMOOTH",
"457 552 LINE SMOOTH",
"444 552 OFFCURVE",
"437 545 OFFCURVE",
"437 532 CURVE SMOOTH",
"437 520 LINE SMOOTH",
"437 507 OFFCURVE",
"430 500 OFFCURVE",
"417 500 CURVE SMOOTH",
"159 500 LINE SMOOTH",
"136 500 OFFCURVE",
"124 488 OFFCURVE",
"124 465 CURVE SMOOTH",
"124 110 LINE SMOOTH",
"124 97 OFFCURVE",
"131 90 OFFCURVE",
"144 90 CURVE SMOOTH",
"191 90 LINE",
"191 0 LINE",
"129 0 LINE SMOOTH",
"106 0 OFFCURVE",
"94 -12 OFFCURVE",
"94 -35 CURVE SMOOTH",
"94 -175 LINE SMOOTH",
"94 -198 OFFCURVE",
"106 -210 OFFCURVE",
"129 -210 CURVE SMOOTH",
"471 -210 LINE SMOOTH",
"494 -210 OFFCURVE",
"506 -198 OFFCURVE",
"506 -175 CURVE SMOOTH",
"506 -35 LINE SMOOTH",
"506 -12 OFFCURVE",
"494 0 OFFCURVE",
"471 0 CURVE SMOOTH"
);
},
{
closed = 1;
nodes = (
"195 423 OFFCURVE",
"201 429 OFFCURVE",
"213 429 CURVE SMOOTH",
"382 429 LINE SMOOTH",
"391 429 OFFCURVE",
"395 425 OFFCURVE",
"395 416 CURVE SMOOTH",
"395 174 LINE SMOOTH",
"395 165 OFFCURVE",
"391 161 OFFCURVE",
"382 161 CURVE SMOOTH",
"208 161 LINE SMOOTH",
"199 161 OFFCURVE",
"195 165 OFFCURVE",
"195 174 CURVE SMOOTH",
"195 411 LINE SMOOTH"
);
},
{
closed = 1;
nodes = (
"435 -133 OFFCURVE",
"429 -139 OFFCURVE",
"417 -139 CURVE SMOOTH",
"183 -139 LINE SMOOTH",
"171 -139 OFFCURVE",
"165 -133 OFFCURVE",
"165 -121 CURVE SMOOTH",
"165 -89 LINE SMOOTH",
"165 -77 OFFCURVE",
"171 -71 OFFCURVE",
"183 -71 CURVE SMOOTH",
"417 -71 LINE SMOOTH",
"429 -71 OFFCURVE",
"435 -77 OFFCURVE",
"435 -89 CURVE SMOOTH",
"435 -121 LINE SMOOTH"
);
}
);
width = 600;
},
{
associatedMasterId = "E2857279-2EBA-495B-814E-9CD52C7A5F8C";
layerId = "FB3EE87C-AD58-42F8-B52D-F8E0C364D371";
name = "Nov 11 19, 20:40";
paths = (
{
closed = 1;
nodes = (
"282 71 LINE SMOOTH",
"269 71 OFFCURVE",
"262 78 OFFCURVE",
"262 91 CURVE SMOOTH",
"262 136 LINE SMOOTH",
"262 149 OFFCURVE",
"269 156 OFFCURVE",
"282 156 CURVE SMOOTH",
"396 156 LINE SMOOTH",
"409 156 OFFCURVE",
"416 163 OFFCURVE",
"416 176 CURVE SMOOTH",
"416 429 LINE",
"420 429 LINE SMOOTH",
"433 429 OFFCURVE",
"440 436 OFFCURVE",
"440 449 CURVE SMOOTH",
"440 480 LINE SMOOTH",
"440 493 OFFCURVE",
"433 500 OFFCURVE",
"420 500 CURVE SMOOTH",
"389 500 LINE SMOOTH",
"376 500 OFFCURVE",
"369 493 OFFCURVE",
"369 480 CURVE SMOOTH",
"369 476 LINE",
"144 476 LINE SMOOTH",
"131 476 OFFCURVE",
"124 469 OFFCURVE",
"124 456 CURVE SMOOTH",
"124 176 LINE SMOOTH",
"124 163 OFFCURVE",
"131 156 OFFCURVE",
"144 156 CURVE SMOOTH",
"171 156 LINE SMOOTH",
"184 156 OFFCURVE",
"191 153 OFFCURVE",
"191 136 CURVE SMOOTH",
"191 91 LINE SMOOTH",
"191 78 OFFCURVE",
"184 71 OFFCURVE",
"171 71 CURVE SMOOTH",
"114 71 LINE SMOOTH",
"101 71 OFFCURVE",
"94 64 OFFCURVE",
"94 51 CURVE SMOOTH",
"94 -119 LINE SMOOTH",
"94 -132 OFFCURVE",
"101 -139 OFFCURVE",
"114 -139 CURVE SMOOTH",
"486 -139 LINE SMOOTH",
"499 -139 OFFCURVE",
"506 -132 OFFCURVE",
"506 -119 CURVE SMOOTH",
"506 51 LINE SMOOTH",
"506 64 OFFCURVE",
"499 71 OFFCURVE",
"486 71 CURVE SMOOTH"
);
},
{
closed = 1;
nodes = (
"195 401 OFFCURVE",
"199 405 OFFCURVE",
"208 405 CURVE SMOOTH",
"332 405 LINE SMOOTH",
"341 405 OFFCURVE",
"345 401 OFFCURVE",
"345 392 CURVE SMOOTH",
"345 240 LINE SMOOTH",
"345 231 OFFCURVE",
"341 227 OFFCURVE",
"332 227 CURVE SMOOTH",
"208 227 LINE SMOOTH",
"199 227 OFFCURVE",
"195 231 OFFCURVE",
"195 240 CURVE SMOOTH",
"195 392 LINE SMOOTH"
);
},
{
closed = 1;
nodes = (
"435 -64 OFFCURVE",
"431 -68 OFFCURVE",
"422 -68 CURVE SMOOTH",
"178 -68 LINE SMOOTH",
"169 -68 OFFCURVE",
"165 -64 OFFCURVE",
"165 -55 CURVE SMOOTH",
"165 -13 LINE SMOOTH",
"165 -4 OFFCURVE",
"169 0 OFFCURVE",
"178 0 CURVE SMOOTH",
"422 0 LINE SMOOTH",
"431 0 OFFCURVE",
"435 -4 OFFCURVE",
"435 -13 CURVE SMOOTH",
"435 -55 LINE SMOOTH"
);
}
);
width = 566;
},
{
layerId = "E2857279-2EBA-495B-814E-9CD52C7A5F8C";
paths = (
{
closed = 1;
nodes = (
"494 -270 LINE SMOOTH",
"494 -270 OFFCURVE",
"494 -270 OFFCURVE",
"494 -270 CURVE SMOOTH",
"494 0 LINE SMOOTH",
"494 0 OFFCURVE",
"494 0 OFFCURVE",
"494 0 CURVE SMOOTH",
"236 0 LINE",
"236 71 LINE",
"474 71 LINE SMOOTH",
"474 71 OFFCURVE",
"474 71 OFFCURVE",
"474 71 CURVE SMOOTH",
"474 465 LINE SMOOTH",
"474 465 OFFCURVE",
"474 465 OFFCURVE",
"474 465 CURVE SMOOTH",
"526 465 LINE SMOOTH",
"526 465 OFFCURVE",
"526 465 OFFCURVE",
"526 465 CURVE SMOOTH",
"526 552 LINE SMOOTH",
"526 552 OFFCURVE",
"526 552 OFFCURVE",
"526 552 CURVE SMOOTH",
"439 552 LINE SMOOTH",
"439 552 OFFCURVE",
"439 552 OFFCURVE",
"439 552 CURVE SMOOTH",
"439 500 LINE SMOOTH",
"439 500 OFFCURVE",
"439 500 OFFCURVE",
"439 500 CURVE SMOOTH",
"80 500 LINE SMOOTH",
"80 500 OFFCURVE",
"80 500 OFFCURVE",
"80 500 CURVE SMOOTH",
"80 71 LINE SMOOTH",
"80 71 OFFCURVE",
"80 71 OFFCURVE",
"80 71 CURVE SMOOTH",
"165 71 LINE",
"165 0 LINE",
"60 0 LINE SMOOTH",
"60 0 OFFCURVE",
"60 0 OFFCURVE",
"60 0 CURVE SMOOTH",
"60 -270 LINE SMOOTH",
"60 -270 OFFCURVE",
"60 -270 OFFCURVE",
"60 -270 CURVE SMOOTH"
);
},
{
closed = 1;
nodes = (
"131 -206 OFFCURVE",
"131 -206 OFFCURVE",
"131 -206 CURVE SMOOTH",
"131 -64 LINE SMOOTH",
"131 -64 OFFCURVE",
"131 -64 OFFCURVE",
"131 -64 CURVE SMOOTH",
"423 -64 LINE SMOOTH",
"423 -64 OFFCURVE",
"423 -64 OFFCURVE",
"423 -64 CURVE SMOOTH",
"423 -206 LINE SMOOTH",
"423 -206 OFFCURVE",
"423 -206 OFFCURVE",
"423 -206 CURVE SMOOTH",
"131 -206 LINE SMOOTH"
);
},
{
closed = 1;
nodes = (
"151 142 OFFCURVE",
"151 142 OFFCURVE",
"151 142 CURVE SMOOTH",
"151 429 LINE SMOOTH",
"151 429 OFFCURVE",
"151 429 OFFCURVE",
"151 429 CURVE SMOOTH",
"403 429 LINE",
"403 142 LINE SMOOTH",
"403 142 OFFCURVE",
"403 142 OFFCURVE",
"403 142 CURVE SMOOTH",
"151 142 LINE SMOOTH"
);
}
);
width = 571;
},
{
associatedMasterId = "E2857279-2EBA-495B-814E-9CD52C7A5F8C";
layerId = "A1EBE6DC-4707-43B7-A213-1013A83008F3";
name = "Nov 12 19, 13:22";
paths = (
{
closed = 1;
nodes = (
"228 -60 LINE",
"228 0 LINE",
"422 0 LINE SMOOTH",
"468 0 OFFCURVE",
"492 25 OFFCURVE",
"492 70 CURVE SMOOTH",
"492 451 LINE SMOOTH",
"492 464 OFFCURVE",
"499 471 OFFCURVE",
"512 471 CURVE SMOOTH",
"524 471 LINE SMOOTH",
"537 471 OFFCURVE",
"544 478 OFFCURVE",
"544 491 CURVE SMOOTH",
"544 532 LINE SMOOTH",
"544 545 OFFCURVE",
"537 552 OFFCURVE",
"524 552 CURVE SMOOTH",
"483 552 LINE SMOOTH",
"470 552 OFFCURVE",
"463 545 OFFCURVE",
"463 532 CURVE SMOOTH",
"463 520 LINE SMOOTH",
"463 507 OFFCURVE",
"456 500 OFFCURVE",
"443 500 CURVE SMOOTH",
"150 500 LINE SMOOTH",
"104 500 OFFCURVE",
"80 476 OFFCURVE",
"80 430 CURVE SMOOTH",
"80 70 LINE SMOOTH",
"80 25 OFFCURVE",
"105 0 OFFCURVE",
"150 0 CURVE SMOOTH",
"157 0 LINE",
"157 -60 LINE",
"130 -60 LINE SMOOTH",
"84 -60 OFFCURVE",
"60 -84 OFFCURVE",
"60 -130 CURVE SMOOTH",
"60 -200 LINE SMOOTH",
"60 -246 OFFCURVE",
"85 -270 OFFCURVE",
"130 -270 CURVE SMOOTH",
"442 -270 LINE SMOOTH",
"488 -270 OFFCURVE",
"512 -246 OFFCURVE",
"512 -200 CURVE SMOOTH",
"512 -130 LINE SMOOTH",
"512 -85 OFFCURVE",
"488 -60 OFFCURVE",
"442 -60 CURVE SMOOTH"
);
},
{
closed = 1;
nodes = (
"151 423 OFFCURVE",
"157 429 OFFCURVE",
"169 429 CURVE SMOOTH",
"408 429 LINE SMOOTH",
"417 429 OFFCURVE",
"421 425 OFFCURVE",
"421 416 CURVE SMOOTH",
"421 84 LINE SMOOTH",
"421 75 OFFCURVE",
"417 71 OFFCURVE",
"408 71 CURVE SMOOTH",
"164 71 LINE SMOOTH",
"155 71 OFFCURVE",
"151 75 OFFCURVE",
"151 84 CURVE SMOOTH",
"151 411 LINE SMOOTH"
);
},
{
closed = 1;
nodes = (
"441 -200 OFFCURVE",
"435 -206 OFFCURVE",
"423 -206 CURVE SMOOTH",
"149 -206 LINE SMOOTH",
"137 -206 OFFCURVE",
"131 -200 OFFCURVE",
"131 -188 CURVE SMOOTH",
"131 -142 LINE SMOOTH",
"131 -130 OFFCURVE",
"137 -124 OFFCURVE",
"149 -124 CURVE SMOOTH",
"423 -124 LINE SMOOTH",
"435 -124 OFFCURVE",
"441 -130 OFFCURVE",
"441 -142 CURVE SMOOTH",
"441 -188 LINE SMOOTH"
);
}
);
width = 566;
},
{
associatedMasterId = "DD439194-7281-4DC7-85BF-0C2680351E76";
layerId = "3BEF51E0-4419-4607-A4E9-10FF6CD3AF5A";
name = "Nov 8 19, 14:34";
paths = (
{
closed = 1;
nodes = (
"282 71 LINE SMOOTH",
"269 71 OFFCURVE",
"262 78 OFFCURVE",
"262 91 CURVE SMOOTH",
"262 160 LINE SMOOTH",
"262 173 OFFCURVE",
"269 180 OFFCURVE",
"282 180 CURVE SMOOTH",
"396 180 LINE SMOOTH",
"409 180 OFFCURVE",
"416 187 OFFCURVE",
"416 200 CURVE SMOOTH",
"416 453 LINE",
"420 453 LINE SMOOTH",
"433 453 OFFCURVE",
"440 460 OFFCURVE",
"440 473 CURVE SMOOTH",
"440 504 LINE SMOOTH",
"440 517 OFFCURVE",
"433 524 OFFCURVE",
"420 524 CURVE SMOOTH",
"389 524 LINE SMOOTH",
"376 524 OFFCURVE",
"369 517 OFFCURVE",
"369 504 CURVE SMOOTH",
"369 500 LINE",
"144 500 LINE SMOOTH",
"131 500 OFFCURVE",
"124 493 OFFCURVE",
"124 480 CURVE SMOOTH",
"124 200 LINE SMOOTH",
"124 187 OFFCURVE",
"131 180 OFFCURVE",
"144 180 CURVE SMOOTH",
"171 180 LINE SMOOTH",
"184 180 OFFCURVE",
"191 177 OFFCURVE",
"191 160 CURVE SMOOTH",
"191 91 LINE SMOOTH",
"191 78 OFFCURVE",
"184 71 OFFCURVE",
"171 71 CURVE SMOOTH",
"114 71 LINE SMOOTH",
"101 71 OFFCURVE",
"94 64 OFFCURVE",
"94 51 CURVE SMOOTH",
"94 -119 LINE SMOOTH",
"94 -132 OFFCURVE",
"101 -139 OFFCURVE",
"114 -139 CURVE SMOOTH",
"486 -139 LINE SMOOTH",
"499 -139 OFFCURVE",
"506 -132 OFFCURVE",
"506 -119 CURVE SMOOTH",
"506 51 LINE SMOOTH",
"506 64 OFFCURVE",
"499 71 OFFCURVE",
"486 71 CURVE SMOOTH"
);
},
{
closed = 1;
nodes = (
"195 425 OFFCURVE",
"199 429 OFFCURVE",
"208 429 CURVE SMOOTH",
"332 429 LINE SMOOTH",
"341 429 OFFCURVE",
"345 425 OFFCURVE",
"345 416 CURVE SMOOTH",
"345 264 LINE SMOOTH",
"345 255 OFFCURVE",
"341 251 OFFCURVE",
"332 251 CURVE SMOOTH",
"208 251 LINE SMOOTH",
"199 251 OFFCURVE",
"195 255 OFFCURVE",
"195 264 CURVE SMOOTH",
"195 416 LINE SMOOTH"
);
},
{
closed = 1;
nodes = (
"435 -64 OFFCURVE",
"431 -68 OFFCURVE",
"422 -68 CURVE SMOOTH",
"178 -68 LINE SMOOTH",
"169 -68 OFFCURVE",
"165 -64 OFFCURVE",
"165 -55 CURVE SMOOTH",
"165 -13 LINE SMOOTH",
"165 -4 OFFCURVE",
"169 0 OFFCURVE",
"178 0 CURVE SMOOTH",
"422 0 LINE SMOOTH",
"431 0 OFFCURVE",
"435 -4 OFFCURVE",
"435 -13 CURVE SMOOTH",
"435 -55 LINE SMOOTH"
);
}
);
width = 600;
},
{
associatedMasterId = "DD439194-7281-4DC7-85BF-0C2680351E76";
layerId = "15388342-087E-4597-9E9F-C9C64625870A";
name = "Nov 8 19, 14:49";
paths = (
{
closed = 1;
nodes = (
"282 71 LINE SMOOTH",
"269 71 OFFCURVE",
"262 78 OFFCURVE",
"262 91 CURVE SMOOTH",
"262 160 LINE SMOOTH",
"262 173 OFFCURVE",
"269 180 OFFCURVE",
"282 180 CURVE SMOOTH",
"396 180 LINE SMOOTH",
"409 180 OFFCURVE",
"416 187 OFFCURVE",
"416 200 CURVE SMOOTH",
"416 451 LINE SMOOTH",
"416 464 OFFCURVE",
"423 471 OFFCURVE",
"436 471 CURVE SMOOTH",
"438 471 LINE SMOOTH",
"451 471 OFFCURVE",
"458 478 OFFCURVE",
"458 491 CURVE SMOOTH",
"458 522 LINE SMOOTH",
"458 535 OFFCURVE",
"451 542 OFFCURVE",
"438 542 CURVE SMOOTH",
"407 542 LINE SMOOTH",
"394 542 OFFCURVE",
"387 535 OFFCURVE",
"387 522 CURVE SMOOTH",
"387 520 LINE SMOOTH",
"387 507 OFFCURVE",
"380 500 OFFCURVE",
"367 500 CURVE SMOOTH",
"144 500 LINE SMOOTH",
"131 500 OFFCURVE",
"124 493 OFFCURVE",
"124 480 CURVE SMOOTH",
"124 200 LINE SMOOTH",
"124 187 OFFCURVE",
"131 180 OFFCURVE",
"144 180 CURVE SMOOTH",
"171 180 LINE SMOOTH",
"184 180 OFFCURVE",
"191 177 OFFCURVE",
"191 160 CURVE SMOOTH",
"191 91 LINE SMOOTH",
"191 78 OFFCURVE",
"184 71 OFFCURVE",
"171 71 CURVE SMOOTH",
"114 71 LINE SMOOTH",
"101 71 OFFCURVE",
"94 64 OFFCURVE",
"94 51 CURVE SMOOTH",
"94 -119 LINE SMOOTH",
"94 -132 OFFCURVE",
"101 -139 OFFCURVE",
"114 -139 CURVE SMOOTH",
"486 -139 LINE SMOOTH",
"499 -139 OFFCURVE",
"506 -132 OFFCURVE",
"506 -119 CURVE SMOOTH",
"506 51 LINE SMOOTH",
"506 64 OFFCURVE",
"499 71 OFFCURVE",
"486 71 CURVE SMOOTH"
);
},
{
closed = 1;
nodes = (
"195 425 OFFCURVE",
"199 429 OFFCURVE",
"208 429 CURVE SMOOTH",
"332 429 LINE SMOOTH",
"341 429 OFFCURVE",
"345 425 OFFCURVE",
"345 416 CURVE SMOOTH",
"345 264 LINE SMOOTH",
"345 255 OFFCURVE",
"341 251 OFFCURVE",
"332 251 CURVE SMOOTH",
"208 251 LINE SMOOTH",
"199 251 OFFCURVE",
"195 255 OFFCURVE",
"195 264 CURVE SMOOTH",
"195 416 LINE SMOOTH"
);
},
{
closed = 1;
nodes = (
"435 -64 OFFCURVE",
"431 -68 OFFCURVE",
"422 -68 CURVE SMOOTH",
"178 -68 LINE SMOOTH",
"169 -68 OFFCURVE",
"165 -64 OFFCURVE",
"165 -55 CURVE SMOOTH",
"165 -13 LINE SMOOTH",
"165 -4 OFFCURVE",
"169 0 OFFCURVE",
"178 0 CURVE SMOOTH",
"422 0 LINE SMOOTH",
"431 0 OFFCURVE",
"435 -4 OFFCURVE",
"435 -13 CURVE SMOOTH",
"435 -55 LINE SMOOTH"
);
}
);
width = 600;
},
{
associatedMasterId = "DD439194-7281-4DC7-85BF-0C2680351E76";
layerId = "6DE17729-7A46-4C52-8288-27D6C4ABE46B";
name = "Nov 8 19, 16:22";
paths = (
{
closed = 1;
nodes = (
"262 0 LINE",
"262 90 LINE",
"446 90 LINE SMOOTH",
"459 90 OFFCURVE",
"466 97 OFFCURVE",
"466 110 CURVE SMOOTH",
"466 451 LINE SMOOTH",
"466 464 OFFCURVE",
"473 471 OFFCURVE",
"486 471 CURVE SMOOTH",
"498 471 LINE SMOOTH",
"511 471 OFFCURVE",
"518 478 OFFCURVE",
"518 491 CURVE SMOOTH",
"518 532 LINE SMOOTH",
"518 545 OFFCURVE",
"511 552 OFFCURVE",
"498 552 CURVE SMOOTH",
"457 552 LINE SMOOTH",
"444 552 OFFCURVE",
"437 545 OFFCURVE",
"437 532 CURVE SMOOTH",
"437 520 LINE SMOOTH",
"437 507 OFFCURVE",
"430 500 OFFCURVE",
"417 500 CURVE SMOOTH",
"159 500 LINE SMOOTH",
"136 500 OFFCURVE",
"124 488 OFFCURVE",
"124 465 CURVE SMOOTH",
"124 110 LINE SMOOTH",
"124 97 OFFCURVE",
"131 90 OFFCURVE",
"144 90 CURVE SMOOTH",
"191 90 LINE",
"191 0 LINE",
"129 0 LINE SMOOTH",
"106 0 OFFCURVE",
"94 -12 OFFCURVE",
"94 -35 CURVE SMOOTH",
"94 -175 LINE SMOOTH",
"94 -198 OFFCURVE",
"106 -210 OFFCURVE",
"129 -210 CURVE SMOOTH",
"471 -210 LINE SMOOTH",
"494 -210 OFFCURVE",
"506 -198 OFFCURVE",
"506 -175 CURVE SMOOTH",
"506 -35 LINE SMOOTH",
"506 -12 OFFCURVE",
"494 0 OFFCURVE",
"471 0 CURVE SMOOTH"
);
},
{
closed = 1;
nodes = (
"195 423 OFFCURVE",
"201 429 OFFCURVE",
"213 429 CURVE SMOOTH",
"382 429 LINE SMOOTH",
"391 429 OFFCURVE",
"395 425 OFFCURVE",
"395 416 CURVE SMOOTH",
"395 174 LINE SMOOTH",
"395 165 OFFCURVE",
"391 161 OFFCURVE",
"382 161 CURVE SMOOTH",
"208 161 LINE SMOOTH",
"199 161 OFFCURVE",
"195 165 OFFCURVE",
"195 174 CURVE SMOOTH",
"195 411 LINE SMOOTH"
);
},
{
closed = 1;
nodes = (
"435 -133 OFFCURVE",
"429 -139 OFFCURVE",
"417 -139 CURVE SMOOTH",
"183 -139 LINE SMOOTH",
"171 -139 OFFCURVE",
"165 -133 OFFCURVE",
"165 -121 CURVE SMOOTH",
"165 -89 LINE SMOOTH",
"165 -77 OFFCURVE",
"171 -71 OFFCURVE",
"183 -71 CURVE SMOOTH",
"417 -71 LINE SMOOTH",
"429 -71 OFFCURVE",
"435 -77 OFFCURVE",
"435 -89 CURVE SMOOTH",
"435 -121 LINE SMOOTH"
);
}
);
width = 600;
},
{
associatedMasterId = "DD439194-7281-4DC7-85BF-0C2680351E76";
layerId = "2A309FDA-CD17-4E74-9560-3936810C0A2D";
name = "Nov 11 19, 20:40";
paths = (
{
closed = 1;
nodes = (
"282 71 LINE SMOOTH",
"269 71 OFFCURVE",
"262 78 OFFCURVE",
"262 91 CURVE SMOOTH",
"262 136 LINE SMOOTH",
"262 149 OFFCURVE",
"269 156 OFFCURVE",
"282 156 CURVE SMOOTH",
"396 156 LINE SMOOTH",
"409 156 OFFCURVE",
"416 163 OFFCURVE",
"416 176 CURVE SMOOTH",
"416 429 LINE",
"420 429 LINE SMOOTH",
"433 429 OFFCURVE",
"440 436 OFFCURVE",
"440 449 CURVE SMOOTH",
"440 480 LINE SMOOTH",
"440 493 OFFCURVE",
"433 500 OFFCURVE",
"420 500 CURVE SMOOTH",
"389 500 LINE SMOOTH",
"376 500 OFFCURVE",
"369 493 OFFCURVE",
"369 480 CURVE SMOOTH",
"369 476 LINE",
"144 476 LINE SMOOTH",
"131 476 OFFCURVE",
"124 469 OFFCURVE",
"124 456 CURVE SMOOTH",
"124 176 LINE SMOOTH",
"124 163 OFFCURVE",
"131 156 OFFCURVE",
"144 156 CURVE SMOOTH",
"171 156 LINE SMOOTH",
"184 156 OFFCURVE",
"191 153 OFFCURVE",
"191 136 CURVE SMOOTH",
"191 91 LINE SMOOTH",
"191 78 OFFCURVE",
"184 71 OFFCURVE",
"171 71 CURVE SMOOTH",
"114 71 LINE SMOOTH",
"101 71 OFFCURVE",
"94 64 OFFCURVE",
"94 51 CURVE SMOOTH",
"94 -119 LINE SMOOTH",
"94 -132 OFFCURVE",
"101 -139 OFFCURVE",
"114 -139 CURVE SMOOTH",
"486 -139 LINE SMOOTH",
"499 -139 OFFCURVE",
"506 -132 OFFCURVE",
"506 -119 CURVE SMOOTH",
"506 51 LINE SMOOTH",
"506 64 OFFCURVE",
"499 71 OFFCURVE",
"486 71 CURVE SMOOTH"
);
},
{
closed = 1;
nodes = (
"195 401 OFFCURVE",
"199 405 OFFCURVE",
"208 405 CURVE SMOOTH",
"332 405 LINE SMOOTH",
"341 405 OFFCURVE",
"345 401 OFFCURVE",
"345 392 CURVE SMOOTH",
"345 240 LINE SMOOTH",
"345 231 OFFCURVE",
"341 227 OFFCURVE",
"332 227 CURVE SMOOTH",
"208 227 LINE SMOOTH",
"199 227 OFFCURVE",
"195 231 OFFCURVE",
"195 240 CURVE SMOOTH",
"195 392 LINE SMOOTH"
);
},
{
closed = 1;
nodes = (
"435 -64 OFFCURVE",
"431 -68 OFFCURVE",
"422 -68 CURVE SMOOTH",
"178 -68 LINE SMOOTH",
"169 -68 OFFCURVE",
"165 -64 OFFCURVE",
"165 -55 CURVE SMOOTH",
"165 -13 LINE SMOOTH",
"165 -4 OFFCURVE",
"169 0 OFFCURVE",
"178 0 CURVE SMOOTH",
"422 0 LINE SMOOTH",
"431 0 OFFCURVE",
"435 -4 OFFCURVE",
"435 -13 CURVE SMOOTH",
"435 -55 LINE SMOOTH"
);
}
);
width = 566;
},
{
layerId = "DD439194-7281-4DC7-85BF-0C2680351E76";
paths = (
{
closed = 1;
nodes = (
"424 -250 LINE SMOOTH",
"470 -250 OFFCURVE",
"494 -226 OFFCURVE",
"494 -180 CURVE SMOOTH",
"494 -70 LINE SMOOTH",
"494 -25 OFFCURVE",
"470 0 OFFCURVE",
"424 0 CURVE SMOOTH",
"236 0 LINE",
"236 71 LINE",
"404 71 LINE SMOOTH",
"450 71 OFFCURVE",
"474 96 OFFCURVE",
"474 141 CURVE SMOOTH",
"474 445 LINE SMOOTH",
"474 458 OFFCURVE",
"482 465 OFFCURVE",
"493 465 CURVE SMOOTH",
"506 465 LINE SMOOTH",
"519 465 OFFCURVE",
"526 472 OFFCURVE",
"526 485 CURVE SMOOTH",
"526 532 LINE SMOOTH",
"526 545 OFFCURVE",
"519 552 OFFCURVE",
"506 552 CURVE SMOOTH",
"459 552 LINE SMOOTH",
"446 552 OFFCURVE",
"439 545 OFFCURVE",
"439 532 CURVE SMOOTH",
"439 520 LINE SMOOTH",
"439 507 OFFCURVE",
"432 500 OFFCURVE",
"419 500 CURVE SMOOTH",
"150 500 LINE SMOOTH",
"104 500 OFFCURVE",
"80 476 OFFCURVE",
"80 430 CURVE SMOOTH",
"80 141 LINE SMOOTH",
"80 96 OFFCURVE",
"105 71 OFFCURVE",
"150 71 CURVE SMOOTH",
"165 71 LINE",
"165 0 LINE",
"130 0 LINE SMOOTH",
"84 0 OFFCURVE",
"60 -24 OFFCURVE",
"60 -70 CURVE SMOOTH",
"60 -180 LINE SMOOTH",
"60 -226 OFFCURVE",
"85 -250 OFFCURVE",
"130 -250 CURVE SMOOTH"
);
},
{
closed = 1;
nodes = (
"137 -186 OFFCURVE",
"131 -180 OFFCURVE",
"131 -168 CURVE SMOOTH",
"131 -82 LINE SMOOTH",
"131 -70 OFFCURVE",
"137 -64 OFFCURVE",
"149 -64 CURVE SMOOTH",
"405 -64 LINE SMOOTH",
"417 -64 OFFCURVE",
"423 -70 OFFCURVE",
"423 -82 CURVE SMOOTH",
"423 -168 LINE SMOOTH",
"423 -180 OFFCURVE",
"417 -186 OFFCURVE",
"405 -186 CURVE SMOOTH",
"149 -186 LINE SMOOTH"
);
},
{
closed = 1;
nodes = (
"157 142 OFFCURVE",
"151 148 OFFCURVE",
"151 160 CURVE SMOOTH",
"151 411 LINE SMOOTH",
"151 423 OFFCURVE",
"157 429 OFFCURVE",
"169 429 CURVE SMOOTH",
"403 429 LINE",
"403 160 LINE SMOOTH",
"403 148 OFFCURVE",
"397 142 OFFCURVE",
"385 142 CURVE SMOOTH",
"169 142 LINE SMOOTH"
);
}
);
width = 566;
},
{
associatedMasterId = "DD439194-7281-4DC7-85BF-0C2680351E76";
layerId = "091D8BCB-F013-4F9D-BAF9-42F571049FB2";
name = "Nov 12 19, 13:22";
paths = (
{
closed = 1;
nodes = (
"228 -60 LINE",
"228 0 LINE",
"422 0 LINE SMOOTH",
"468 0 OFFCURVE",
"492 25 OFFCURVE",
"492 70 CURVE SMOOTH",
"492 451 LINE SMOOTH",
"492 464 OFFCURVE",
"499 471 OFFCURVE",
"512 471 CURVE SMOOTH",
"524 471 LINE SMOOTH",
"537 471 OFFCURVE",
"544 478 OFFCURVE",
"544 491 CURVE SMOOTH",
"544 532 LINE SMOOTH",
"544 545 OFFCURVE",
"537 552 OFFCURVE",
"524 552 CURVE SMOOTH",
"483 552 LINE SMOOTH",
"470 552 OFFCURVE",
"463 545 OFFCURVE",
"463 532 CURVE SMOOTH",
"463 520 LINE SMOOTH",
"463 507 OFFCURVE",
"456 500 OFFCURVE",
"443 500 CURVE SMOOTH",
"150 500 LINE SMOOTH",
"104 500 OFFCURVE",
"80 476 OFFCURVE",
"80 430 CURVE SMOOTH",
"80 70 LINE SMOOTH",
"80 25 OFFCURVE",
"105 0 OFFCURVE",
"150 0 CURVE SMOOTH",
"157 0 LINE",
"157 -60 LINE",
"130 -60 LINE SMOOTH",
"84 -60 OFFCURVE",
"60 -84 OFFCURVE",
"60 -130 CURVE SMOOTH",
"60 -200 LINE SMOOTH",
"60 -246 OFFCURVE",
"85 -270 OFFCURVE",
"130 -270 CURVE SMOOTH",
"442 -270 LINE SMOOTH",
"488 -270 OFFCURVE",
"512 -246 OFFCURVE",
"512 -200 CURVE SMOOTH",
"512 -130 LINE SMOOTH",
"512 -85 OFFCURVE",
"488 -60 OFFCURVE",
"442 -60 CURVE SMOOTH"
);
},
{
closed = 1;
nodes = (
"151 423 OFFCURVE",
"157 429 OFFCURVE",
"169 429 CURVE SMOOTH",
"408 429 LINE SMOOTH",
"417 429 OFFCURVE",
"421 425 OFFCURVE",
"421 416 CURVE SMOOTH",
"421 84 LINE SMOOTH",
"421 75 OFFCURVE",
"417 71 OFFCURVE",
"408 71 CURVE SMOOTH",
"164 71 LINE SMOOTH",
"155 71 OFFCURVE",
"151 75 OFFCURVE",
"151 84 CURVE SMOOTH",
"151 411 LINE SMOOTH"
);
},
{
closed = 1;
nodes = (
"441 -200 OFFCURVE",
"435 -206 OFFCURVE",
"423 -206 CURVE SMOOTH",
"149 -206 LINE SMOOTH",
"137 -206 OFFCURVE",
"131 -200 OFFCURVE",
"131 -188 CURVE SMOOTH",
"131 -142 LINE SMOOTH",
"131 -130 OFFCURVE",
"137 -124 OFFCURVE",
"149 -124 CURVE SMOOTH",
"423 -124 LINE SMOOTH",
"435 -124 OFFCURVE",
"441 -130 OFFCURVE",
"441 -142 CURVE SMOOTH",
"441 -188 LINE SMOOTH"
);
}
);
width = 566;
}
);
unicode = 0067;
},
{
glyphname = h;
lastChange = "2019-11-15 18:17:58 +0000";
layers = (
{
layerId = "E2857279-2EBA-495B-814E-9CD52C7A5F8C";
paths = (
{
closed = 1;
nodes = (
"151 500 LINE",
"151 700 LINE SMOOTH",
"151 700 OFFCURVE",
"151 700 OFFCURVE",
"151 700 CURVE SMOOTH",
"80 700 LINE SMOOTH",
"80 700 OFFCURVE",
"80 700 OFFCURVE",
"80 700 CURVE SMOOTH",
"80 0 LINE SMOOTH",
"80 0 OFFCURVE",
"80 0 OFFCURVE",
"80 0 CURVE SMOOTH",
"151 0 LINE SMOOTH",
"151 0 OFFCURVE",
"151 0 OFFCURVE",
"151 0 CURVE",
"151 429 LINE",
"421 429 LINE SMOOTH",
"421 429 OFFCURVE",
"421 429 OFFCURVE",
"421 429 CURVE SMOOTH",
"421 0 LINE SMOOTH",
"421 0 OFFCURVE",
"421 0 OFFCURVE",
"421 0 CURVE SMOOTH",
"492 0 LINE SMOOTH",
"492 0 OFFCURVE",
"492 0 OFFCURVE",
"492 0 CURVE SMOOTH",
"492 500 LINE SMOOTH",
"492 500 OFFCURVE",
"492 500 OFFCURVE",
"492 500 CURVE SMOOTH"
);
}
);
width = 562;
},
{
associatedMasterId = "E2857279-2EBA-495B-814E-9CD52C7A5F8C";
layerId = "E484AB31-700C-4C0F-A96C-AC117582A829";
name = "Nov 7 19, 21:56";
paths = (
{
closed = 1;
nodes = (
"282 71 LINE SMOOTH",
"269 71 OFFCURVE",
"262 78 OFFCURVE",
"262 91 CURVE SMOOTH",
"262 160 LINE SMOOTH",
"262 173 OFFCURVE",
"269 180 OFFCURVE",
"282 180 CURVE SMOOTH",
"396 180 LINE SMOOTH",
"409 180 OFFCURVE",
"416 187 OFFCURVE",
"416 200 CURVE SMOOTH",
"416 480 LINE SMOOTH",
"416 493 OFFCURVE",
"409 500 OFFCURVE",
"396 500 CURVE SMOOTH",
"144 500 LINE SMOOTH",
"131 500 OFFCURVE",
"124 493 OFFCURVE",
"124 480 CURVE SMOOTH",
"124 200 LINE SMOOTH",
"124 187 OFFCURVE",
"131 180 OFFCURVE",
"144 180 CURVE SMOOTH",
"171 180 LINE SMOOTH",
"184 180 OFFCURVE",
"191 177 OFFCURVE",
"191 160 CURVE SMOOTH",
"191 91 LINE SMOOTH",
"191 78 OFFCURVE",
"184 71 OFFCURVE",
"171 71 CURVE SMOOTH",
"114 71 LINE SMOOTH",
"101 71 OFFCURVE",
"94 64 OFFCURVE",
"94 51 CURVE SMOOTH",
"94 -119 LINE SMOOTH",
"94 -132 OFFCURVE",
"101 -139 OFFCURVE",
"114 -139 CURVE SMOOTH",
"486 -139 LINE SMOOTH",
"499 -139 OFFCURVE",
"506 -132 OFFCURVE",
"506 -119 CURVE SMOOTH",
"506 51 LINE SMOOTH",
"506 64 OFFCURVE",
"499 71 OFFCURVE",
"486 71 CURVE SMOOTH"
);
},
{
closed = 1;
nodes = (
"195 425 OFFCURVE",
"199 429 OFFCURVE",
"208 429 CURVE SMOOTH",
"332 429 LINE SMOOTH",
"341 429 OFFCURVE",
"345 425 OFFCURVE",
"345 416 CURVE SMOOTH",
"345 264 LINE SMOOTH",
"345 255 OFFCURVE",
"341 251 OFFCURVE",
"332 251 CURVE SMOOTH",
"208 251 LINE SMOOTH",
"199 251 OFFCURVE",
"195 255 OFFCURVE",
"195 264 CURVE SMOOTH",
"195 416 LINE SMOOTH"
);
},
{
closed = 1;
nodes = (
"435 -64 OFFCURVE",
"431 -68 OFFCURVE",
"422 -68 CURVE SMOOTH",
"178 -68 LINE SMOOTH",
"169 -68 OFFCURVE",
"165 -64 OFFCURVE",
"165 -55 CURVE SMOOTH",
"165 -13 LINE SMOOTH",
"165 -4 OFFCURVE",
"169 0 OFFCURVE",
"178 0 CURVE SMOOTH",
"422 0 LINE SMOOTH",
"431 0 OFFCURVE",
"435 -4 OFFCURVE",
"435 -13 CURVE SMOOTH",
"435 -55 LINE SMOOTH"
);
}
);
width = 600;
},
{
layerId = "DD439194-7281-4DC7-85BF-0C2680351E76";
paths = (
{
closed = 1;
nodes = (
"151 500 LINE",
"151 715 LINE SMOOTH",
"151 738 OFFCURVE",
"139 750 OFFCURVE",
"116 750 CURVE SMOOTH",
"115 750 LINE SMOOTH",
"92 750 OFFCURVE",
"80 738 OFFCURVE",
"80 715 CURVE SMOOTH",
"80 35 LINE SMOOTH",
"80 12 OFFCURVE",
"92 0 OFFCURVE",
"115 0 CURVE SMOOTH",
"116 0 LINE SMOOTH",
"139 0 OFFCURVE",
"151 12 OFFCURVE",
"151 35 CURVE",
"151 429 LINE",
"403 429 LINE SMOOTH",
"415 429 OFFCURVE",
"421 423 OFFCURVE",
"421 411 CURVE SMOOTH",
"421 35 LINE SMOOTH",
"421 12 OFFCURVE",
"433 0 OFFCURVE",
"456 0 CURVE SMOOTH",
"457 0 LINE SMOOTH",
"480 0 OFFCURVE",
"492 12 OFFCURVE",
"492 35 CURVE SMOOTH",
"492 430 LINE SMOOTH",
"492 476 OFFCURVE",
"468 500 OFFCURVE",
"422 500 CURVE SMOOTH"
);
}
);
width = 562;
},
{
associatedMasterId = "DD439194-7281-4DC7-85BF-0C2680351E76";
layerId = "26B9A38C-F107-440C-AB87-C54F605B8E9C";
name = "Nov 7 19, 21:56";
paths = (
{
closed = 1;
nodes = (
"282 71 LINE SMOOTH",
"269 71 OFFCURVE",
"262 78 OFFCURVE",
"262 91 CURVE SMOOTH",
"262 160 LINE SMOOTH",
"262 173 OFFCURVE",
"269 180 OFFCURVE",
"282 180 CURVE SMOOTH",
"396 180 LINE SMOOTH",
"409 180 OFFCURVE",
"416 187 OFFCURVE",
"416 200 CURVE SMOOTH",
"416 480 LINE SMOOTH",
"416 493 OFFCURVE",
"409 500 OFFCURVE",
"396 500 CURVE SMOOTH",
"144 500 LINE SMOOTH",
"131 500 OFFCURVE",
"124 493 OFFCURVE",
"124 480 CURVE SMOOTH",
"124 200 LINE SMOOTH",
"124 187 OFFCURVE",
"131 180 OFFCURVE",
"144 180 CURVE SMOOTH",
"171 180 LINE SMOOTH",
"184 180 OFFCURVE",
"191 177 OFFCURVE",
"191 160 CURVE SMOOTH",
"191 91 LINE SMOOTH",
"191 78 OFFCURVE",
"184 71 OFFCURVE",
"171 71 CURVE SMOOTH",
"114 71 LINE SMOOTH",
"101 71 OFFCURVE",
"94 64 OFFCURVE",
"94 51 CURVE SMOOTH",
"94 -119 LINE SMOOTH",
"94 -132 OFFCURVE",
"101 -139 OFFCURVE",
"114 -139 CURVE SMOOTH",
"486 -139 LINE SMOOTH",
"499 -139 OFFCURVE",
"506 -132 OFFCURVE",
"506 -119 CURVE SMOOTH",
"506 51 LINE SMOOTH",
"506 64 OFFCURVE",
"499 71 OFFCURVE",
"486 71 CURVE SMOOTH"
);
},
{
closed = 1;
nodes = (
"195 425 OFFCURVE",
"199 429 OFFCURVE",
"208 429 CURVE SMOOTH",
"332 429 LINE SMOOTH",
"341 429 OFFCURVE",
"345 425 OFFCURVE",
"345 416 CURVE SMOOTH",
"345 264 LINE SMOOTH",
"345 255 OFFCURVE",
"341 251 OFFCURVE",
"332 251 CURVE SMOOTH",
"208 251 LINE SMOOTH",
"199 251 OFFCURVE",
"195 255 OFFCURVE",
"195 264 CURVE SMOOTH",
"195 416 LINE SMOOTH"
);
},
{
closed = 1;
nodes = (
"435 -64 OFFCURVE",
"431 -68 OFFCURVE",
"422 -68 CURVE SMOOTH",
"178 -68 LINE SMOOTH",
"169 -68 OFFCURVE",
"165 -64 OFFCURVE",
"165 -55 CURVE SMOOTH",
"165 -13 LINE SMOOTH",
"165 -4 OFFCURVE",
"169 0 OFFCURVE",
"178 0 CURVE SMOOTH",
"422 0 LINE SMOOTH",
"431 0 OFFCURVE",
"435 -4 OFFCURVE",
"435 -13 CURVE SMOOTH",
"435 -55 LINE SMOOTH"
);
}
);
width = 600;
},
{
associatedMasterId = "E2857279-2EBA-495B-814E-9CD52C7A5F8C";
layerId = "A507FB44-959C-40F3-A81A-1575AF9EAEE3";
name = "Nov 15 19, 15:34";
paths = (
{
closed = 1;
nodes = (
"151 416 LINE",
"151 700 LINE SMOOTH",
"151 700 OFFCURVE",
"151 700 OFFCURVE",
"151 700 CURVE SMOOTH",
"80 700 LINE SMOOTH",
"80 700 OFFCURVE",
"80 700 OFFCURVE",
"80 700 CURVE SMOOTH",
"80 0 LINE SMOOTH",
"80 0 OFFCURVE",
"80 0 OFFCURVE",
"80 0 CURVE SMOOTH",
"151 0 LINE SMOOTH",
"151 0 OFFCURVE",
"151 0 OFFCURVE",
"151 0 CURVE",
"151 345 LINE",
"421 345 LINE SMOOTH",
"421 345 OFFCURVE",
"421 345 OFFCURVE",
"421 345 CURVE SMOOTH",
"421 0 LINE SMOOTH",
"421 0 OFFCURVE",
"421 0 OFFCURVE",
"421 0 CURVE SMOOTH",
"492 0 LINE SMOOTH",
"492 0 OFFCURVE",
"492 0 OFFCURVE",
"492 0 CURVE SMOOTH",
"492 416 LINE SMOOTH",
"492 416 OFFCURVE",
"492 416 OFFCURVE",
"492 416 CURVE SMOOTH"
);
}
);
width = 562;
},
{
associatedMasterId = "DD439194-7281-4DC7-85BF-0C2680351E76";
layerId = "341FDBF5-EFB9-44DD-BB4B-AD379B1E1AF8";
name = "Nov 15 19, 15:34";
paths = (
{
closed = 1;
nodes = (
"151 429 LINE",
"151 665 LINE SMOOTH",
"151 688 OFFCURVE",
"139 700 OFFCURVE",
"116 700 CURVE SMOOTH",
"115 700 LINE SMOOTH",
"92 700 OFFCURVE",
"80 688 OFFCURVE",
"80 665 CURVE SMOOTH",
"80 35 LINE SMOOTH",
"80 12 OFFCURVE",
"92 0 OFFCURVE",
"115 0 CURVE SMOOTH",
"116 0 LINE SMOOTH",
"139 0 OFFCURVE",
"151 12 OFFCURVE",
"151 35 CURVE",
"151 358 LINE",
"402 358 LINE SMOOTH",
"415 358 OFFCURVE",
"421 353 OFFCURVE",
"421 340 CURVE SMOOTH",
"421 35 LINE SMOOTH",
"421 12 OFFCURVE",
"433 0 OFFCURVE",
"456 0 CURVE SMOOTH",
"457 0 LINE SMOOTH",
"480 0 OFFCURVE",
"492 12 OFFCURVE",
"492 35 CURVE SMOOTH",
"492 359 LINE SMOOTH",
"492 405 OFFCURVE",
"468 429 OFFCURVE",
"422 429 CURVE SMOOTH"
);
}
);
width = 562;
}
);
unicode = 0068;
},
{
glyphname = i;
lastChange = "2019-11-15 15:37:49 +0000";
layers = (
{
layerId = "E2857279-2EBA-495B-814E-9CD52C7A5F8C";
paths = (
{
closed = 1;
nodes = (
"161 500 LINE SMOOTH",
"161 500 OFFCURVE",
"161 500 OFFCURVE",
"161 500 CURVE SMOOTH",
"90 500 LINE SMOOTH",
"90 500 OFFCURVE",
"90 500 OFFCURVE",
"90 500 CURVE SMOOTH",
"90 0 LINE SMOOTH",
"90 0 OFFCURVE",
"90 0 OFFCURVE",
"90 0 CURVE SMOOTH",
"161 0 LINE SMOOTH",
"161 0 OFFCURVE",
"161 0 OFFCURVE",
"161 0 CURVE"
);
},
{
closed = 1;
nodes = (
"169 613 LINE SMOOTH",
"169 613 OFFCURVE",
"169 613 OFFCURVE",
"169 613 CURVE SMOOTH",
"169 700 LINE SMOOTH",
"169 700 OFFCURVE",
"169 700 OFFCURVE",
"169 700 CURVE SMOOTH",
"82 700 LINE SMOOTH",
"82 700 OFFCURVE",
"82 700 OFFCURVE",
"82 700 CURVE SMOOTH",
"82 613 LINE",
"82 613 OFFCURVE",
"82 613 OFFCURVE",
"82 613 CURVE"
);
}
);
width = 251;
},
{
layerId = "DD439194-7281-4DC7-85BF-0C2680351E76";
paths = (
{
closed = 1;
nodes = (
"161 465 LINE SMOOTH",
"161 488 OFFCURVE",
"149 500 OFFCURVE",
"126 500 CURVE SMOOTH",
"125 500 LINE SMOOTH",
"102 500 OFFCURVE",
"90 488 OFFCURVE",
"90 465 CURVE SMOOTH",
"90 35 LINE SMOOTH",
"90 12 OFFCURVE",
"102 0 OFFCURVE",
"125 0 CURVE SMOOTH",
"126 0 LINE SMOOTH",
"149 0 OFFCURVE",
"161 12 OFFCURVE",
"161 35 CURVE"
);
},
{
closed = 1;
nodes = (
"149 613 LINE SMOOTH",
"162 613 OFFCURVE",
"169 620 OFFCURVE",
"169 633 CURVE SMOOTH",
"169 680 LINE SMOOTH",
"169 693 OFFCURVE",
"162 700 OFFCURVE",
"149 700 CURVE SMOOTH",
"102 700 LINE SMOOTH",
"89 700 OFFCURVE",
"82 693 OFFCURVE",
"82 680 CURVE SMOOTH",
"82 633 LINE",
"82 620 OFFCURVE",
"89 613 OFFCURVE",
"102 613 CURVE"
);
}
);
width = 251;
},
{
associatedMasterId = "E2857279-2EBA-495B-814E-9CD52C7A5F8C";
layerId = "2794E8C4-5973-4268-B1BC-1D54FFAA8827";
name = "Nov 15 19, 16:29";
paths = (
{
closed = 1;
nodes = (
"161 500 LINE SMOOTH",
"161 500 OFFCURVE",
"161 500 OFFCURVE",
"161 500 CURVE SMOOTH",
"90 500 LINE SMOOTH",
"90 500 OFFCURVE",
"90 500 OFFCURVE",
"90 500 CURVE SMOOTH",
"90 0 LINE SMOOTH",
"90 0 OFFCURVE",
"90 0 OFFCURVE",
"90 0 CURVE SMOOTH",
"161 0 LINE SMOOTH",
"161 0 OFFCURVE",
"161 0 OFFCURVE",
"161 0 CURVE"
);
},
{
closed = 1;
nodes = (
"161 700 LINE SMOOTH",
"161 700 OFFCURVE",
"161 700 OFFCURVE",
"161 700 CURVE SMOOTH",
"90 700 LINE SMOOTH",
"90 700 OFFCURVE",
"90 700 OFFCURVE",
"90 700 CURVE SMOOTH",
"90 629 LINE SMOOTH",
"90 629 OFFCURVE",
"90 629 OFFCURVE",
"90 629 CURVE SMOOTH",
"161 629 LINE SMOOTH",
"161 629 OFFCURVE",
"161 629 OFFCURVE",
"161 629 CURVE"
);
}
);
width = 251;
},
{
associatedMasterId = "DD439194-7281-4DC7-85BF-0C2680351E76";
layerId = "F041A231-8717-496C-A0EC-59B6AF00C1D8";
name = "Nov 15 19, 16:30";
paths = (
{
closed = 1;
nodes = (
"161 465 LINE SMOOTH",
"161 488 OFFCURVE",
"149 500 OFFCURVE",
"126 500 CURVE SMOOTH",
"125 500 LINE SMOOTH",
"102 500 OFFCURVE",
"90 488 OFFCURVE",
"90 465 CURVE SMOOTH",
"90 35 LINE SMOOTH",
"90 12 OFFCURVE",
"102 0 OFFCURVE",
"125 0 CURVE SMOOTH",
"126 0 LINE SMOOTH",
"149 0 OFFCURVE",
"161 12 OFFCURVE",
"161 35 CURVE"
);
},
{
closed = 1;
nodes = (
"161 665 LINE SMOOTH",
"161 688 OFFCURVE",
"149 700 OFFCURVE",
"126 700 CURVE SMOOTH",
"125 700 LINE SMOOTH",
"102 700 OFFCURVE",
"90 688 OFFCURVE",
"90 665 CURVE SMOOTH",
"90 664 LINE SMOOTH",
"90 641 OFFCURVE",
"102 629 OFFCURVE",
"125 629 CURVE SMOOTH",
"126 629 LINE SMOOTH",
"149 629 OFFCURVE",
"161 641 OFFCURVE",
"161 664 CURVE"
);
}
);
width = 251;
},
{
associatedMasterId = "E2857279-2EBA-495B-814E-9CD52C7A5F8C";
layerId = "58D11734-5CE1-4EAB-B55A-A38C59BCA8B3";
name = "Nov 15 19, 16:37";
paths = (
{
closed = 1;
nodes = (
"161 500 LINE SMOOTH",
"161 500 OFFCURVE",
"161 500 OFFCURVE",
"161 500 CURVE SMOOTH",
"90 500 LINE SMOOTH",
"90 500 OFFCURVE",
"90 500 OFFCURVE",
"90 500 CURVE SMOOTH",
"90 0 LINE SMOOTH",
"90 0 OFFCURVE",
"90 0 OFFCURVE",
"90 0 CURVE SMOOTH",
"161 0 LINE SMOOTH",
"161 0 OFFCURVE",
"161 0 OFFCURVE",
"161 0 CURVE"
);
},
{
closed = 1;
nodes = (
"169 663 LINE SMOOTH",
"169 663 OFFCURVE",
"169 663 OFFCURVE",
"169 663 CURVE SMOOTH",
"169 750 LINE SMOOTH",
"169 750 OFFCURVE",
"169 750 OFFCURVE",
"169 750 CURVE SMOOTH",
"82 750 LINE SMOOTH",
"82 750 OFFCURVE",
"82 750 OFFCURVE",
"82 750 CURVE SMOOTH",
"82 663 LINE",
"82 663 OFFCURVE",
"82 663 OFFCURVE",
"82 663 CURVE"
);
}
);
width = 251;
},
{
associatedMasterId = "DD439194-7281-4DC7-85BF-0C2680351E76";
layerId = "78D6A474-1ADF-426E-B147-FC17D8120BAC";
name = "Nov 15 19, 16:37";
paths = (
{
closed = 1;
nodes = (
"161 465 LINE SMOOTH",
"161 488 OFFCURVE",
"149 500 OFFCURVE",
"126 500 CURVE SMOOTH",
"125 500 LINE SMOOTH",
"102 500 OFFCURVE",
"90 488 OFFCURVE",
"90 465 CURVE SMOOTH",
"90 35 LINE SMOOTH",
"90 12 OFFCURVE",
"102 0 OFFCURVE",
"125 0 CURVE SMOOTH",
"126 0 LINE SMOOTH",
"149 0 OFFCURVE",
"161 12 OFFCURVE",
"161 35 CURVE"
);
},
{
closed = 1;
nodes = (
"149 663 LINE SMOOTH",
"162 663 OFFCURVE",
"169 670 OFFCURVE",
"169 683 CURVE SMOOTH",
"169 730 LINE SMOOTH",
"169 743 OFFCURVE",
"162 750 OFFCURVE",
"149 750 CURVE SMOOTH",
"102 750 LINE SMOOTH",
"89 750 OFFCURVE",
"82 743 OFFCURVE",
"82 730 CURVE SMOOTH",
"82 683 LINE",
"82 670 OFFCURVE",
"89 663 OFFCURVE",
"102 663 CURVE"
);
}
);
width = 251;
}
);
unicode = 0069;
},
{
glyphname = j;
lastChange = "2019-11-15 17:45:33 +0000";
layers = (
{
layerId = "E2857279-2EBA-495B-814E-9CD52C7A5F8C";
paths = (
{
closed = 1;
nodes = (
"161 500 LINE SMOOTH",
"161 500 OFFCURVE",
"161 500 OFFCURVE",
"161 500 CURVE SMOOTH",
"90 500 LINE SMOOTH",
"90 500 OFFCURVE",
"90 500 OFFCURVE",
"90 500 CURVE SMOOTH",
"90 -250 LINE SMOOTH",
"90 -250 OFFCURVE",
"90 -250 OFFCURVE",
"90 -250 CURVE SMOOTH",
"161 -250 LINE SMOOTH",
"161 -250 OFFCURVE",
"161 -250 OFFCURVE",
"161 -250 CURVE"
);
},
{
closed = 1;
nodes = (
"169 613 LINE SMOOTH",
"169 613 OFFCURVE",
"169 613 OFFCURVE",
"169 613 CURVE SMOOTH",
"169 700 LINE SMOOTH",
"169 700 OFFCURVE",
"169 700 OFFCURVE",
"169 700 CURVE SMOOTH",
"82 700 LINE SMOOTH",
"82 700 OFFCURVE",
"82 700 OFFCURVE",
"82 700 CURVE SMOOTH",
"82 613 LINE",
"82 613 OFFCURVE",
"82 613 OFFCURVE",
"82 613 CURVE"
);
}
);
width = 251;
},
{
layerId = "DD439194-7281-4DC7-85BF-0C2680351E76";
paths = (
{
closed = 1;
nodes = (
"161 465 LINE SMOOTH",
"161 488 OFFCURVE",
"149 500 OFFCURVE",
"126 500 CURVE SMOOTH",
"125 500 LINE SMOOTH",
"102 500 OFFCURVE",
"90 488 OFFCURVE",
"90 465 CURVE SMOOTH",
"90 -215 LINE SMOOTH",
"90 -238 OFFCURVE",
"102 -250 OFFCURVE",
"125 -250 CURVE SMOOTH",
"126 -250 LINE SMOOTH",
"149 -250 OFFCURVE",
"161 -238 OFFCURVE",
"161 -215 CURVE"
);
},
{
closed = 1;
nodes = (
"149 613 LINE SMOOTH",
"162 613 OFFCURVE",
"169 620 OFFCURVE",
"169 633 CURVE SMOOTH",
"169 680 LINE SMOOTH",
"169 693 OFFCURVE",
"162 700 OFFCURVE",
"149 700 CURVE SMOOTH",
"102 700 LINE SMOOTH",
"89 700 OFFCURVE",
"82 693 OFFCURVE",
"82 680 CURVE SMOOTH",
"82 633 LINE",
"82 620 OFFCURVE",
"89 613 OFFCURVE",
"102 613 CURVE"
);
}
);
width = 251;
}
);
unicode = 006A;
},
{
glyphname = k;
lastChange = "2019-11-15 19:23:44 +0000";
layers = (
{
associatedMasterId = "E2857279-2EBA-495B-814E-9CD52C7A5F8C";
layerId = "C53F43DD-4D65-4DE2-90DA-B2AE1122F7D6";
name = "Nov 8 19, 15:47";
paths = (
{
closed = 1;
nodes = (
"377 305 LINE",
"377 425 LINE SMOOTH",
"377 448 OFFCURVE",
"365 460 OFFCURVE",
"342 460 CURVE SMOOTH",
"341 460 LINE SMOOTH",
"318 460 OFFCURVE",
"306 448 OFFCURVE",
"306 425 CURVE SMOOTH",
"306 305 LINE",
"165 305 LINE",
"165 665 LINE SMOOTH",
"165 688 OFFCURVE",
"153 700 OFFCURVE",
"130 700 CURVE SMOOTH",
"129 700 LINE SMOOTH",
"106 700 OFFCURVE",
"94 688 OFFCURVE",
"94 665 CURVE SMOOTH",
"94 35 LINE SMOOTH",
"94 12 OFFCURVE",
"106 0 OFFCURVE",
"129 0 CURVE SMOOTH",
"130 0 LINE SMOOTH",
"153 0 OFFCURVE",
"165 12 OFFCURVE",
"165 35 CURVE",
"165 234 LINE",
"435 234 LINE",
"435 35 LINE SMOOTH",
"435 12 OFFCURVE",
"447 0 OFFCURVE",
"470 0 CURVE SMOOTH",
"471 0 LINE SMOOTH",
"494 0 OFFCURVE",
"506 12 OFFCURVE",
"506 35 CURVE SMOOTH",
"506 270 LINE SMOOTH",
"506 293 OFFCURVE",
"494 305 OFFCURVE",
"471 305 CURVE SMOOTH"
);
}
);
width = 600;
},
{
associatedMasterId = "E2857279-2EBA-495B-814E-9CD52C7A5F8C";
layerId = "A8010C08-F91F-4727-A573-3E80A4D1ABF5";
name = "Nov 11 19, 20:42";
paths = (
{
closed = 1;
nodes = (
"377 313 LINE",
"377 433 LINE SMOOTH",
"377 456 OFFCURVE",
"365 468 OFFCURVE",
"342 468 CURVE SMOOTH",
"341 468 LINE SMOOTH",
"318 468 OFFCURVE",
"306 456 OFFCURVE",
"306 433 CURVE SMOOTH",
"306 313 LINE",
"165 313 LINE",
"165 680 LINE SMOOTH",
"165 693 OFFCURVE",
"158 700 OFFCURVE",
"145 700 CURVE SMOOTH",
"114 700 LINE SMOOTH",
"101 700 OFFCURVE",
"94 693 OFFCURVE",
"94 680 CURVE SMOOTH",
"94 35 LINE SMOOTH",
"94 12 OFFCURVE",
"106 0 OFFCURVE",
"129 0 CURVE SMOOTH",
"145 0 LINE SMOOTH",
"158 0 OFFCURVE",
"165 7 OFFCURVE",
"165 20 CURVE SMOOTH",
"165 229 LINE SMOOTH",
"165 238 OFFCURVE",
"169 242 OFFCURVE",
"178 242 CURVE SMOOTH",
"422 242 LINE SMOOTH",
"431 242 OFFCURVE",
"435 238 OFFCURVE",
"435 229 CURVE SMOOTH",
"435 35 LINE SMOOTH",
"435 12 OFFCURVE",
"447 0 OFFCURVE",
"470 0 CURVE SMOOTH",
"486 0 LINE SMOOTH",
"499 0 OFFCURVE",
"506 7 OFFCURVE",
"506 20 CURVE SMOOTH",
"506 278 LINE SMOOTH",
"506 301 OFFCURVE",
"494 313 OFFCURVE",
"471 313 CURVE SMOOTH"
);
}
);
width = 600;
},
{
layerId = "E2857279-2EBA-495B-814E-9CD52C7A5F8C";
paths = (
{
closed = 1;
nodes = (
"387 296 LINE",
"387 500 LINE SMOOTH",
"387 500 OFFCURVE",
"387 500 OFFCURVE",
"387 500 CURVE SMOOTH",
"316 500 LINE SMOOTH",
"316 500 OFFCURVE",
"316 500 OFFCURVE",
"316 500 CURVE SMOOTH",
"316 296 LINE",
"151 296 LINE",
"151 750 LINE SMOOTH",
"151 750 OFFCURVE",
"151 750 OFFCURVE",
"151 750 CURVE SMOOTH",
"80 750 LINE SMOOTH",
"80 750 OFFCURVE",
"80 750 OFFCURVE",
"80 750 CURVE SMOOTH",
"80 0 LINE SMOOTH",
"80 0 OFFCURVE",
"80 0 OFFCURVE",
"80 0 CURVE SMOOTH",
"151 0 LINE SMOOTH",
"151 0 OFFCURVE",
"151 0 OFFCURVE",
"151 0 CURVE",
"151 225 LINE",
"421 225 LINE SMOOTH",
"421 225 OFFCURVE",
"421 225 OFFCURVE",
"421 225 CURVE SMOOTH",
"421 0 LINE SMOOTH",
"421 0 OFFCURVE",
"421 0 OFFCURVE",
"421 0 CURVE SMOOTH",
"492 0 LINE SMOOTH",
"492 0 OFFCURVE",
"492 0 OFFCURVE",
"492 0 CURVE SMOOTH",
"492 296 LINE SMOOTH",
"492 296 OFFCURVE",
"492 296 OFFCURVE",
"492 296 CURVE SMOOTH"
);
}
);
width = 542;
},
{
associatedMasterId = "E2857279-2EBA-495B-814E-9CD52C7A5F8C";
layerId = "F771A18F-A821-47C6-A485-BD3ABE4B14AC";
name = "Nov 12 19, 13:20";
paths = (
{
closed = 1;
nodes = (
"363 283 LINE",
"363 403 LINE SMOOTH",
"363 426 OFFCURVE",
"351 438 OFFCURVE",
"328 438 CURVE SMOOTH",
"327 438 LINE SMOOTH",
"304 438 OFFCURVE",
"292 426 OFFCURVE",
"292 403 CURVE SMOOTH",
"292 283 LINE",
"151 283 LINE",
"151 665 LINE SMOOTH",
"151 688 OFFCURVE",
"139 700 OFFCURVE",
"116 700 CURVE SMOOTH",
"115 700 LINE SMOOTH",
"92 700 OFFCURVE",
"80 688 OFFCURVE",
"80 665 CURVE SMOOTH",
"80 35 LINE SMOOTH",
"80 12 OFFCURVE",
"92 0 OFFCURVE",
"115 0 CURVE SMOOTH",
"116 0 LINE SMOOTH",
"139 0 OFFCURVE",
"151 12 OFFCURVE",
"151 35 CURVE",
"151 212 LINE",
"421 212 LINE",
"421 35 LINE SMOOTH",
"421 12 OFFCURVE",
"433 0 OFFCURVE",
"456 0 CURVE SMOOTH",
"457 0 LINE SMOOTH",
"480 0 OFFCURVE",
"492 12 OFFCURVE",
"492 35 CURVE SMOOTH",
"492 213 LINE SMOOTH",
"492 259 OFFCURVE",
"468 283 OFFCURVE",
"422 283 CURVE SMOOTH"
);
}
);
width = 542;
},
{
associatedMasterId = "DD439194-7281-4DC7-85BF-0C2680351E76";
layerId = "0503F9A3-7CFF-41AD-8626-A3EBE0C7E8B2";
name = "Nov 8 19, 15:47";
paths = (
{
closed = 1;
nodes = (
"377 305 LINE",
"377 425 LINE SMOOTH",
"377 448 OFFCURVE",
"365 460 OFFCURVE",
"342 460 CURVE SMOOTH",
"341 460 LINE SMOOTH",
"318 460 OFFCURVE",
"306 448 OFFCURVE",
"306 425 CURVE SMOOTH",
"306 305 LINE",
"165 305 LINE",
"165 665 LINE SMOOTH",
"165 688 OFFCURVE",
"153 700 OFFCURVE",
"130 700 CURVE SMOOTH",
"129 700 LINE SMOOTH",
"106 700 OFFCURVE",
"94 688 OFFCURVE",
"94 665 CURVE SMOOTH",
"94 35 LINE SMOOTH",
"94 12 OFFCURVE",
"106 0 OFFCURVE",
"129 0 CURVE SMOOTH",
"130 0 LINE SMOOTH",
"153 0 OFFCURVE",
"165 12 OFFCURVE",
"165 35 CURVE",
"165 234 LINE",
"435 234 LINE",
"435 35 LINE SMOOTH",
"435 12 OFFCURVE",
"447 0 OFFCURVE",
"470 0 CURVE SMOOTH",
"471 0 LINE SMOOTH",
"494 0 OFFCURVE",
"506 12 OFFCURVE",
"506 35 CURVE SMOOTH",
"506 270 LINE SMOOTH",
"506 293 OFFCURVE",
"494 305 OFFCURVE",
"471 305 CURVE SMOOTH"
);
}
);
width = 600;
},
{
associatedMasterId = "DD439194-7281-4DC7-85BF-0C2680351E76";
layerId = "D59DCCBE-1457-470E-8BE3-6440B4062AE4";
name = "Nov 11 19, 20:42";
paths = (
{
closed = 1;
nodes = (
"377 313 LINE",
"377 433 LINE SMOOTH",
"377 456 OFFCURVE",
"365 468 OFFCURVE",
"342 468 CURVE SMOOTH",
"341 468 LINE SMOOTH",
"318 468 OFFCURVE",
"306 456 OFFCURVE",
"306 433 CURVE SMOOTH",
"306 313 LINE",
"165 313 LINE",
"165 680 LINE SMOOTH",
"165 693 OFFCURVE",
"158 700 OFFCURVE",
"145 700 CURVE SMOOTH",
"114 700 LINE SMOOTH",
"101 700 OFFCURVE",
"94 693 OFFCURVE",
"94 680 CURVE SMOOTH",
"94 35 LINE SMOOTH",
"94 12 OFFCURVE",
"106 0 OFFCURVE",
"129 0 CURVE SMOOTH",
"145 0 LINE SMOOTH",
"158 0 OFFCURVE",
"165 7 OFFCURVE",
"165 20 CURVE SMOOTH",
"165 229 LINE SMOOTH",
"165 238 OFFCURVE",
"169 242 OFFCURVE",
"178 242 CURVE SMOOTH",
"422 242 LINE SMOOTH",
"431 242 OFFCURVE",
"435 238 OFFCURVE",
"435 229 CURVE SMOOTH",
"435 35 LINE SMOOTH",
"435 12 OFFCURVE",
"447 0 OFFCURVE",
"470 0 CURVE SMOOTH",
"486 0 LINE SMOOTH",
"499 0 OFFCURVE",
"506 7 OFFCURVE",
"506 20 CURVE SMOOTH",
"506 278 LINE SMOOTH",
"506 301 OFFCURVE",
"494 313 OFFCURVE",
"471 313 CURVE SMOOTH"
);
}
);
width = 600;
},
{
layerId = "DD439194-7281-4DC7-85BF-0C2680351E76";
paths = (
{
closed = 1;
nodes = (
"387 296 LINE",
"387 465 LINE SMOOTH",
"387 488 OFFCURVE",
"375 500 OFFCURVE",
"352 500 CURVE SMOOTH",
"351 500 LINE SMOOTH",
"328 500 OFFCURVE",
"316 488 OFFCURVE",
"316 465 CURVE SMOOTH",
"316 296 LINE",
"151 296 LINE",
"151 715 LINE SMOOTH",
"151 738 OFFCURVE",
"139 750 OFFCURVE",
"116 750 CURVE SMOOTH",
"115 750 LINE SMOOTH",
"92 750 OFFCURVE",
"80 738 OFFCURVE",
"80 715 CURVE SMOOTH",
"80 35 LINE SMOOTH",
"80 12 OFFCURVE",
"92 0 OFFCURVE",
"115 0 CURVE SMOOTH",
"116 0 LINE SMOOTH",
"139 0 OFFCURVE",
"151 12 OFFCURVE",
"151 35 CURVE",
"151 225 LINE",
"403 225 LINE SMOOTH",
"415 225 OFFCURVE",
"421 219 OFFCURVE",
"421 207 CURVE SMOOTH",
"421 35 LINE SMOOTH",
"421 12 OFFCURVE",
"433 0 OFFCURVE",
"456 0 CURVE SMOOTH",
"457 0 LINE SMOOTH",
"480 0 OFFCURVE",
"492 12 OFFCURVE",
"492 35 CURVE SMOOTH",
"492 226 LINE SMOOTH",
"492 272 OFFCURVE",
"468 296 OFFCURVE",
"422 296 CURVE SMOOTH"
);
}
);
width = 542;
},
{
associatedMasterId = "DD439194-7281-4DC7-85BF-0C2680351E76";
layerId = "3AF246F4-87E3-4FD9-B527-4F1435D803E4";
name = "Nov 12 19, 13:20";
paths = (
{
closed = 1;
nodes = (
"363 283 LINE",
"363 403 LINE SMOOTH",
"363 426 OFFCURVE",
"351 438 OFFCURVE",
"328 438 CURVE SMOOTH",
"327 438 LINE SMOOTH",
"304 438 OFFCURVE",
"292 426 OFFCURVE",
"292 403 CURVE SMOOTH",
"292 283 LINE",
"151 283 LINE",
"151 665 LINE SMOOTH",
"151 688 OFFCURVE",
"139 700 OFFCURVE",
"116 700 CURVE SMOOTH",
"115 700 LINE SMOOTH",
"92 700 OFFCURVE",
"80 688 OFFCURVE",
"80 665 CURVE SMOOTH",
"80 35 LINE SMOOTH",
"80 12 OFFCURVE",
"92 0 OFFCURVE",
"115 0 CURVE SMOOTH",
"116 0 LINE SMOOTH",
"139 0 OFFCURVE",
"151 12 OFFCURVE",
"151 35 CURVE",
"151 212 LINE",
"421 212 LINE",
"421 35 LINE SMOOTH",
"421 12 OFFCURVE",
"433 0 OFFCURVE",
"456 0 CURVE SMOOTH",
"457 0 LINE SMOOTH",
"480 0 OFFCURVE",
"492 12 OFFCURVE",
"492 35 CURVE SMOOTH",
"492 213 LINE SMOOTH",
"492 259 OFFCURVE",
"468 283 OFFCURVE",
"422 283 CURVE SMOOTH"
);
}
);
width = 542;
},
{
associatedMasterId = "E2857279-2EBA-495B-814E-9CD52C7A5F8C";
layerId = "0DE10583-4201-48F9-9A47-65C33B982013";
name = "Nov 12 19, 22:10";
paths = (
{
closed = 1;
nodes = (
"387 296 LINE",
"387 465 LINE SMOOTH",
"387 488 OFFCURVE",
"375 500 OFFCURVE",
"352 500 CURVE SMOOTH",
"351 500 LINE SMOOTH",
"328 500 OFFCURVE",
"316 488 OFFCURVE",
"316 465 CURVE SMOOTH",
"316 296 LINE",
"151 296 LINE",
"151 665 LINE SMOOTH",
"151 688 OFFCURVE",
"139 700 OFFCURVE",
"116 700 CURVE SMOOTH",
"115 700 LINE SMOOTH",
"92 700 OFFCURVE",
"80 688 OFFCURVE",
"80 665 CURVE SMOOTH",
"80 35 LINE SMOOTH",
"80 12 OFFCURVE",
"92 0 OFFCURVE",
"115 0 CURVE SMOOTH",
"116 0 LINE SMOOTH",
"139 0 OFFCURVE",
"151 12 OFFCURVE",
"151 35 CURVE",
"151 225 LINE",
"402 225 LINE SMOOTH",
"415 225 OFFCURVE",
"421 220 OFFCURVE",
"421 207 CURVE SMOOTH",
"421 35 LINE SMOOTH",
"421 12 OFFCURVE",
"433 0 OFFCURVE",
"456 0 CURVE SMOOTH",
"457 0 LINE SMOOTH",
"480 0 OFFCURVE",
"492 12 OFFCURVE",
"492 35 CURVE SMOOTH",
"492 226 LINE SMOOTH",
"492 272 OFFCURVE",
"468 296 OFFCURVE",
"422 296 CURVE SMOOTH"
);
}
);
width = 542;
}
);
unicode = 006B;
},
{
glyphname = l;
lastChange = "2019-11-15 15:13:09 +0000";
layers = (
{
layerId = "E2857279-2EBA-495B-814E-9CD52C7A5F8C";
paths = (
{
closed = 1;
nodes = (
"151 700 LINE SMOOTH",
"151 700 OFFCURVE",
"151 700 OFFCURVE",
"151 700 CURVE SMOOTH",
"80 700 LINE SMOOTH",
"80 700 OFFCURVE",
"80 700 OFFCURVE",
"80 700 CURVE SMOOTH",
"80 0 LINE SMOOTH",
"80 0 OFFCURVE",
"80 0 OFFCURVE",
"80 0 CURVE SMOOTH",
"151 0 LINE SMOOTH",
"151 0 OFFCURVE",
"151 0 OFFCURVE",
"151 0 CURVE"
);
}
);
width = 231;
},
{
layerId = "DD439194-7281-4DC7-85BF-0C2680351E76";
paths = (
{
closed = 1;
nodes = (
"151 715 LINE SMOOTH",
"151 738 OFFCURVE",
"139 750 OFFCURVE",
"116 750 CURVE SMOOTH",
"115 750 LINE SMOOTH",
"92 750 OFFCURVE",
"80 738 OFFCURVE",
"80 715 CURVE SMOOTH",
"80 35 LINE SMOOTH",
"80 12 OFFCURVE",
"92 0 OFFCURVE",
"115 0 CURVE SMOOTH",
"116 0 LINE SMOOTH",
"139 0 OFFCURVE",
"151 12 OFFCURVE",
"151 35 CURVE"
);
}
);
width = 231;
}
);
unicode = 006C;
},
{
glyphname = m;
lastChange = "2019-11-15 19:24:13 +0000";
layers = (
{
layerId = "E2857279-2EBA-495B-814E-9CD52C7A5F8C";
paths = (
{
closed = 1;
nodes = (
"132 500 LINE SMOOTH",
"132 500 OFFCURVE",
"132 500 OFFCURVE",
"132 500 CURVE SMOOTH",
"132 552 LINE SMOOTH",
"132 552 OFFCURVE",
"132 552 OFFCURVE",
"132 552 CURVE SMOOTH",
"45 552 LINE SMOOTH",
"45 552 OFFCURVE",
"45 552 OFFCURVE",
"45 552 CURVE SMOOTH",
"45 465 LINE SMOOTH",
"45 465 OFFCURVE",
"45 465 OFFCURVE",
"45 465 CURVE SMOOTH",
"97 465 LINE SMOOTH",
"97 465 OFFCURVE",
"97 465 OFFCURVE",
"97 465 CURVE SMOOTH",
"97 0 LINE SMOOTH",
"97 0 OFFCURVE",
"97 0 OFFCURVE",
"97 0 CURVE SMOOTH",
"168 0 LINE SMOOTH",
"168 0 OFFCURVE",
"168 0 OFFCURVE",
"168 0 CURVE SMOOTH",
"168 429 LINE",
"372 429 LINE",
"372 -5 LINE SMOOTH",
"372 -5 OFFCURVE",
"372 0 OFFCURVE",
"372 0 CURVE SMOOTH",
"443 0 LINE SMOOTH",
"443 0 OFFCURVE",
"443 0 OFFCURVE",
"443 0 CURVE SMOOTH",
"443 429 LINE",
"647 429 LINE SMOOTH",
"647 429 OFFCURVE",
"647 429 OFFCURVE",
"647 429 CURVE SMOOTH",
"647 0 LINE SMOOTH",
"647 0 OFFCURVE",
"647 0 OFFCURVE",
"647 0 CURVE SMOOTH",
"718 0 LINE SMOOTH",
"718 0 OFFCURVE",
"718 0 OFFCURVE",
"718 0 CURVE SMOOTH",
"718 500 LINE SMOOTH",
"718 500 OFFCURVE",
"718 500 OFFCURVE",
"718 500 CURVE SMOOTH"
);
}
);
width = 788;
},
{
layerId = "DD439194-7281-4DC7-85BF-0C2680351E76";
paths = (
{
closed = 1;
nodes = (
"147 500 LINE SMOOTH",
"134 500 OFFCURVE",
"127 507 OFFCURVE",
"127 520 CURVE SMOOTH",
"127 532 LINE SMOOTH",
"127 545 OFFCURVE",
"120 552 OFFCURVE",
"107 552 CURVE SMOOTH",
"60 552 LINE SMOOTH",
"47 552 OFFCURVE",
"40 545 OFFCURVE",
"40 532 CURVE SMOOTH",
"40 485 LINE SMOOTH",
"40 472 OFFCURVE",
"47 465 OFFCURVE",
"60 465 CURVE SMOOTH",
"73 465 LINE SMOOTH",
"84 465 OFFCURVE",
"92 458 OFFCURVE",
"92 445 CURVE SMOOTH",
"92 35 LINE SMOOTH",
"92 12 OFFCURVE",
"104 0 OFFCURVE",
"127 0 CURVE SMOOTH",
"128 0 LINE SMOOTH",
"151 0 OFFCURVE",
"163 12 OFFCURVE",
"163 35 CURVE SMOOTH",
"163 429 LINE",
"367 429 LINE",
"367 35 LINE SMOOTH",
"367 12 OFFCURVE",
"379 0 OFFCURVE",
"402 0 CURVE SMOOTH",
"403 0 LINE SMOOTH",
"426 0 OFFCURVE",
"438 12 OFFCURVE",
"438 35 CURVE SMOOTH",
"438 429 LINE",
"624 429 LINE SMOOTH",
"636 429 OFFCURVE",
"642 423 OFFCURVE",
"642 411 CURVE SMOOTH",
"642 35 LINE SMOOTH",
"642 12 OFFCURVE",
"654 0 OFFCURVE",
"677 0 CURVE SMOOTH",
"678 0 LINE SMOOTH",
"701 0 OFFCURVE",
"713 12 OFFCURVE",
"713 35 CURVE SMOOTH",
"713 430 LINE SMOOTH",
"713 476 OFFCURVE",
"689 500 OFFCURVE",
"643 500 CURVE SMOOTH"
);
}
);
width = 788;
}
);
unicode = 006D;
},
{
glyphname = n;
lastChange = "2019-11-15 18:17:38 +0000";
layers = (
{
layerId = "E2857279-2EBA-495B-814E-9CD52C7A5F8C";
paths = (
{
closed = 1;
nodes = (
"132 500 OFFCURVE",
"132 500 OFFCURVE",
"132 500 CURVE SMOOTH",
"132 552 LINE SMOOTH",
"132 552 OFFCURVE",
"132 552 OFFCURVE",
"132 552 CURVE SMOOTH",
"45 552 LINE SMOOTH",
"45 552 OFFCURVE",
"45 552 OFFCURVE",
"45 552 CURVE SMOOTH",
"45 465 LINE SMOOTH",
"45 465 OFFCURVE",
"45 465 OFFCURVE",
"45 465 CURVE SMOOTH",
"97 465 LINE SMOOTH",
"97 465 OFFCURVE",
"97 465 OFFCURVE",
"97 465 CURVE SMOOTH",
"97 0 LINE SMOOTH",
"97 0 OFFCURVE",
"97 0 OFFCURVE",
"97 0 CURVE SMOOTH",
"168 0 LINE SMOOTH",
"168 0 OFFCURVE",
"168 0 OFFCURVE",
"168 0 CURVE SMOOTH",
"168 429 LINE SMOOTH",
"168 429 OFFCURVE",
"168 429 OFFCURVE",
"168 429 CURVE SMOOTH",
"420 429 LINE SMOOTH",
"420 429 OFFCURVE",
"420 429 OFFCURVE",
"420 429 CURVE SMOOTH",
"420 0 LINE SMOOTH",
"420 0 OFFCURVE",
"420 0 OFFCURVE",
"420 0 CURVE SMOOTH",
"491 0 LINE SMOOTH",
"491 0 OFFCURVE",
"491 0 OFFCURVE",
"491 0 CURVE SMOOTH",
"491 500 LINE SMOOTH",
"491 500 OFFCURVE",
"491 500 OFFCURVE",
"491 500 CURVE SMOOTH",
"132 500 LINE SMOOTH"
);
}
);
width = 561;
},
{
associatedMasterId = "E2857279-2EBA-495B-814E-9CD52C7A5F8C";
layerId = "FF510406-C3F3-44BB-92A9-DE61DB0CCDCB";
name = "Nov 8 19, 16:30";
paths = (
{
closed = 1;
nodes = (
"134 500 OFFCURVE",
"127 507 OFFCURVE",
"127 520 CURVE SMOOTH",
"127 522 LINE SMOOTH",
"127 535 OFFCURVE",
"120 542 OFFCURVE",
"107 542 CURVE SMOOTH",
"70 542 LINE SMOOTH",
"57 542 OFFCURVE",
"50 535 OFFCURVE",
"50 522 CURVE SMOOTH",
"50 485 LINE SMOOTH",
"50 472 OFFCURVE",
"57 465 OFFCURVE",
"70 465 CURVE SMOOTH",
"73 465 LINE SMOOTH",
"84 465 OFFCURVE",
"92 458 OFFCURVE",
"92 445 CURVE SMOOTH",
"92 20 LINE SMOOTH",
"92 7 OFFCURVE",
"99 0 OFFCURVE",
"112 0 CURVE SMOOTH",
"143 0 LINE SMOOTH",
"156 0 OFFCURVE",
"163 7 OFFCURVE",
"163 20 CURVE SMOOTH",
"163 416 LINE SMOOTH",
"163 425 OFFCURVE",
"167 429 OFFCURVE",
"176 429 CURVE SMOOTH",
"422 429 LINE SMOOTH",
"431 429 OFFCURVE",
"435 425 OFFCURVE",
"435 416 CURVE SMOOTH",
"435 20 LINE SMOOTH",
"435 7 OFFCURVE",
"442 0 OFFCURVE",
"455 0 CURVE SMOOTH",
"486 0 LINE SMOOTH",
"499 0 OFFCURVE",
"506 7 OFFCURVE",
"506 20 CURVE SMOOTH",
"506 480 LINE SMOOTH",
"506 493 OFFCURVE",
"499 500 OFFCURVE",
"486 500 CURVE SMOOTH",
"147 500 LINE SMOOTH"
);
}
);
width = 580;
},
{
associatedMasterId = "E2857279-2EBA-495B-814E-9CD52C7A5F8C";
layerId = "5AC02C51-6003-4FCA-9C2D-A5E82764C565";
name = "Nov 11 19, 20:52";
paths = (
{
closed = 1;
nodes = (
"134 500 OFFCURVE",
"127 507 OFFCURVE",
"127 520 CURVE SMOOTH",
"127 532 LINE SMOOTH",
"127 545 OFFCURVE",
"120 552 OFFCURVE",
"107 552 CURVE SMOOTH",
"60 552 LINE SMOOTH",
"47 552 OFFCURVE",
"40 545 OFFCURVE",
"40 532 CURVE SMOOTH",
"40 485 LINE SMOOTH",
"40 472 OFFCURVE",
"47 465 OFFCURVE",
"60 465 CURVE SMOOTH",
"73 465 LINE SMOOTH",
"84 465 OFFCURVE",
"92 458 OFFCURVE",
"92 445 CURVE SMOOTH",
"92 35 LINE SMOOTH",
"92 12 OFFCURVE",
"104 0 OFFCURVE",
"127 0 CURVE SMOOTH",
"128 0 LINE SMOOTH",
"151 0 OFFCURVE",
"163 12 OFFCURVE",
"163 35 CURVE SMOOTH",
"163 429 LINE SMOOTH",
"163 429 OFFCURVE",
"163 429 OFFCURVE",
"163 429 CURVE SMOOTH",
"425 429 LINE SMOOTH",
"425 429 OFFCURVE",
"425 429 OFFCURVE",
"425 429 CURVE SMOOTH",
"425 35 LINE SMOOTH",
"425 12 OFFCURVE",
"437 0 OFFCURVE",
"460 0 CURVE SMOOTH",
"461 0 LINE SMOOTH",
"484 0 OFFCURVE",
"496 12 OFFCURVE",
"496 35 CURVE SMOOTH",
"496 430 LINE SMOOTH",
"496 476 OFFCURVE",
"472 500 OFFCURVE",
"426 500 CURVE SMOOTH",
"147 500 LINE SMOOTH"
);
}
);
width = 580;
},
{
associatedMasterId = "E2857279-2EBA-495B-814E-9CD52C7A5F8C";
layerId = "9B8045C4-70AE-432D-AA3A-2FBD325A0FBB";
name = "Nov 12 19, 13:21";
paths = (
{
closed = 1;
nodes = (
"134 500 OFFCURVE",
"127 507 OFFCURVE",
"127 520 CURVE SMOOTH",
"127 532 LINE SMOOTH",
"127 545 OFFCURVE",
"120 552 OFFCURVE",
"107 552 CURVE SMOOTH",
"60 552 LINE SMOOTH",
"47 552 OFFCURVE",
"40 545 OFFCURVE",
"40 532 CURVE SMOOTH",
"40 485 LINE SMOOTH",
"40 472 OFFCURVE",
"47 465 OFFCURVE",
"60 465 CURVE SMOOTH",
"73 465 LINE SMOOTH",
"84 465 OFFCURVE",
"92 458 OFFCURVE",
"92 445 CURVE SMOOTH",
"92 35 LINE SMOOTH",
"92 12 OFFCURVE",
"104 0 OFFCURVE",
"127 0 CURVE SMOOTH",
"128 0 LINE SMOOTH",
"151 0 OFFCURVE",
"163 12 OFFCURVE",
"163 35 CURVE SMOOTH",
"163 429 LINE SMOOTH",
"163 429 OFFCURVE",
"163 429 OFFCURVE",
"163 429 CURVE SMOOTH",
"425 429 LINE SMOOTH",
"425 429 OFFCURVE",
"425 429 OFFCURVE",
"425 429 CURVE SMOOTH",
"425 35 LINE SMOOTH",
"425 12 OFFCURVE",
"437 0 OFFCURVE",
"460 0 CURVE SMOOTH",
"461 0 LINE SMOOTH",
"484 0 OFFCURVE",
"496 12 OFFCURVE",
"496 35 CURVE SMOOTH",
"496 430 LINE SMOOTH",
"496 476 OFFCURVE",
"472 500 OFFCURVE",
"426 500 CURVE SMOOTH",
"147 500 LINE SMOOTH"
);
}
);
width = 561;
},
{
layerId = "DD439194-7281-4DC7-85BF-0C2680351E76";
paths = (
{
closed = 1;
nodes = (
"134 500 OFFCURVE",
"127 507 OFFCURVE",
"127 520 CURVE SMOOTH",
"127 532 LINE SMOOTH",
"127 545 OFFCURVE",
"120 552 OFFCURVE",
"107 552 CURVE SMOOTH",
"60 552 LINE SMOOTH",
"47 552 OFFCURVE",
"40 545 OFFCURVE",
"40 532 CURVE SMOOTH",
"40 485 LINE SMOOTH",
"40 472 OFFCURVE",
"47 465 OFFCURVE",
"60 465 CURVE SMOOTH",
"73 465 LINE SMOOTH",
"84 465 OFFCURVE",
"92 458 OFFCURVE",
"92 445 CURVE SMOOTH",
"92 35 LINE SMOOTH",
"92 12 OFFCURVE",
"104 0 OFFCURVE",
"127 0 CURVE SMOOTH",
"128 0 LINE SMOOTH",
"151 0 OFFCURVE",
"163 12 OFFCURVE",
"163 35 CURVE SMOOTH",
"163 429 LINE SMOOTH",
"163 429 OFFCURVE",
"163 429 OFFCURVE",
"163 429 CURVE SMOOTH",
"397 429 LINE SMOOTH",
"409 429 OFFCURVE",
"415 423 OFFCURVE",
"415 411 CURVE SMOOTH",
"415 35 LINE SMOOTH",
"415 12 OFFCURVE",
"427 0 OFFCURVE",
"450 0 CURVE SMOOTH",
"451 0 LINE SMOOTH",
"474 0 OFFCURVE",
"486 12 OFFCURVE",
"486 35 CURVE SMOOTH",
"486 430 LINE SMOOTH",
"486 476 OFFCURVE",
"462 500 OFFCURVE",
"416 500 CURVE SMOOTH",
"147 500 LINE SMOOTH"
);
}
);
width = 561;
},
{
associatedMasterId = "DD439194-7281-4DC7-85BF-0C2680351E76";
layerId = "0BE68BC3-850D-4C4C-B221-E350F6622AB2";
name = "Nov 8 19, 16:30";
paths = (
{
closed = 1;
nodes = (
"134 500 OFFCURVE",
"127 507 OFFCURVE",
"127 520 CURVE SMOOTH",
"127 522 LINE SMOOTH",
"127 535 OFFCURVE",
"120 542 OFFCURVE",
"107 542 CURVE SMOOTH",
"70 542 LINE SMOOTH",
"57 542 OFFCURVE",
"50 535 OFFCURVE",
"50 522 CURVE SMOOTH",
"50 485 LINE SMOOTH",
"50 472 OFFCURVE",
"57 465 OFFCURVE",
"70 465 CURVE SMOOTH",
"73 465 LINE SMOOTH",
"84 465 OFFCURVE",
"92 458 OFFCURVE",
"92 445 CURVE SMOOTH",
"92 20 LINE SMOOTH",
"92 7 OFFCURVE",
"99 0 OFFCURVE",
"112 0 CURVE SMOOTH",
"143 0 LINE SMOOTH",
"156 0 OFFCURVE",
"163 7 OFFCURVE",
"163 20 CURVE SMOOTH",
"163 416 LINE SMOOTH",
"163 425 OFFCURVE",
"167 429 OFFCURVE",
"176 429 CURVE SMOOTH",
"422 429 LINE SMOOTH",
"431 429 OFFCURVE",
"435 425 OFFCURVE",
"435 416 CURVE SMOOTH",
"435 20 LINE SMOOTH",
"435 7 OFFCURVE",
"442 0 OFFCURVE",
"455 0 CURVE SMOOTH",
"486 0 LINE SMOOTH",
"499 0 OFFCURVE",
"506 7 OFFCURVE",
"506 20 CURVE SMOOTH",
"506 480 LINE SMOOTH",
"506 493 OFFCURVE",
"499 500 OFFCURVE",
"486 500 CURVE SMOOTH",
"147 500 LINE SMOOTH"
);
}
);
width = 580;
},
{
associatedMasterId = "DD439194-7281-4DC7-85BF-0C2680351E76";
layerId = "49388D74-58FC-4EF9-AA8F-6B648261DD6A";
name = "Nov 11 19, 20:52";
paths = (
{
closed = 1;
nodes = (
"134 500 OFFCURVE",
"127 507 OFFCURVE",
"127 520 CURVE SMOOTH",
"127 532 LINE SMOOTH",
"127 545 OFFCURVE",
"120 552 OFFCURVE",
"107 552 CURVE SMOOTH",
"60 552 LINE SMOOTH",
"47 552 OFFCURVE",
"40 545 OFFCURVE",
"40 532 CURVE SMOOTH",
"40 485 LINE SMOOTH",
"40 472 OFFCURVE",
"47 465 OFFCURVE",
"60 465 CURVE SMOOTH",
"73 465 LINE SMOOTH",
"84 465 OFFCURVE",
"92 458 OFFCURVE",
"92 445 CURVE SMOOTH",
"92 35 LINE SMOOTH",
"92 12 OFFCURVE",
"104 0 OFFCURVE",
"127 0 CURVE SMOOTH",
"128 0 LINE SMOOTH",
"151 0 OFFCURVE",
"163 12 OFFCURVE",
"163 35 CURVE SMOOTH",
"163 429 LINE SMOOTH",
"163 429 OFFCURVE",
"163 429 OFFCURVE",
"163 429 CURVE SMOOTH",
"425 429 LINE SMOOTH",
"425 429 OFFCURVE",
"425 429 OFFCURVE",
"425 429 CURVE SMOOTH",
"425 35 LINE SMOOTH",
"425 12 OFFCURVE",
"437 0 OFFCURVE",
"460 0 CURVE SMOOTH",
"461 0 LINE SMOOTH",
"484 0 OFFCURVE",
"496 12 OFFCURVE",
"496 35 CURVE SMOOTH",
"496 430 LINE SMOOTH",
"496 476 OFFCURVE",
"472 500 OFFCURVE",
"426 500 CURVE SMOOTH",
"147 500 LINE SMOOTH"
);
}
);
width = 580;
},
{
associatedMasterId = "DD439194-7281-4DC7-85BF-0C2680351E76";
layerId = "36890011-BD9B-4B76-959F-3C2F7B3CF3DB";
name = "Nov 12 19, 13:21";
paths = (
{
closed = 1;
nodes = (
"134 500 OFFCURVE",
"127 507 OFFCURVE",
"127 520 CURVE SMOOTH",
"127 532 LINE SMOOTH",
"127 545 OFFCURVE",
"120 552 OFFCURVE",
"107 552 CURVE SMOOTH",
"60 552 LINE SMOOTH",
"47 552 OFFCURVE",
"40 545 OFFCURVE",
"40 532 CURVE SMOOTH",
"40 485 LINE SMOOTH",
"40 472 OFFCURVE",
"47 465 OFFCURVE",
"60 465 CURVE SMOOTH",
"73 465 LINE SMOOTH",
"84 465 OFFCURVE",
"92 458 OFFCURVE",
"92 445 CURVE SMOOTH",
"92 35 LINE SMOOTH",
"92 12 OFFCURVE",
"104 0 OFFCURVE",
"127 0 CURVE SMOOTH",
"128 0 LINE SMOOTH",
"151 0 OFFCURVE",
"163 12 OFFCURVE",
"163 35 CURVE SMOOTH",
"163 429 LINE SMOOTH",
"163 429 OFFCURVE",
"163 429 OFFCURVE",
"163 429 CURVE SMOOTH",
"425 429 LINE SMOOTH",
"425 429 OFFCURVE",
"425 429 OFFCURVE",
"425 429 CURVE SMOOTH",
"425 35 LINE SMOOTH",
"425 12 OFFCURVE",
"437 0 OFFCURVE",
"460 0 CURVE SMOOTH",
"461 0 LINE SMOOTH",
"484 0 OFFCURVE",
"496 12 OFFCURVE",
"496 35 CURVE SMOOTH",
"496 430 LINE SMOOTH",
"496 476 OFFCURVE",
"472 500 OFFCURVE",
"426 500 CURVE SMOOTH",
"147 500 LINE SMOOTH"
);
}
);
width = 561;
},
{
associatedMasterId = "E2857279-2EBA-495B-814E-9CD52C7A5F8C";
layerId = "0C68A44F-950A-42E2-99BE-148CBB6E701B";
name = "Nov 12 19, 22:19";
paths = (
{
closed = 1;
nodes = (
"134 500 OFFCURVE",
"127 507 OFFCURVE",
"127 520 CURVE SMOOTH",
"127 532 LINE SMOOTH",
"127 545 OFFCURVE",
"120 552 OFFCURVE",
"107 552 CURVE SMOOTH",
"60 552 LINE SMOOTH",
"47 552 OFFCURVE",
"40 545 OFFCURVE",
"40 532 CURVE SMOOTH",
"40 485 LINE SMOOTH",
"40 472 OFFCURVE",
"47 465 OFFCURVE",
"60 465 CURVE SMOOTH",
"73 465 LINE SMOOTH",
"84 465 OFFCURVE",
"92 458 OFFCURVE",
"92 445 CURVE SMOOTH",
"92 35 LINE SMOOTH",
"92 12 OFFCURVE",
"104 0 OFFCURVE",
"127 0 CURVE SMOOTH",
"128 0 LINE SMOOTH",
"151 0 OFFCURVE",
"163 12 OFFCURVE",
"163 35 CURVE SMOOTH",
"163 429 LINE SMOOTH",
"163 429 OFFCURVE",
"163 429 OFFCURVE",
"163 429 CURVE SMOOTH",
"397 429 LINE SMOOTH",
"409 429 OFFCURVE",
"415 424 OFFCURVE",
"415 411 CURVE SMOOTH",
"415 35 LINE SMOOTH",
"415 12 OFFCURVE",
"427 0 OFFCURVE",
"450 0 CURVE SMOOTH",
"451 0 LINE SMOOTH",
"474 0 OFFCURVE",
"486 12 OFFCURVE",
"486 35 CURVE SMOOTH",
"486 430 LINE SMOOTH",
"486 476 OFFCURVE",
"462 500 OFFCURVE",
"416 500 CURVE SMOOTH",
"147 500 LINE SMOOTH"
);
}
);
width = 561;
}
);
unicode = 006E;
},
{
glyphname = o;
lastChange = "2019-11-15 18:18:38 +0000";
layers = (
{
layerId = "E2857279-2EBA-495B-814E-9CD52C7A5F8C";
paths = (
{
closed = 1;
nodes = (
"484 0 LINE SMOOTH",
"484 0 OFFCURVE",
"484 0 OFFCURVE",
"484 0 CURVE SMOOTH",
"484 500 LINE SMOOTH",
"484 500 OFFCURVE",
"484 500 OFFCURVE",
"484 500 CURVE SMOOTH",
"70 500 LINE SMOOTH",
"70 500 OFFCURVE",
"70 500 OFFCURVE",
"70 500 CURVE SMOOTH",
"70 0 LINE SMOOTH",
"70 0 OFFCURVE",
"70 0 OFFCURVE",
"70 0 CURVE SMOOTH"
);
},
{
closed = 1;
nodes = (
"141 70 OFFCURVE",
"141 70 OFFCURVE",
"141 70 CURVE SMOOTH",
"141 429 LINE SMOOTH",
"141 429 OFFCURVE",
"141 429 OFFCURVE",
"141 429 CURVE SMOOTH",
"413 429 LINE SMOOTH",
"413 429 OFFCURVE",
"413 429 OFFCURVE",
"413 429 CURVE SMOOTH",
"413 71 LINE SMOOTH",
"413 71 OFFCURVE",
"413 71 OFFCURVE",
"413 71 CURVE SMOOTH",
"141 70 LINE SMOOTH"
);
}
);
width = 554;
},
{
associatedMasterId = "E2857279-2EBA-495B-814E-9CD52C7A5F8C";
layerId = "A6990E34-E651-48BF-A73A-0D2F91CA4EAA";
name = "Nov 8 19, 14:05";
paths = (
{
closed = 1;
nodes = (
"466 0 LINE SMOOTH",
"492 0 OFFCURVE",
"506 14 OFFCURVE",
"506 40 CURVE SMOOTH",
"506 460 LINE SMOOTH",
"506 486 OFFCURVE",
"492 500 OFFCURVE",
"466 500 CURVE SMOOTH",
"134 500 LINE SMOOTH",
"108 500 OFFCURVE",
"94 486 OFFCURVE",
"94 460 CURVE SMOOTH",
"94 40 LINE SMOOTH",
"94 14 OFFCURVE",
"108 0 OFFCURVE",
"134 0 CURVE SMOOTH"
);
},
{
closed = 1;
nodes = (
"169 71 OFFCURVE",
"165 75 OFFCURVE",
"165 84 CURVE SMOOTH",
"165 416 LINE SMOOTH",
"165 425 OFFCURVE",
"169 429 OFFCURVE",
"178 429 CURVE SMOOTH",
"422 429 LINE SMOOTH",
"431 429 OFFCURVE",
"435 425 OFFCURVE",
"435 416 CURVE SMOOTH",
"435 84 LINE SMOOTH",
"435 75 OFFCURVE",
"431 71 OFFCURVE",
"422 71 CURVE SMOOTH",
"178 71 LINE SMOOTH"
);
}
);
width = 600;
},
{
associatedMasterId = "E2857279-2EBA-495B-814E-9CD52C7A5F8C";
layerId = "39CF1404-09D1-4F88-9021-E78CDC98D265";
name = "Nov 8 19, 14:04";
paths = (
{
closed = 1;
nodes = (
"446 0 LINE SMOOTH",
"485 0 OFFCURVE",
"506 21 OFFCURVE",
"506 60 CURVE SMOOTH",
"506 440 LINE SMOOTH",
"506 479 OFFCURVE",
"485 500 OFFCURVE",
"446 500 CURVE SMOOTH",
"154 500 LINE SMOOTH",
"115 500 OFFCURVE",
"94 479 OFFCURVE",
"94 440 CURVE SMOOTH",
"94 60 LINE SMOOTH",
"94 21 OFFCURVE",
"115 0 OFFCURVE",
"154 0 CURVE SMOOTH"
);
},
{
closed = 1;
nodes = (
"169 71 OFFCURVE",
"165 75 OFFCURVE",
"165 84 CURVE SMOOTH",
"165 416 LINE SMOOTH",
"165 425 OFFCURVE",
"169 429 OFFCURVE",
"178 429 CURVE SMOOTH",
"422 429 LINE SMOOTH",
"431 429 OFFCURVE",
"435 425 OFFCURVE",
"435 416 CURVE SMOOTH",
"435 84 LINE SMOOTH",
"435 75 OFFCURVE",
"431 71 OFFCURVE",
"422 71 CURVE SMOOTH",
"178 71 LINE SMOOTH"
);
}
);
width = 600;
},
{
associatedMasterId = "E2857279-2EBA-495B-814E-9CD52C7A5F8C";
layerId = "CE63830A-59CA-4508-84BB-C28001741188";
name = "Nov 8 19, 14:15";
paths = (
{
closed = 1;
nodes = (
"506 0 LINE SMOOTH",
"506 0 OFFCURVE",
"506 0 OFFCURVE",
"506 0 CURVE SMOOTH",
"506 500 LINE SMOOTH",
"506 500 OFFCURVE",
"506 500 OFFCURVE",
"506 500 CURVE SMOOTH",
"94 500 LINE SMOOTH",
"94 500 OFFCURVE",
"94 500 OFFCURVE",
"94 500 CURVE SMOOTH",
"94 0 LINE SMOOTH",
"94 0 OFFCURVE",
"94 0 OFFCURVE",
"94 0 CURVE SMOOTH"
);
},
{
closed = 1;
nodes = (
"165 71 OFFCURVE",
"165 71 OFFCURVE",
"165 71 CURVE SMOOTH",
"165 429 LINE SMOOTH",
"165 429 OFFCURVE",
"165 429 OFFCURVE",
"165 429 CURVE SMOOTH",
"435 429 LINE SMOOTH",
"435 429 OFFCURVE",
"435 429 OFFCURVE",
"435 429 CURVE SMOOTH",
"435 71 LINE SMOOTH",
"435 71 OFFCURVE",
"435 71 OFFCURVE",
"435 71 CURVE SMOOTH",
"165 71 LINE SMOOTH"
);
}
);
width = 600;
},
{
associatedMasterId = "E2857279-2EBA-495B-814E-9CD52C7A5F8C";
layerId = "DF724271-B218-4FFA-82A8-8F2E81FF4143";
paths = (
{
closed = 1;
nodes = (
"471 0 LINE SMOOTH",
"494 0 OFFCURVE",
"506 12 OFFCURVE",
"506 35 CURVE SMOOTH",
"506 465 LINE SMOOTH",
"506 488 OFFCURVE",
"494 500 OFFCURVE",
"471 500 CURVE SMOOTH",
"129 500 LINE SMOOTH",
"106 500 OFFCURVE",
"94 488 OFFCURVE",
"94 465 CURVE SMOOTH",
"94 35 LINE SMOOTH",
"94 12 OFFCURVE",
"106 0 OFFCURVE",
"129 0 CURVE SMOOTH"
);
},
{
closed = 1;
nodes = (
"172 70 OFFCURVE",
"165 77 OFFCURVE",
"165 88 CURVE SMOOTH",
"165 411 LINE SMOOTH",
"165 422 OFFCURVE",
"172 429 OFFCURVE",
"183 429 CURVE SMOOTH",
"417 429 LINE SMOOTH",
"429 429 OFFCURVE",
"435 423 OFFCURVE",
"435 411 CURVE SMOOTH",
"435 89 LINE SMOOTH",
"435 78 OFFCURVE",
"428 71 OFFCURVE",
"417 71 CURVE SMOOTH",
"183 70 LINE SMOOTH"
);
}
);
width = 600;
},
{
associatedMasterId = "E2857279-2EBA-495B-814E-9CD52C7A5F8C";
layerId = "F9BC972C-262B-4444-ABFB-C5743DBCC39F";
name = "Nov 8 19, 14:05";
paths = (
{
closed = 1;
nodes = (
"466 0 LINE SMOOTH",
"492 0 OFFCURVE",
"506 14 OFFCURVE",
"506 40 CURVE SMOOTH",
"506 460 LINE SMOOTH",
"506 486 OFFCURVE",
"492 500 OFFCURVE",
"466 500 CURVE SMOOTH",
"134 500 LINE SMOOTH",
"108 500 OFFCURVE",
"94 486 OFFCURVE",
"94 460 CURVE SMOOTH",
"94 40 LINE SMOOTH",
"94 14 OFFCURVE",
"108 0 OFFCURVE",
"134 0 CURVE SMOOTH"
);
},
{
closed = 1;
nodes = (
"169 71 OFFCURVE",
"165 75 OFFCURVE",
"165 84 CURVE SMOOTH",
"165 416 LINE SMOOTH",
"165 425 OFFCURVE",
"169 429 OFFCURVE",
"178 429 CURVE SMOOTH",
"422 429 LINE SMOOTH",
"431 429 OFFCURVE",
"435 425 OFFCURVE",
"435 416 CURVE SMOOTH",
"435 84 LINE SMOOTH",
"435 75 OFFCURVE",
"431 71 OFFCURVE",
"422 71 CURVE SMOOTH",
"178 71 LINE SMOOTH"
);
}
);
width = 600;
},
{
associatedMasterId = "E2857279-2EBA-495B-814E-9CD52C7A5F8C";
layerId = "41A38048-71E3-42D0-A27C-5C8810BA0969";
name = "Nov 8 19, 14:04";
paths = (
{
closed = 1;
nodes = (
"446 0 LINE SMOOTH",
"485 0 OFFCURVE",
"506 21 OFFCURVE",
"506 60 CURVE SMOOTH",
"506 440 LINE SMOOTH",
"506 479 OFFCURVE",
"485 500 OFFCURVE",
"446 500 CURVE SMOOTH",
"154 500 LINE SMOOTH",
"115 500 OFFCURVE",
"94 479 OFFCURVE",
"94 440 CURVE SMOOTH",
"94 60 LINE SMOOTH",
"94 21 OFFCURVE",
"115 0 OFFCURVE",
"154 0 CURVE SMOOTH"
);
},
{
closed = 1;
nodes = (
"169 71 OFFCURVE",
"165 75 OFFCURVE",
"165 84 CURVE SMOOTH",
"165 416 LINE SMOOTH",
"165 425 OFFCURVE",
"169 429 OFFCURVE",
"178 429 CURVE SMOOTH",
"422 429 LINE SMOOTH",
"431 429 OFFCURVE",
"435 425 OFFCURVE",
"435 416 CURVE SMOOTH",
"435 84 LINE SMOOTH",
"435 75 OFFCURVE",
"431 71 OFFCURVE",
"422 71 CURVE SMOOTH",
"178 71 LINE SMOOTH"
);
}
);
width = 600;
},
{
associatedMasterId = "E2857279-2EBA-495B-814E-9CD52C7A5F8C";
layerId = "9AFB11AF-FFC8-4E4D-BA5C-7AB935CD1468";
name = "Nov 8 19, 14:15";
paths = (
{
closed = 1;
nodes = (
"436 0 LINE SMOOTH",
"475 0 OFFCURVE",
"506 31 OFFCURVE",
"506 70 CURVE SMOOTH",
"506 430 LINE SMOOTH",
"506 469 OFFCURVE",
"475 500 OFFCURVE",
"436 500 CURVE SMOOTH",
"164 500 LINE SMOOTH",
"125 500 OFFCURVE",
"94 469 OFFCURVE",
"94 430 CURVE SMOOTH",
"94 70 LINE SMOOTH",
"94 31 OFFCURVE",
"125 0 OFFCURVE",
"164 0 CURVE SMOOTH"
);
},
{
closed = 1;
nodes = (
"175 71 OFFCURVE",
"165 81 OFFCURVE",
"165 94 CURVE SMOOTH",
"165 406 LINE SMOOTH",
"165 419 OFFCURVE",
"175 429 OFFCURVE",
"188 429 CURVE SMOOTH",
"412 429 LINE SMOOTH",
"425 429 OFFCURVE",
"435 419 OFFCURVE",
"435 406 CURVE SMOOTH",
"435 94 LINE SMOOTH",
"435 81 OFFCURVE",
"425 71 OFFCURVE",
"412 71 CURVE SMOOTH",
"188 71 LINE SMOOTH"
);
}
);
width = 600;
},
{
associatedMasterId = "E2857279-2EBA-495B-814E-9CD52C7A5F8C";
layerId = "48660101-13BB-4931-9CBC-85E8E3CF53F2";
name = "Nov 12 19, 13:20";
paths = (
{
closed = 1;
nodes = (
"413 0 LINE SMOOTH",
"459 0 OFFCURVE",
"483 24 OFFCURVE",
"483 70 CURVE SMOOTH",
"483 430 LINE SMOOTH",
"483 476 OFFCURVE",
"459 500 OFFCURVE",
"413 500 CURVE SMOOTH",
"141 500 LINE SMOOTH",
"95 500 OFFCURVE",
"71 476 OFFCURVE",
"71 430 CURVE SMOOTH",
"71 70 LINE SMOOTH",
"71 24 OFFCURVE",
"95 0 OFFCURVE",
"141 0 CURVE SMOOTH"
);
},
{
closed = 1;
nodes = (
"149 70 OFFCURVE",
"142 77 OFFCURVE",
"142 88 CURVE SMOOTH",
"142 411 LINE SMOOTH",
"142 422 OFFCURVE",
"149 429 OFFCURVE",
"160 429 CURVE SMOOTH",
"394 429 LINE SMOOTH",
"406 429 OFFCURVE",
"412 423 OFFCURVE",
"412 411 CURVE SMOOTH",
"412 89 LINE SMOOTH",
"412 78 OFFCURVE",
"405 71 OFFCURVE",
"394 71 CURVE SMOOTH",
"160 70 LINE SMOOTH"
);
}
);
width = 554;
},
{
layerId = "DD439194-7281-4DC7-85BF-0C2680351E76";
paths = (
{
closed = 1;
nodes = (
"414 0 LINE SMOOTH",
"460 0 OFFCURVE",
"484 24 OFFCURVE",
"484 70 CURVE SMOOTH",
"484 430 LINE SMOOTH",
"484 476 OFFCURVE",
"460 500 OFFCURVE",
"414 500 CURVE SMOOTH",
"140 500 LINE SMOOTH",
"94 500 OFFCURVE",
"70 476 OFFCURVE",
"70 430 CURVE SMOOTH",
"70 70 LINE SMOOTH",
"70 24 OFFCURVE",
"94 0 OFFCURVE",
"140 0 CURVE SMOOTH"
);
},
{
closed = 1;
nodes = (
"147 70 OFFCURVE",
"141 76 OFFCURVE",
"141 88 CURVE SMOOTH",
"141 411 LINE SMOOTH",
"141 423 OFFCURVE",
"147 429 OFFCURVE",
"159 429 CURVE SMOOTH",
"395 429 LINE SMOOTH",
"407 429 OFFCURVE",
"413 423 OFFCURVE",
"413 411 CURVE SMOOTH",
"413 89 LINE SMOOTH",
"413 77 OFFCURVE",
"407 71 OFFCURVE",
"395 71 CURVE SMOOTH",
"159 70 LINE SMOOTH"
);
}
);
width = 554;
},
{
associatedMasterId = "DD439194-7281-4DC7-85BF-0C2680351E76";
layerId = "2DFA43ED-3E9A-412C-891A-298FD9097707";
name = "Nov 8 19, 14:05";
paths = (
{
closed = 1;
nodes = (
"466 0 LINE SMOOTH",
"492 0 OFFCURVE",
"506 14 OFFCURVE",
"506 40 CURVE SMOOTH",
"506 460 LINE SMOOTH",
"506 486 OFFCURVE",
"492 500 OFFCURVE",
"466 500 CURVE SMOOTH",
"134 500 LINE SMOOTH",
"108 500 OFFCURVE",
"94 486 OFFCURVE",
"94 460 CURVE SMOOTH",
"94 40 LINE SMOOTH",
"94 14 OFFCURVE",
"108 0 OFFCURVE",
"134 0 CURVE SMOOTH"
);
},
{
closed = 1;
nodes = (
"169 71 OFFCURVE",
"165 75 OFFCURVE",
"165 84 CURVE SMOOTH",
"165 416 LINE SMOOTH",
"165 425 OFFCURVE",
"169 429 OFFCURVE",
"178 429 CURVE SMOOTH",
"422 429 LINE SMOOTH",
"431 429 OFFCURVE",
"435 425 OFFCURVE",
"435 416 CURVE SMOOTH",
"435 84 LINE SMOOTH",
"435 75 OFFCURVE",
"431 71 OFFCURVE",
"422 71 CURVE SMOOTH",
"178 71 LINE SMOOTH"
);
}
);
width = 600;
},
{
associatedMasterId = "DD439194-7281-4DC7-85BF-0C2680351E76";
layerId = "C0463163-ABF9-47BB-887E-EB7B6168EA10";
name = "Nov 8 19, 14:04";
paths = (
{
closed = 1;
nodes = (
"446 0 LINE SMOOTH",
"485 0 OFFCURVE",
"506 21 OFFCURVE",
"506 60 CURVE SMOOTH",
"506 440 LINE SMOOTH",
"506 479 OFFCURVE",
"485 500 OFFCURVE",
"446 500 CURVE SMOOTH",
"154 500 LINE SMOOTH",
"115 500 OFFCURVE",
"94 479 OFFCURVE",
"94 440 CURVE SMOOTH",
"94 60 LINE SMOOTH",
"94 21 OFFCURVE",
"115 0 OFFCURVE",
"154 0 CURVE SMOOTH"
);
},
{
closed = 1;
nodes = (
"169 71 OFFCURVE",
"165 75 OFFCURVE",
"165 84 CURVE SMOOTH",
"165 416 LINE SMOOTH",
"165 425 OFFCURVE",
"169 429 OFFCURVE",
"178 429 CURVE SMOOTH",
"422 429 LINE SMOOTH",
"431 429 OFFCURVE",
"435 425 OFFCURVE",
"435 416 CURVE SMOOTH",
"435 84 LINE SMOOTH",
"435 75 OFFCURVE",
"431 71 OFFCURVE",
"422 71 CURVE SMOOTH",
"178 71 LINE SMOOTH"
);
}
);
width = 600;
},
{
associatedMasterId = "DD439194-7281-4DC7-85BF-0C2680351E76";
layerId = "3A795F2A-1EDD-4BC1-827B-4A9B218F7A5B";
name = "Nov 8 19, 14:15";
paths = (
{
closed = 1;
nodes = (
"506 0 LINE SMOOTH",
"506 0 OFFCURVE",
"506 0 OFFCURVE",
"506 0 CURVE SMOOTH",
"506 500 LINE SMOOTH",
"506 500 OFFCURVE",
"506 500 OFFCURVE",
"506 500 CURVE SMOOTH",
"94 500 LINE SMOOTH",
"94 500 OFFCURVE",
"94 500 OFFCURVE",
"94 500 CURVE SMOOTH",
"94 0 LINE SMOOTH",
"94 0 OFFCURVE",
"94 0 OFFCURVE",
"94 0 CURVE SMOOTH"
);
},
{
closed = 1;
nodes = (
"165 71 OFFCURVE",
"165 71 OFFCURVE",
"165 71 CURVE SMOOTH",
"165 429 LINE SMOOTH",
"165 429 OFFCURVE",
"165 429 OFFCURVE",
"165 429 CURVE SMOOTH",
"435 429 LINE SMOOTH",
"435 429 OFFCURVE",
"435 429 OFFCURVE",
"435 429 CURVE SMOOTH",
"435 71 LINE SMOOTH",
"435 71 OFFCURVE",
"435 71 OFFCURVE",
"435 71 CURVE SMOOTH",
"165 71 LINE SMOOTH"
);
}
);
width = 600;
},
{
associatedMasterId = "DD439194-7281-4DC7-85BF-0C2680351E76";
layerId = "AA145D27-CBCA-4DA6-8702-E18A81CED344";
paths = (
{
closed = 1;
nodes = (
"471 0 LINE SMOOTH",
"494 0 OFFCURVE",
"506 12 OFFCURVE",
"506 35 CURVE SMOOTH",
"506 465 LINE SMOOTH",
"506 488 OFFCURVE",
"494 500 OFFCURVE",
"471 500 CURVE SMOOTH",
"129 500 LINE SMOOTH",
"106 500 OFFCURVE",
"94 488 OFFCURVE",
"94 465 CURVE SMOOTH",
"94 35 LINE SMOOTH",
"94 12 OFFCURVE",
"106 0 OFFCURVE",
"129 0 CURVE SMOOTH"
);
},
{
closed = 1;
nodes = (
"172 70 OFFCURVE",
"165 77 OFFCURVE",
"165 88 CURVE SMOOTH",
"165 411 LINE SMOOTH",
"165 422 OFFCURVE",
"172 429 OFFCURVE",
"183 429 CURVE SMOOTH",
"417 429 LINE SMOOTH",
"429 429 OFFCURVE",
"435 423 OFFCURVE",
"435 411 CURVE SMOOTH",
"435 89 LINE SMOOTH",
"435 78 OFFCURVE",
"428 71 OFFCURVE",
"417 71 CURVE SMOOTH",
"183 70 LINE SMOOTH"
);
}
);
width = 600;
},
{
associatedMasterId = "DD439194-7281-4DC7-85BF-0C2680351E76";
layerId = "C213CCA3-B79D-4C61-BA57-9F78B9D7113C";
name = "Nov 8 19, 14:05";
paths = (
{
closed = 1;
nodes = (
"466 0 LINE SMOOTH",
"492 0 OFFCURVE",
"506 14 OFFCURVE",
"506 40 CURVE SMOOTH",
"506 460 LINE SMOOTH",
"506 486 OFFCURVE",
"492 500 OFFCURVE",
"466 500 CURVE SMOOTH",
"134 500 LINE SMOOTH",
"108 500 OFFCURVE",
"94 486 OFFCURVE",
"94 460 CURVE SMOOTH",
"94 40 LINE SMOOTH",
"94 14 OFFCURVE",
"108 0 OFFCURVE",
"134 0 CURVE SMOOTH"
);
},
{
closed = 1;
nodes = (
"169 71 OFFCURVE",
"165 75 OFFCURVE",
"165 84 CURVE SMOOTH",
"165 416 LINE SMOOTH",
"165 425 OFFCURVE",
"169 429 OFFCURVE",
"178 429 CURVE SMOOTH",
"422 429 LINE SMOOTH",
"431 429 OFFCURVE",
"435 425 OFFCURVE",
"435 416 CURVE SMOOTH",
"435 84 LINE SMOOTH",
"435 75 OFFCURVE",
"431 71 OFFCURVE",
"422 71 CURVE SMOOTH",
"178 71 LINE SMOOTH"
);
}
);
width = 600;
},
{
associatedMasterId = "DD439194-7281-4DC7-85BF-0C2680351E76";
layerId = "DB6A4F94-E679-4E37-A918-9B85912D7044";
name = "Nov 8 19, 14:04";
paths = (
{
closed = 1;
nodes = (
"446 0 LINE SMOOTH",
"485 0 OFFCURVE",
"506 21 OFFCURVE",
"506 60 CURVE SMOOTH",
"506 440 LINE SMOOTH",
"506 479 OFFCURVE",
"485 500 OFFCURVE",
"446 500 CURVE SMOOTH",
"154 500 LINE SMOOTH",
"115 500 OFFCURVE",
"94 479 OFFCURVE",
"94 440 CURVE SMOOTH",
"94 60 LINE SMOOTH",
"94 21 OFFCURVE",
"115 0 OFFCURVE",
"154 0 CURVE SMOOTH"
);
},
{
closed = 1;
nodes = (
"169 71 OFFCURVE",
"165 75 OFFCURVE",
"165 84 CURVE SMOOTH",
"165 416 LINE SMOOTH",
"165 425 OFFCURVE",
"169 429 OFFCURVE",
"178 429 CURVE SMOOTH",
"422 429 LINE SMOOTH",
"431 429 OFFCURVE",
"435 425 OFFCURVE",
"435 416 CURVE SMOOTH",
"435 84 LINE SMOOTH",
"435 75 OFFCURVE",
"431 71 OFFCURVE",
"422 71 CURVE SMOOTH",
"178 71 LINE SMOOTH"
);
}
);
width = 600;
},
{
associatedMasterId = "DD439194-7281-4DC7-85BF-0C2680351E76";
layerId = "40AEC4D2-AF5C-44FC-A7BA-2A50927D240A";
name = "Nov 8 19, 14:15";
paths = (
{
closed = 1;
nodes = (
"436 0 LINE SMOOTH",
"475 0 OFFCURVE",
"506 31 OFFCURVE",
"506 70 CURVE SMOOTH",
"506 430 LINE SMOOTH",
"506 469 OFFCURVE",
"475 500 OFFCURVE",
"436 500 CURVE SMOOTH",
"164 500 LINE SMOOTH",
"125 500 OFFCURVE",
"94 469 OFFCURVE",
"94 430 CURVE SMOOTH",
"94 70 LINE SMOOTH",
"94 31 OFFCURVE",
"125 0 OFFCURVE",
"164 0 CURVE SMOOTH"
);
},
{
closed = 1;
nodes = (
"175 71 OFFCURVE",
"165 81 OFFCURVE",
"165 94 CURVE SMOOTH",
"165 406 LINE SMOOTH",
"165 419 OFFCURVE",
"175 429 OFFCURVE",
"188 429 CURVE SMOOTH",
"412 429 LINE SMOOTH",
"425 429 OFFCURVE",
"435 419 OFFCURVE",
"435 406 CURVE SMOOTH",
"435 94 LINE SMOOTH",
"435 81 OFFCURVE",
"425 71 OFFCURVE",
"412 71 CURVE SMOOTH",
"188 71 LINE SMOOTH"
);
}
);
width = 600;
},
{
associatedMasterId = "DD439194-7281-4DC7-85BF-0C2680351E76";
layerId = "85C6155B-0AEA-4DE2-A348-F1E580F55BF5";
name = "Nov 12 19, 13:20";
paths = (
{
closed = 1;
nodes = (
"413 0 LINE SMOOTH",
"459 0 OFFCURVE",
"483 24 OFFCURVE",
"483 70 CURVE SMOOTH",
"483 430 LINE SMOOTH",
"483 476 OFFCURVE",
"459 500 OFFCURVE",
"413 500 CURVE SMOOTH",
"141 500 LINE SMOOTH",
"95 500 OFFCURVE",
"71 476 OFFCURVE",
"71 430 CURVE SMOOTH",
"71 70 LINE SMOOTH",
"71 24 OFFCURVE",
"95 0 OFFCURVE",
"141 0 CURVE SMOOTH"
);
},
{
closed = 1;
nodes = (
"149 70 OFFCURVE",
"142 77 OFFCURVE",
"142 88 CURVE SMOOTH",
"142 411 LINE SMOOTH",
"142 422 OFFCURVE",
"149 429 OFFCURVE",
"160 429 CURVE SMOOTH",
"394 429 LINE SMOOTH",
"406 429 OFFCURVE",
"412 423 OFFCURVE",
"412 411 CURVE SMOOTH",
"412 89 LINE SMOOTH",
"412 78 OFFCURVE",
"405 71 OFFCURVE",
"394 71 CURVE SMOOTH",
"160 70 LINE SMOOTH"
);
}
);
width = 554;
},
{
associatedMasterId = "E2857279-2EBA-495B-814E-9CD52C7A5F8C";
layerId = "F7254EF5-8D23-4E81-BC50-973A5583C0D7";
name = "Nov 12 19, 22:14";
paths = (
{
closed = 1;
nodes = (
"414 0 LINE SMOOTH",
"460 0 OFFCURVE",
"484 24 OFFCURVE",
"484 70 CURVE SMOOTH",
"484 430 LINE SMOOTH",
"484 476 OFFCURVE",
"460 500 OFFCURVE",
"414 500 CURVE SMOOTH",
"140 500 LINE SMOOTH",
"94 500 OFFCURVE",
"70 476 OFFCURVE",
"70 430 CURVE SMOOTH",
"70 70 LINE SMOOTH",
"70 24 OFFCURVE",
"94 0 OFFCURVE",
"140 0 CURVE SMOOTH"
);
},
{
closed = 1;
nodes = (
"148 70 OFFCURVE",
"141 77 OFFCURVE",
"141 88 CURVE SMOOTH",
"141 411 LINE SMOOTH",
"141 422 OFFCURVE",
"148 429 OFFCURVE",
"159 429 CURVE SMOOTH",
"395 429 LINE SMOOTH",
"407 429 OFFCURVE",
"413 423 OFFCURVE",
"413 411 CURVE SMOOTH",
"413 89 LINE SMOOTH",
"413 78 OFFCURVE",
"406 71 OFFCURVE",
"395 71 CURVE SMOOTH",
"159 70 LINE SMOOTH"
);
}
);
width = 554;
}
);
unicode = 006F;
},
{
glyphname = p;
lastChange = "2019-11-15 19:25:07 +0000";
layers = (
{
layerId = "E2857279-2EBA-495B-814E-9CD52C7A5F8C";
paths = (
{
closed = 1;
nodes = (
"97 -275 OFFCURVE",
"97 -275 OFFCURVE",
"97 -275 CURVE SMOOTH",
"168 -275 LINE SMOOTH",
"168 -275 OFFCURVE",
"168 -275 OFFCURVE",
"168 -275 CURVE",
"168 0 LINE",
"491 0 LINE SMOOTH",
"491 0 OFFCURVE",
"491 0 OFFCURVE",
"491 0 CURVE SMOOTH",
"491 500 LINE SMOOTH",
"491 500 OFFCURVE",
"491 500 OFFCURVE",
"491 500 CURVE SMOOTH",
"132 500 LINE SMOOTH",
"132 500 OFFCURVE",
"132 500 OFFCURVE",
"132 500 CURVE SMOOTH",
"132 552 LINE SMOOTH",
"132 552 OFFCURVE",
"132 552 OFFCURVE",
"132 552 CURVE SMOOTH",
"45 552 LINE SMOOTH",
"45 552 OFFCURVE",
"45 552 OFFCURVE",
"45 552 CURVE SMOOTH",
"45 465 LINE SMOOTH",
"45 465 OFFCURVE",
"45 465 OFFCURVE",
"45 465 CURVE SMOOTH",
"97 465 LINE SMOOTH",
"97 465 OFFCURVE",
"97 465 OFFCURVE",
"97 465 CURVE SMOOTH",
"97 -275 LINE"
);
},
{
closed = 1;
nodes = (
"168 71 LINE",
"168 429 LINE",
"420 429 LINE SMOOTH",
"420 429 OFFCURVE",
"420 429 OFFCURVE",
"420 429 CURVE SMOOTH",
"420 71 LINE SMOOTH",
"420 71 OFFCURVE",
"420 71 OFFCURVE",
"420 71 CURVE"
);
}
);
width = 561;
},
{
layerId = "DD439194-7281-4DC7-85BF-0C2680351E76";
paths = (
{
closed = 1;
nodes = (
"92 -238 OFFCURVE",
"104 -250 OFFCURVE",
"127 -250 CURVE SMOOTH",
"128 -250 LINE SMOOTH",
"151 -250 OFFCURVE",
"163 -238 OFFCURVE",
"163 -215 CURVE",
"163 0 LINE",
"416 0 LINE SMOOTH",
"461 0 OFFCURVE",
"486 25 OFFCURVE",
"486 70 CURVE SMOOTH",
"486 430 LINE SMOOTH",
"486 476 OFFCURVE",
"462 500 OFFCURVE",
"416 500 CURVE SMOOTH",
"147 500 LINE SMOOTH",
"134 500 OFFCURVE",
"127 507 OFFCURVE",
"127 520 CURVE SMOOTH",
"127 532 LINE SMOOTH",
"127 545 OFFCURVE",
"120 552 OFFCURVE",
"107 552 CURVE SMOOTH",
"60 552 LINE SMOOTH",
"47 552 OFFCURVE",
"40 545 OFFCURVE",
"40 532 CURVE SMOOTH",
"40 485 LINE SMOOTH",
"40 472 OFFCURVE",
"47 465 OFFCURVE",
"60 465 CURVE SMOOTH",
"73 465 LINE SMOOTH",
"84 465 OFFCURVE",
"92 458 OFFCURVE",
"92 445 CURVE SMOOTH",
"92 -215 LINE"
);
},
{
closed = 1;
nodes = (
"163 71 LINE",
"163 429 LINE",
"397 429 LINE SMOOTH",
"409 429 OFFCURVE",
"415 423 OFFCURVE",
"415 411 CURVE SMOOTH",
"415 89 LINE SMOOTH",
"415 77 OFFCURVE",
"409 71 OFFCURVE",
"397 71 CURVE SMOOTH"
);
}
);
width = 556;
},
{
associatedMasterId = "DD439194-7281-4DC7-85BF-0C2680351E76";
layerId = "137E8119-0198-4BD7-913C-DCCF91F64D51";
name = "Nov 15 19, 14:58";
paths = (
{
closed = 1;
nodes = (
"92 -263 OFFCURVE",
"104 -275 OFFCURVE",
"127 -275 CURVE SMOOTH",
"128 -275 LINE SMOOTH",
"151 -275 OFFCURVE",
"163 -263 OFFCURVE",
"163 -240 CURVE",
"163 0 LINE",
"416 0 LINE SMOOTH",
"461 0 OFFCURVE",
"486 25 OFFCURVE",
"486 70 CURVE SMOOTH",
"486 359 LINE SMOOTH",
"486 405 OFFCURVE",
"462 429 OFFCURVE",
"416 429 CURVE SMOOTH",
"147 429 LINE SMOOTH",
"134 429 OFFCURVE",
"127 436 OFFCURVE",
"127 449 CURVE SMOOTH",
"127 461 LINE SMOOTH",
"127 474 OFFCURVE",
"120 481 OFFCURVE",
"107 481 CURVE SMOOTH",
"60 481 LINE SMOOTH",
"47 481 OFFCURVE",
"40 474 OFFCURVE",
"40 461 CURVE SMOOTH",
"40 414 LINE SMOOTH",
"40 401 OFFCURVE",
"47 394 OFFCURVE",
"60 394 CURVE SMOOTH",
"73 394 LINE SMOOTH",
"84 394 OFFCURVE",
"92 387 OFFCURVE",
"92 374 CURVE SMOOTH",
"92 -240 LINE"
);
},
{
closed = 1;
nodes = (
"176 71 LINE SMOOTH",
"167 71 OFFCURVE",
"163 75 OFFCURVE",
"163 84 CURVE SMOOTH",
"163 358 LINE",
"397 358 LINE SMOOTH",
"409 358 OFFCURVE",
"415 352 OFFCURVE",
"415 340 CURVE SMOOTH",
"415 84 LINE SMOOTH",
"415 75 OFFCURVE",
"411 71 OFFCURVE",
"402 71 CURVE SMOOTH"
);
}
);
width = 556;
}
);
unicode = 0070;
},
{
glyphname = q;
lastChange = "2019-11-15 19:25:29 +0000";
layers = (
{
layerId = "E2857279-2EBA-495B-814E-9CD52C7A5F8C";
paths = (
{
closed = 1;
nodes = (
"464 465 LINE SMOOTH",
"464 465 OFFCURVE",
"464 465 OFFCURVE",
"464 465 CURVE SMOOTH",
"516 465 LINE SMOOTH",
"516 465 OFFCURVE",
"516 465 OFFCURVE",
"516 465 CURVE SMOOTH",
"516 552 LINE SMOOTH",
"516 552 OFFCURVE",
"516 552 OFFCURVE",
"516 552 CURVE SMOOTH",
"429 552 LINE SMOOTH",
"429 552 OFFCURVE",
"429 552 OFFCURVE",
"429 552 CURVE SMOOTH",
"429 500 LINE SMOOTH",
"429 500 OFFCURVE",
"429 500 OFFCURVE",
"429 500 CURVE SMOOTH",
"70 500 LINE SMOOTH",
"70 500 OFFCURVE",
"70 500 OFFCURVE",
"70 500 CURVE SMOOTH",
"70 0 LINE SMOOTH",
"70 0 OFFCURVE",
"70 0 OFFCURVE",
"70 0 CURVE SMOOTH",
"393 0 LINE",
"393 -275 LINE",
"393 -275 OFFCURVE",
"393 -275 OFFCURVE",
"393 -275 CURVE SMOOTH",
"464 -275 LINE SMOOTH",
"464 -275 OFFCURVE",
"464 -275 OFFCURVE",
"464 -275 CURVE"
);
},
{
closed = 1;
nodes = (
"141 74 OFFCURVE",
"141 71 OFFCURVE",
"141 71 CURVE SMOOTH",
"141 429 LINE SMOOTH",
"141 429 OFFCURVE",
"141 429 OFFCURVE",
"141 429 CURVE SMOOTH",
"393 429 LINE",
"393 74 LINE",
"141 74 LINE SMOOTH"
);
}
);
width = 561;
},
{
layerId = "DD439194-7281-4DC7-85BF-0C2680351E76";
paths = (
{
closed = 1;
nodes = (
"464 445 LINE SMOOTH",
"464 458 OFFCURVE",
"472 465 OFFCURVE",
"483 465 CURVE SMOOTH",
"496 465 LINE SMOOTH",
"509 465 OFFCURVE",
"516 472 OFFCURVE",
"516 485 CURVE SMOOTH",
"516 532 LINE SMOOTH",
"516 545 OFFCURVE",
"509 552 OFFCURVE",
"496 552 CURVE SMOOTH",
"449 552 LINE SMOOTH",
"436 552 OFFCURVE",
"429 545 OFFCURVE",
"429 532 CURVE SMOOTH",
"429 520 LINE SMOOTH",
"429 507 OFFCURVE",
"422 500 OFFCURVE",
"409 500 CURVE SMOOTH",
"140 500 LINE SMOOTH",
"94 500 OFFCURVE",
"70 476 OFFCURVE",
"70 430 CURVE SMOOTH",
"70 70 LINE SMOOTH",
"70 25 OFFCURVE",
"95 0 OFFCURVE",
"140 0 CURVE SMOOTH",
"393 0 LINE",
"393 -215 LINE",
"393 -238 OFFCURVE",
"405 -250 OFFCURVE",
"428 -250 CURVE SMOOTH",
"429 -250 LINE SMOOTH",
"452 -250 OFFCURVE",
"464 -238 OFFCURVE",
"464 -215 CURVE"
);
},
{
closed = 1;
nodes = (
"147 71 OFFCURVE",
"141 77 OFFCURVE",
"141 89 CURVE SMOOTH",
"141 411 LINE SMOOTH",
"141 423 OFFCURVE",
"147 429 OFFCURVE",
"159 429 CURVE SMOOTH",
"393 429 LINE",
"393 71 LINE",
"159 71 LINE SMOOTH"
);
}
);
width = 556;
},
{
associatedMasterId = "DD439194-7281-4DC7-85BF-0C2680351E76";
layerId = "DBFF021F-A453-4E1E-BED7-008DD40B6267";
name = "Nov 15 19, 14:58";
paths = (
{
closed = 1;
nodes = (
"464 374 LINE SMOOTH",
"464 387 OFFCURVE",
"472 394 OFFCURVE",
"483 394 CURVE SMOOTH",
"496 394 LINE SMOOTH",
"509 394 OFFCURVE",
"516 401 OFFCURVE",
"516 414 CURVE SMOOTH",
"516 461 LINE SMOOTH",
"516 474 OFFCURVE",
"509 481 OFFCURVE",
"496 481 CURVE SMOOTH",
"449 481 LINE SMOOTH",
"436 481 OFFCURVE",
"429 474 OFFCURVE",
"429 461 CURVE SMOOTH",
"429 449 LINE SMOOTH",
"429 436 OFFCURVE",
"422 429 OFFCURVE",
"409 429 CURVE SMOOTH",
"140 429 LINE SMOOTH",
"94 429 OFFCURVE",
"70 405 OFFCURVE",
"70 359 CURVE SMOOTH",
"70 70 LINE SMOOTH",
"70 25 OFFCURVE",
"95 0 OFFCURVE",
"140 0 CURVE SMOOTH",
"393 0 LINE",
"393 -240 LINE",
"393 -263 OFFCURVE",
"405 -275 OFFCURVE",
"428 -275 CURVE SMOOTH",
"429 -275 LINE SMOOTH",
"452 -275 OFFCURVE",
"464 -263 OFFCURVE",
"464 -240 CURVE"
);
},
{
closed = 1;
nodes = (
"145 71 OFFCURVE",
"141 75 OFFCURVE",
"141 84 CURVE SMOOTH",
"141 340 LINE SMOOTH",
"141 352 OFFCURVE",
"147 358 OFFCURVE",
"159 358 CURVE SMOOTH",
"393 358 LINE",
"393 84 LINE SMOOTH",
"393 75 OFFCURVE",
"389 71 OFFCURVE",
"380 71 CURVE SMOOTH",
"154 71 LINE SMOOTH"
);
}
);
width = 556;
},
{
associatedMasterId = "E2857279-2EBA-495B-814E-9CD52C7A5F8C";
layerId = "F93167D6-C250-4942-A07A-EB2AF6D5F134";
name = "Nov 15 19, 15:32";
paths = (
{
closed = 1;
nodes = (
"464 394 LINE SMOOTH",
"464 394 OFFCURVE",
"464 394 OFFCURVE",
"464 394 CURVE SMOOTH",
"516 394 LINE SMOOTH",
"516 394 OFFCURVE",
"516 394 OFFCURVE",
"516 394 CURVE SMOOTH",
"516 481 LINE SMOOTH",
"516 481 OFFCURVE",
"516 481 OFFCURVE",
"516 481 CURVE SMOOTH",
"429 481 LINE SMOOTH",
"429 481 OFFCURVE",
"429 481 OFFCURVE",
"429 481 CURVE SMOOTH",
"429 429 LINE SMOOTH",
"429 429 OFFCURVE",
"429 429 OFFCURVE",
"429 429 CURVE SMOOTH",
"70 429 LINE SMOOTH",
"70 429 OFFCURVE",
"70 429 OFFCURVE",
"70 429 CURVE SMOOTH",
"70 0 LINE SMOOTH",
"70 0 OFFCURVE",
"70 0 OFFCURVE",
"70 0 CURVE SMOOTH",
"393 0 LINE",
"393 -275 LINE",
"393 -275 OFFCURVE",
"393 -275 OFFCURVE",
"393 -275 CURVE SMOOTH",
"464 -275 LINE SMOOTH",
"464 -275 OFFCURVE",
"464 -275 OFFCURVE",
"464 -275 CURVE"
);
},
{
closed = 1;
nodes = (
"145 71 OFFCURVE",
"141 75 OFFCURVE",
"141 84 CURVE SMOOTH",
"141 358 LINE SMOOTH",
"141 358 OFFCURVE",
"141 358 OFFCURVE",
"141 358 CURVE SMOOTH",
"393 358 LINE",
"393 71 LINE SMOOTH",
"393 71 OFFCURVE",
"393 71 OFFCURVE",
"393 71 CURVE SMOOTH",
"154 71 LINE SMOOTH"
);
}
);
width = 561;
}
);
unicode = 0071;
},
{
glyphname = r;
lastChange = "2019-11-15 18:34:11 +0000";
layers = (
{
layerId = "E2857279-2EBA-495B-814E-9CD52C7A5F8C";
paths = (
{
closed = 1;
nodes = (
"70 500 LINE SMOOTH",
"70 500 OFFCURVE",
"70 500 OFFCURVE",
"70 500 CURVE SMOOTH",
"70 0 LINE SMOOTH",
"70 0 OFFCURVE",
"70 0 OFFCURVE",
"70 0 CURVE SMOOTH",
"141 0 LINE SMOOTH",
"141 0 OFFCURVE",
"141 0 OFFCURVE",
"141 0 CURVE SMOOTH",
"141 429 LINE SMOOTH",
"141 429 OFFCURVE",
"141 429 OFFCURVE",
"141 429 CURVE SMOOTH",
"386 429 LINE SMOOTH",
"386 429 OFFCURVE",
"386 429 OFFCURVE",
"386 429 CURVE SMOOTH",
"386 500 LINE SMOOTH",
"386 500 OFFCURVE",
"386 500 OFFCURVE",
"386 500 CURVE SMOOTH"
);
}
);
width = 431;
},
{
layerId = "DD439194-7281-4DC7-85BF-0C2680351E76";
paths = (
{
closed = 1;
nodes = (
"140 500 LINE SMOOTH",
"94 500 OFFCURVE",
"70 476 OFFCURVE",
"70 430 CURVE SMOOTH",
"70 35 LINE SMOOTH",
"70 12 OFFCURVE",
"82 0 OFFCURVE",
"105 0 CURVE SMOOTH",
"106 0 LINE SMOOTH",
"129 0 OFFCURVE",
"141 12 OFFCURVE",
"141 35 CURVE SMOOTH",
"141 411 LINE SMOOTH",
"141 423 OFFCURVE",
"147 429 OFFCURVE",
"159 429 CURVE SMOOTH",
"351 429 LINE SMOOTH",
"374 429 OFFCURVE",
"386 441 OFFCURVE",
"386 464 CURVE SMOOTH",
"386 465 LINE SMOOTH",
"386 488 OFFCURVE",
"374 500 OFFCURVE",
"351 500 CURVE SMOOTH"
);
}
);
width = 426;
}
);
unicode = 0072;
},
{
glyphname = s;
lastChange = "2019-11-15 19:26:25 +0000";
layers = (
{
layerId = "E2857279-2EBA-495B-814E-9CD52C7A5F8C";
paths = (
{
closed = 1;
nodes = (
"383 225 LINE",
"383 225 OFFCURVE",
"383 225 OFFCURVE",
"383 225 CURVE",
"383 71 LINE",
"383 71 OFFCURVE",
"383 71 OFFCURVE",
"383 71 CURVE SMOOTH",
"131 71 LINE SMOOTH",
"131 71 OFFCURVE",
"131 71 OFFCURVE",
"131 71 CURVE SMOOTH",
"131 137 LINE SMOOTH",
"131 137 OFFCURVE",
"131 137 OFFCURVE",
"131 137 CURVE SMOOTH",
"60 137 LINE SMOOTH",
"60 137 OFFCURVE",
"60 137 OFFCURVE",
"60 137 CURVE SMOOTH",
"60 0 LINE SMOOTH",
"60 0 OFFCURVE",
"60 0 OFFCURVE",
"60 0 CURVE SMOOTH",
"454 0 LINE SMOOTH",
"454 0 OFFCURVE",
"454 0 OFFCURVE",
"454 0 CURVE SMOOTH",
"454 296 LINE SMOOTH",
"454 296 OFFCURVE",
"454 296 OFFCURVE",
"454 296 CURVE SMOOTH",
"131 296 LINE SMOOTH",
"131 296 OFFCURVE",
"131 296 OFFCURVE",
"131 296 CURVE SMOOTH",
"131 429 LINE SMOOTH",
"131 429 OFFCURVE",
"131 429 OFFCURVE",
"131 429 CURVE SMOOTH",
"383 429 LINE SMOOTH",
"383 429 OFFCURVE",
"383 429 OFFCURVE",
"383 429 CURVE SMOOTH",
"383 358 LINE SMOOTH",
"383 358 OFFCURVE",
"383 358 OFFCURVE",
"383 358 CURVE SMOOTH",
"454 358 LINE SMOOTH",
"454 358 OFFCURVE",
"454 358 OFFCURVE",
"454 358 CURVE SMOOTH",
"454 500 LINE SMOOTH",
"454 500 OFFCURVE",
"454 500 OFFCURVE",
"454 500 CURVE SMOOTH",
"60 500 LINE SMOOTH",
"60 500 OFFCURVE",
"60 500 OFFCURVE",
"60 500 CURVE SMOOTH",
"60 225 LINE SMOOTH",
"60 225 OFFCURVE",
"60 225 OFFCURVE",
"60 225 CURVE"
);
}
);
width = 514;
},
{
layerId = "DD439194-7281-4DC7-85BF-0C2680351E76";
paths = (
{
closed = 1;
nodes = (
"365 225 LINE",
"377 225 OFFCURVE",
"383 219 OFFCURVE",
"383 207 CURVE",
"383 89 LINE",
"383 77 OFFCURVE",
"377 71 OFFCURVE",
"365 71 CURVE SMOOTH",
"149 71 LINE SMOOTH",
"139 71 OFFCURVE",
"131 79 OFFCURVE",
"131 89 CURVE SMOOTH",
"131 102 LINE SMOOTH",
"131 125 OFFCURVE",
"119 137 OFFCURVE",
"96 137 CURVE SMOOTH",
"95 137 LINE SMOOTH",
"72 137 OFFCURVE",
"60 125 OFFCURVE",
"60 102 CURVE SMOOTH",
"60 70 LINE SMOOTH",
"60 24 OFFCURVE",
"84 0 OFFCURVE",
"130 0 CURVE SMOOTH",
"384 0 LINE SMOOTH",
"430 0 OFFCURVE",
"454 24 OFFCURVE",
"454 70 CURVE SMOOTH",
"454 226 LINE SMOOTH",
"454 272 OFFCURVE",
"430 296 OFFCURVE",
"384 296 CURVE SMOOTH",
"149 296 LINE SMOOTH",
"137 296 OFFCURVE",
"131 302 OFFCURVE",
"131 314 CURVE SMOOTH",
"131 411 LINE SMOOTH",
"131 423 OFFCURVE",
"137 429 OFFCURVE",
"149 429 CURVE SMOOTH",
"365 429 LINE SMOOTH",
"377 429 OFFCURVE",
"383 423 OFFCURVE",
"383 411 CURVE SMOOTH",
"383 393 LINE SMOOTH",
"383 370 OFFCURVE",
"395 358 OFFCURVE",
"418 358 CURVE SMOOTH",
"419 358 LINE SMOOTH",
"442 358 OFFCURVE",
"454 370 OFFCURVE",
"454 393 CURVE SMOOTH",
"454 430 LINE SMOOTH",
"454 476 OFFCURVE",
"430 500 OFFCURVE",
"384 500 CURVE SMOOTH",
"130 500 LINE SMOOTH",
"84 500 OFFCURVE",
"60 476 OFFCURVE",
"60 430 CURVE SMOOTH",
"60 295 LINE SMOOTH",
"60 249 OFFCURVE",
"84 225 OFFCURVE",
"130 225 CURVE"
);
}
);
width = 514;
}
);
unicode = 0073;
},
{
glyphname = t;
lastChange = "2019-11-15 18:22:39 +0000";
layers = (
{
layerId = "E2857279-2EBA-495B-814E-9CD52C7A5F8C";
paths = (
{
closed = 1;
nodes = (
"346 430 OFFCURVE",
"346 430 OFFCURVE",
"346 430 CURVE SMOOTH",
"346 501 LINE SMOOTH",
"346 501 OFFCURVE",
"346 501 OFFCURVE",
"346 501 CURVE SMOOTH",
"201 501 LINE",
"201 750 LINE SMOOTH",
"201 750 OFFCURVE",
"201 750 OFFCURVE",
"201 750 CURVE SMOOTH",
"130 750 LINE SMOOTH",
"130 750 OFFCURVE",
"130 750 OFFCURVE",
"130 750 CURVE SMOOTH",
"130 0 LINE",
"130 0 OFFCURVE",
"130 0 OFFCURVE",
"130 0 CURVE SMOOTH",
"201 0 LINE SMOOTH",
"201 0 OFFCURVE",
"201 0 OFFCURVE",
"201 0 CURVE",
"201 167 OFFCURVE",
"201 311 OFFCURVE",
"201 430 CURVE",
"346 430 LINE SMOOTH"
);
},
{
closed = 1;
nodes = (
"45 430 LINE SMOOTH",
"45 430 OFFCURVE",
"45 430 OFFCURVE",
"45 430 CURVE SMOOTH",
"45 501 LINE SMOOTH",
"45 501 OFFCURVE",
"45 501 OFFCURVE",
"45 501 CURVE SMOOTH",
"130 501 LINE",
"130 430 LINE"
);
}
);
width = 391;
},
{
layerId = "DD439194-7281-4DC7-85BF-0C2680351E76";
paths = (
{
closed = 1;
nodes = (
"329 430 OFFCURVE",
"341 442 OFFCURVE",
"341 465 CURVE SMOOTH",
"341 466 LINE SMOOTH",
"341 489 OFFCURVE",
"329 501 OFFCURVE",
"306 501 CURVE SMOOTH",
"196 501 LINE",
"196 715 LINE SMOOTH",
"196 738 OFFCURVE",
"184 750 OFFCURVE",
"161 750 CURVE SMOOTH",
"160 750 LINE SMOOTH",
"137 750 OFFCURVE",
"125 738 OFFCURVE",
"125 715 CURVE SMOOTH",
"125 35 LINE",
"125 16 OFFCURVE",
"137 0 OFFCURVE",
"160 0 CURVE SMOOTH",
"161 0 LINE SMOOTH",
"184 0 OFFCURVE",
"196 12 OFFCURVE",
"196 35 CURVE",
"196 202 OFFCURVE",
"196 311 OFFCURVE",
"196 430 CURVE",
"306 430 LINE SMOOTH"
);
},
{
closed = 1;
nodes = (
"75 430 LINE SMOOTH",
"52 430 OFFCURVE",
"40 442 OFFCURVE",
"40 465 CURVE SMOOTH",
"40 466 LINE SMOOTH",
"40 489 OFFCURVE",
"52 501 OFFCURVE",
"75 501 CURVE SMOOTH",
"125 501 LINE",
"125 430 LINE"
);
}
);
width = 381;
},
{
associatedMasterId = "DD439194-7281-4DC7-85BF-0C2680351E76";
layerId = "1DC7562E-0B90-4D40-87F2-9F00C6BFBF44";
name = "Nov 14 19, 13:19";
paths = (
{
closed = 1;
nodes = (
"264 429 OFFCURVE",
"276 441 OFFCURVE",
"276 464 CURVE SMOOTH",
"276 465 LINE SMOOTH",
"276 488 OFFCURVE",
"264 500 OFFCURVE",
"241 500 CURVE SMOOTH",
"221 500 LINE",
"221 665 LINE SMOOTH",
"221 688 OFFCURVE",
"209 700 OFFCURVE",
"186 700 CURVE SMOOTH",
"185 700 LINE SMOOTH",
"162 700 OFFCURVE",
"150 688 OFFCURVE",
"150 665 CURVE SMOOTH",
"150 70 LINE SMOOTH",
"150 24 OFFCURVE",
"174 0 OFFCURVE",
"220 0 CURVE SMOOTH",
"260 0 LINE",
"306 0 OFFCURVE",
"330 24 OFFCURVE",
"329 70 CURVE",
"329 90 LINE SMOOTH",
"329 109 OFFCURVE",
"317 125 OFFCURVE",
"294 125 CURVE SMOOTH",
"293 125 LINE SMOOTH",
"270 125 OFFCURVE",
"258 113 OFFCURVE",
"258 90 CURVE",
"258 89 LINE",
"258 77 OFFCURVE",
"252 71 OFFCURVE",
"240 71 CURVE",
"239 71 LINE",
"227 71 OFFCURVE",
"221 77 OFFCURVE",
"221 89 CURVE",
"221 207 OFFCURVE",
"221 311 OFFCURVE",
"221 429 CURVE",
"241 429 LINE SMOOTH"
);
}
);
width = 371;
}
);
unicode = 0074;
},
{
glyphname = u;
lastChange = "2019-11-15 13:55:24 +0000";
layers = (
{
layerId = "E2857279-2EBA-495B-814E-9CD52C7A5F8C";
paths = (
{
closed = 1;
nodes = (
"464 0 OFFCURVE",
"464 0 OFFCURVE",
"464 0 CURVE",
"464 500 LINE SMOOTH",
"464 500 OFFCURVE",
"464 500 OFFCURVE",
"464 500 CURVE SMOOTH",
"393 500 LINE SMOOTH",
"393 500 OFFCURVE",
"393 500 OFFCURVE",
"393 500 CURVE",
"393 71 LINE",
"393 71 OFFCURVE",
"393 71 OFFCURVE",
"393 71 CURVE",
"141 71 LINE",
"141 71 OFFCURVE",
"141 71 OFFCURVE",
"141 71 CURVE SMOOTH",
"141 500 LINE SMOOTH",
"141 500 OFFCURVE",
"141 500 OFFCURVE",
"141 500 CURVE SMOOTH",
"70 500 LINE SMOOTH",
"70 500 OFFCURVE",
"70 500 OFFCURVE",
"70 500 CURVE SMOOTH",
"70 0 LINE SMOOTH",
"70 0 OFFCURVE",
"70 0 OFFCURVE",
"70 0 CURVE SMOOTH",
"464 0 LINE"
);
}
);
width = 534;
},
{
layerId = "DD439194-7281-4DC7-85BF-0C2680351E76";
paths = (
{
closed = 1;
nodes = (
"445 0 OFFCURVE",
"469 24 OFFCURVE",
"469 70 CURVE",
"469 465 LINE SMOOTH",
"469 488 OFFCURVE",
"457 500 OFFCURVE",
"434 500 CURVE SMOOTH",
"433 500 LINE SMOOTH",
"410 500 OFFCURVE",
"398 488 OFFCURVE",
"398 465 CURVE",
"398 89 LINE",
"398 77 OFFCURVE",
"392 71 OFFCURVE",
"380 71 CURVE",
"164 71 LINE",
"152 71 OFFCURVE",
"146 77 OFFCURVE",
"146 89 CURVE SMOOTH",
"146 465 LINE SMOOTH",
"146 488 OFFCURVE",
"134 500 OFFCURVE",
"111 500 CURVE SMOOTH",
"110 500 LINE SMOOTH",
"87 500 OFFCURVE",
"75 488 OFFCURVE",
"75 465 CURVE SMOOTH",
"75 70 LINE SMOOTH",
"75 24 OFFCURVE",
"99 0 OFFCURVE",
"145 0 CURVE SMOOTH",
"399 0 LINE"
);
}
);
width = 544;
}
);
unicode = 0075;
},
{
glyphname = v;
lastChange = "2019-11-15 19:01:04 +0000";
layers = (
{
layerId = "E2857279-2EBA-495B-814E-9CD52C7A5F8C";
paths = (
{
closed = 1;
nodes = (
"393 500 LINE SMOOTH",
"393 500 OFFCURVE",
"393 500 OFFCURVE",
"393 500 CURVE SMOOTH",
"393 214 LINE SMOOTH",
"393 214 OFFCURVE",
"393 214 OFFCURVE",
"393 214 CURVE SMOOTH",
"303 214 LINE SMOOTH",
"303 214 OFFCURVE",
"303 214 OFFCURVE",
"303 214 CURVE SMOOTH",
"303 70 LINE SMOOTH",
"303 70 OFFCURVE",
"303 70 OFFCURVE",
"303 70 CURVE SMOOTH",
"231 70 LINE SMOOTH",
"231 70 OFFCURVE",
"231 70 OFFCURVE",
"231 70 CURVE SMOOTH",
"231 214 LINE SMOOTH",
"231 214 OFFCURVE",
"231 214 OFFCURVE",
"231 214 CURVE SMOOTH",
"141 214 LINE SMOOTH",
"141 214 OFFCURVE",
"141 214 OFFCURVE",
"141 214 CURVE SMOOTH",
"141 500 LINE SMOOTH",
"141 500 OFFCURVE",
"141 500 OFFCURVE",
"141 500 CURVE SMOOTH",
"70 500 LINE SMOOTH",
"70 500 OFFCURVE",
"70 500 OFFCURVE",
"70 500 CURVE SMOOTH",
"70 143 LINE SMOOTH",
"70 143 OFFCURVE",
"70 143 OFFCURVE",
"70 143 CURVE SMOOTH",
"160 143 LINE",
"160 0 LINE SMOOTH",
"160 0 OFFCURVE",
"160 0 OFFCURVE",
"160 0 CURVE SMOOTH",
"374 0 LINE SMOOTH",
"374 0 OFFCURVE",
"374 0 OFFCURVE",
"374 0 CURVE SMOOTH",
"374 143 LINE",
"464 143 LINE SMOOTH",
"464 143 OFFCURVE",
"464 143 OFFCURVE",
"464 143 CURVE SMOOTH",
"464 500 LINE SMOOTH",
"464 500 OFFCURVE",
"464 500 OFFCURVE",
"464 500 CURVE SMOOTH"
);
}
);
width = 534;
},
{
layerId = "DD439194-7281-4DC7-85BF-0C2680351E76";
paths = (
{
closed = 1;
nodes = (
"433 500 LINE SMOOTH",
"410 500 OFFCURVE",
"398 488 OFFCURVE",
"398 465 CURVE SMOOTH",
"398 232 LINE",
"398 88 LINE",
"398 76 OFFCURVE",
"392 70 OFFCURVE",
"380 70 CURVE SMOOTH",
"324 70 LINE SMOOTH",
"312 70 OFFCURVE",
"306 76 OFFCURVE",
"306 88 CURVE SMOOTH",
"306 179 LINE SMOOTH",
"306 202 OFFCURVE",
"294 214 OFFCURVE",
"271 214 CURVE SMOOTH",
"164 214 LINE SMOOTH",
"152 214 OFFCURVE",
"146 220 OFFCURVE",
"146 232 CURVE SMOOTH",
"146 465 LINE SMOOTH",
"146 488 OFFCURVE",
"134 500 OFFCURVE",
"111 500 CURVE SMOOTH",
"110 500 LINE SMOOTH",
"87 500 OFFCURVE",
"75 488 OFFCURVE",
"75 465 CURVE SMOOTH",
"75 213 LINE SMOOTH",
"75 167 OFFCURVE",
"99 143 OFFCURVE",
"145 143 CURVE SMOOTH",
"235 143 LINE",
"235 69 LINE SMOOTH",
"235 23 OFFCURVE",
"259 -1 OFFCURVE",
"305 -1 CURVE SMOOTH",
"399 -1 LINE SMOOTH",
"445 -1 OFFCURVE",
"469 23 OFFCURVE",
"469 69 CURVE",
"469 213 LINE",
"469 465 LINE SMOOTH",
"469 488 OFFCURVE",
"457 500 OFFCURVE",
"434 500 CURVE SMOOTH"
);
}
);
width = 544;
},
{
associatedMasterId = "DD439194-7281-4DC7-85BF-0C2680351E76";
layerId = "2FC62A33-8A0C-41D2-923E-8948FF676545";
name = "Nov 15 19, 19:56";
paths = (
{
closed = 1;
nodes = (
"433 500 LINE SMOOTH",
"410 500 OFFCURVE",
"398 488 OFFCURVE",
"398 465 CURVE SMOOTH",
"398 232 LINE SMOOTH",
"398 220 OFFCURVE",
"392 214 OFFCURVE",
"380 214 CURVE SMOOTH",
"343 214 LINE SMOOTH",
"320 214 OFFCURVE",
"308 202 OFFCURVE",
"308 179 CURVE SMOOTH",
"308 88 LINE SMOOTH",
"308 76 OFFCURVE",
"302 70 OFFCURVE",
"290 70 CURVE SMOOTH",
"254 70 LINE SMOOTH",
"242 70 OFFCURVE",
"236 76 OFFCURVE",
"236 88 CURVE SMOOTH",
"236 179 LINE SMOOTH",
"236 202 OFFCURVE",
"224 214 OFFCURVE",
"201 214 CURVE SMOOTH",
"164 214 LINE SMOOTH",
"152 214 OFFCURVE",
"146 220 OFFCURVE",
"146 232 CURVE SMOOTH",
"146 465 LINE SMOOTH",
"146 488 OFFCURVE",
"134 500 OFFCURVE",
"111 500 CURVE SMOOTH",
"110 500 LINE SMOOTH",
"87 500 OFFCURVE",
"75 488 OFFCURVE",
"75 465 CURVE SMOOTH",
"75 213 LINE SMOOTH",
"75 167 OFFCURVE",
"99 143 OFFCURVE",
"145 143 CURVE SMOOTH",
"165 143 LINE",
"165 69 LINE SMOOTH",
"165 23 OFFCURVE",
"189 -1 OFFCURVE",
"235 -1 CURVE SMOOTH",
"309 -1 LINE SMOOTH",
"355 -1 OFFCURVE",
"379 23 OFFCURVE",
"379 69 CURVE SMOOTH",
"379 143 LINE",
"399 143 LINE SMOOTH",
"445 143 OFFCURVE",
"469 167 OFFCURVE",
"469 213 CURVE SMOOTH",
"469 465 LINE SMOOTH",
"469 488 OFFCURVE",
"457 500 OFFCURVE",
"434 500 CURVE SMOOTH"
);
}
);
width = 544;
}
);
unicode = 0076;
},
{
glyphname = w;
lastChange = "2019-11-15 18:47:52 +0000";
layers = (
{
layerId = "E2857279-2EBA-495B-814E-9CD52C7A5F8C";
width = 600;
},
{
layerId = "DD439194-7281-4DC7-85BF-0C2680351E76";
paths = (
{
closed = 1;
nodes = (
"676 500 LINE SMOOTH",
"653 500 OFFCURVE",
"641 488 OFFCURVE",
"641 465 CURVE SMOOTH",
"641 232 LINE SMOOTH",
"641 220 OFFCURVE",
"635 214 OFFCURVE",
"623 214 CURVE SMOOTH",
"586 214 LINE SMOOTH",
"563 214 OFFCURVE",
"551 202 OFFCURVE",
"551 179 CURVE SMOOTH",
"551 88 LINE SMOOTH",
"551 76 OFFCURVE",
"545 70 OFFCURVE",
"533 70 CURVE SMOOTH",
"497 70 LINE SMOOTH",
"485 70 OFFCURVE",
"479 76 OFFCURVE",
"479 88 CURVE SMOOTH",
"479 179 LINE SMOOTH",
"479 202 OFFCURVE",
"467 214 OFFCURVE",
"444 214 CURVE",
"343 214 LINE",
"320 214 OFFCURVE",
"308 202 OFFCURVE",
"308 179 CURVE SMOOTH",
"308 88 LINE SMOOTH",
"308 76 OFFCURVE",
"302 70 OFFCURVE",
"290 70 CURVE SMOOTH",
"254 70 LINE SMOOTH",
"242 70 OFFCURVE",
"236 76 OFFCURVE",
"236 88 CURVE SMOOTH",
"236 179 LINE SMOOTH",
"236 202 OFFCURVE",
"224 214 OFFCURVE",
"201 214 CURVE SMOOTH",
"164 214 LINE SMOOTH",
"152 214 OFFCURVE",
"146 220 OFFCURVE",
"146 232 CURVE SMOOTH",
"146 465 LINE SMOOTH",
"146 488 OFFCURVE",
"134 500 OFFCURVE",
"111 500 CURVE SMOOTH",
"110 500 LINE SMOOTH",
"87 500 OFFCURVE",
"75 488 OFFCURVE",
"75 465 CURVE SMOOTH",
"75 213 LINE SMOOTH",
"75 167 OFFCURVE",
"99 143 OFFCURVE",
"145 143 CURVE SMOOTH",
"165 143 LINE",
"165 69 LINE SMOOTH",
"165 23 OFFCURVE",
"189 -1 OFFCURVE",
"235 -1 CURVE SMOOTH",
"309 -1 LINE SMOOTH",
"355 -1 OFFCURVE",
"379 23 OFFCURVE",
"379 69 CURVE SMOOTH",
"379 143 LINE",
"408 143 LINE",
"408 69 LINE SMOOTH",
"408 23 OFFCURVE",
"432 -1 OFFCURVE",
"478 -1 CURVE SMOOTH",
"552 -1 LINE SMOOTH",
"598 -1 OFFCURVE",
"622 23 OFFCURVE",
"622 69 CURVE SMOOTH",
"622 143 LINE",
"642 143 LINE SMOOTH",
"688 143 OFFCURVE",
"712 167 OFFCURVE",
"712 213 CURVE SMOOTH",
"712 465 LINE SMOOTH",
"712 488 OFFCURVE",
"700 500 OFFCURVE",
"677 500 CURVE SMOOTH"
);
}
);
width = 867;
},
{
associatedMasterId = "DD439194-7281-4DC7-85BF-0C2680351E76";
layerId = "1FB9A9DC-404C-4383-AC03-AA1FDC142BCE";
name = "Nov 15 19, 19:47";
paths = (
{
closed = 1;
nodes = (
"756 500 LINE SMOOTH",
"733 500 OFFCURVE",
"721 488 OFFCURVE",
"721 465 CURVE SMOOTH",
"721 232 LINE SMOOTH",
"721 220 OFFCURVE",
"715 214 OFFCURVE",
"703 214 CURVE SMOOTH",
"666 214 LINE SMOOTH",
"643 214 OFFCURVE",
"631 202 OFFCURVE",
"631 179 CURVE SMOOTH",
"631 88 LINE SMOOTH",
"631 76 OFFCURVE",
"625 70 OFFCURVE",
"613 70 CURVE SMOOTH",
"577 70 LINE SMOOTH",
"565 70 OFFCURVE",
"559 76 OFFCURVE",
"559 88 CURVE SMOOTH",
"559 179 LINE SMOOTH",
"559 202 OFFCURVE",
"547 214 OFFCURVE",
"524 214 CURVE SMOOTH",
"487 214 LINE SMOOTH",
"475 214 OFFCURVE",
"469 220 OFFCURVE",
"469 232 CURVE SMOOTH",
"469 325 LINE SMOOTH",
"469 348 OFFCURVE",
"457 360 OFFCURVE",
"434 360 CURVE SMOOTH",
"433 360 LINE SMOOTH",
"410 360 OFFCURVE",
"398 348 OFFCURVE",
"398 325 CURVE SMOOTH",
"398 232 LINE SMOOTH",
"398 220 OFFCURVE",
"392 214 OFFCURVE",
"380 214 CURVE SMOOTH",
"343 214 LINE SMOOTH",
"320 214 OFFCURVE",
"308 202 OFFCURVE",
"308 179 CURVE SMOOTH",
"308 88 LINE SMOOTH",
"308 76 OFFCURVE",
"302 70 OFFCURVE",
"290 70 CURVE SMOOTH",
"254 70 LINE SMOOTH",
"242 70 OFFCURVE",
"236 76 OFFCURVE",
"236 88 CURVE SMOOTH",
"236 179 LINE SMOOTH",
"236 202 OFFCURVE",
"224 214 OFFCURVE",
"201 214 CURVE SMOOTH",
"164 214 LINE SMOOTH",
"152 214 OFFCURVE",
"146 220 OFFCURVE",
"146 232 CURVE SMOOTH",
"146 465 LINE SMOOTH",
"146 488 OFFCURVE",
"134 500 OFFCURVE",
"111 500 CURVE SMOOTH",
"110 500 LINE SMOOTH",
"87 500 OFFCURVE",
"75 488 OFFCURVE",
"75 465 CURVE SMOOTH",
"75 213 LINE SMOOTH",
"75 167 OFFCURVE",
"99 143 OFFCURVE",
"145 143 CURVE SMOOTH",
"165 143 LINE",
"165 69 LINE SMOOTH",
"165 23 OFFCURVE",
"189 -1 OFFCURVE",
"235 -1 CURVE SMOOTH",
"309 -1 LINE SMOOTH",
"355 -1 OFFCURVE",
"379 23 OFFCURVE",
"379 69 CURVE SMOOTH",
"379 143 LINE",
"488 143 LINE",
"488 69 LINE SMOOTH",
"488 23 OFFCURVE",
"512 -1 OFFCURVE",
"558 -1 CURVE SMOOTH",
"632 -1 LINE SMOOTH",
"678 -1 OFFCURVE",
"702 23 OFFCURVE",
"702 69 CURVE SMOOTH",
"702 143 LINE",
"722 143 LINE SMOOTH",
"768 143 OFFCURVE",
"792 167 OFFCURVE",
"792 213 CURVE SMOOTH",
"792 465 LINE SMOOTH",
"792 488 OFFCURVE",
"780 500 OFFCURVE",
"757 500 CURVE SMOOTH"
);
}
);
width = 867;
}
);
unicode = 0077;
},
{
glyphname = x;
lastChange = "2019-11-15 18:11:40 +0000";
layers = (
{
layerId = "E2857279-2EBA-495B-814E-9CD52C7A5F8C";
paths = (
{
closed = 1;
nodes = (
"359 296 LINE",
"359 500 LINE SMOOTH",
"359 500 OFFCURVE",
"359 500 OFFCURVE",
"359 500 CURVE SMOOTH",
"288 500 LINE SMOOTH",
"288 500 OFFCURVE",
"288 500 OFFCURVE",
"288 500 CURVE SMOOTH",
"288 297 LINE",
"206 297 LINE",
"206 500 LINE SMOOTH",
"206 500 OFFCURVE",
"206 500 OFFCURVE",
"206 500 CURVE SMOOTH",
"135 500 LINE SMOOTH",
"135 500 OFFCURVE",
"135 500 OFFCURVE",
"135 500 CURVE SMOOTH",
"135 296 LINE",
"50 296 LINE SMOOTH",
"50 296 OFFCURVE",
"50 296 OFFCURVE",
"50 296 CURVE SMOOTH",
"50 0 LINE SMOOTH",
"50 0 OFFCURVE",
"50 0 OFFCURVE",
"50 0 CURVE SMOOTH",
"121 0 LINE SMOOTH",
"121 0 OFFCURVE",
"121 0 OFFCURVE",
"121 0 CURVE SMOOTH",
"121 225 LINE SMOOTH",
"121 225 OFFCURVE",
"121 225 OFFCURVE",
"121 225 CURVE SMOOTH",
"373 225 LINE SMOOTH",
"373 225 OFFCURVE",
"373 225 OFFCURVE",
"373 225 CURVE SMOOTH",
"373 0 LINE SMOOTH",
"373 0 OFFCURVE",
"373 0 OFFCURVE",
"373 0 CURVE SMOOTH",
"444 0 LINE SMOOTH",
"444 0 OFFCURVE",
"444 0 OFFCURVE",
"444 0 CURVE SMOOTH",
"444 296 LINE SMOOTH",
"444 296 OFFCURVE",
"444 296 OFFCURVE",
"444 296 CURVE SMOOTH"
);
}
);
width = 494;
},
{
layerId = "DD439194-7281-4DC7-85BF-0C2680351E76";
paths = (
{
closed = 1;
nodes = (
"359 296 LINE",
"359 465 LINE SMOOTH",
"359 488 OFFCURVE",
"347 500 OFFCURVE",
"324 500 CURVE SMOOTH",
"323 500 LINE SMOOTH",
"300 500 OFFCURVE",
"288 488 OFFCURVE",
"288 465 CURVE SMOOTH",
"288 297 LINE",
"206 297 LINE",
"206 465 LINE SMOOTH",
"206 488 OFFCURVE",
"194 500 OFFCURVE",
"171 500 CURVE SMOOTH",
"170 500 LINE SMOOTH",
"147 500 OFFCURVE",
"135 488 OFFCURVE",
"135 465 CURVE SMOOTH",
"135 296 LINE",
"120 296 LINE SMOOTH",
"74 296 OFFCURVE",
"50 272 OFFCURVE",
"50 226 CURVE SMOOTH",
"50 35 LINE SMOOTH",
"50 12 OFFCURVE",
"62 0 OFFCURVE",
"85 0 CURVE SMOOTH",
"86 0 LINE SMOOTH",
"109 0 OFFCURVE",
"121 12 OFFCURVE",
"121 35 CURVE SMOOTH",
"121 207 LINE SMOOTH",
"121 219 OFFCURVE",
"127 225 OFFCURVE",
"139 225 CURVE SMOOTH",
"355 225 LINE SMOOTH",
"367 225 OFFCURVE",
"373 219 OFFCURVE",
"373 207 CURVE SMOOTH",
"373 35 LINE SMOOTH",
"373 12 OFFCURVE",
"385 0 OFFCURVE",
"408 0 CURVE SMOOTH",
"409 0 LINE SMOOTH",
"432 0 OFFCURVE",
"444 12 OFFCURVE",
"444 35 CURVE SMOOTH",
"444 226 LINE SMOOTH",
"444 272 OFFCURVE",
"420 296 OFFCURVE",
"374 296 CURVE SMOOTH"
);
}
);
width = 494;
}
);
unicode = 0078;
},
{
glyphname = y;
lastChange = "2019-11-15 19:27:36 +0000";
layers = (
{
layerId = "E2857279-2EBA-495B-814E-9CD52C7A5F8C";
width = 600;
},
{
layerId = "DD439194-7281-4DC7-85BF-0C2680351E76";
paths = (
{
closed = 1;
nodes = (
"428 500 LINE SMOOTH",
"405 500 OFFCURVE",
"393 488 OFFCURVE",
"393 465 CURVE SMOOTH",
"393 70 LINE",
"159 70 LINE",
"147 70 OFFCURVE",
"141 76 OFFCURVE",
"141 88 CURVE SMOOTH",
"141 465 LINE SMOOTH",
"141 488 OFFCURVE",
"129 500 OFFCURVE",
"106 500 CURVE SMOOTH",
"105 500 LINE SMOOTH",
"82 500 OFFCURVE",
"70 488 OFFCURVE",
"70 465 CURVE SMOOTH",
"70 70 LINE SMOOTH",
"70 24 OFFCURVE",
"94 0 OFFCURVE",
"140 0 CURVE SMOOTH",
"464 0 LINE",
"464 213 LINE",
"464 465 LINE SMOOTH",
"464 488 OFFCURVE",
"452 500 OFFCURVE",
"429 500 CURVE SMOOTH"
);
},
{
closed = 1;
nodes = (
"464 465 LINE SMOOTH",
"464 488 OFFCURVE",
"452 500 OFFCURVE",
"429 500 CURVE SMOOTH",
"428 500 LINE SMOOTH",
"405 500 OFFCURVE",
"393 488 OFFCURVE",
"393 465 CURVE SMOOTH",
"393 -215 LINE SMOOTH",
"393 -238 OFFCURVE",
"405 -250 OFFCURVE",
"428 -250 CURVE SMOOTH",
"429 -250 LINE SMOOTH",
"452 -250 OFFCURVE",
"464 -238 OFFCURVE",
"464 -215 CURVE"
);
}
);
width = 544;
}
);
unicode = 0079;
},
{
glyphname = z;
lastChange = "2019-11-15 19:18:38 +0000";
layers = (
{
associatedMasterId = "DD439194-7281-4DC7-85BF-0C2680351E76";
layerId = "6AA07CDD-DC82-4CD6-9C18-19260C68EAF4";
name = "Nov 15 19, 16:43";
paths = (
{
closed = 1;
nodes = (
"430 225 OFFCURVE",
"454 249 OFFCURVE",
"454 295 CURVE SMOOTH",
"454 430 LINE SMOOTH",
"454 476 OFFCURVE",
"430 500 OFFCURVE",
"384 500 CURVE SMOOTH",
"95 500 LINE",
"72 500 OFFCURVE",
"60 488 OFFCURVE",
"60 465 CURVE SMOOTH",
"60 464 LINE SMOOTH",
"60 441 OFFCURVE",
"72 429 OFFCURVE",
"95 429 CURVE",
"365 429 LINE SMOOTH",
"377 429 OFFCURVE",
"383 423 OFFCURVE",
"383 411 CURVE SMOOTH",
"383 314 LINE SMOOTH",
"383 301 OFFCURVE",
"377 296 OFFCURVE",
"365 296 CURVE SMOOTH",
"130 296 LINE SMOOTH",
"84 296 OFFCURVE",
"60 272 OFFCURVE",
"60 226 CURVE SMOOTH",
"60 70 LINE SMOOTH",
"60 24 OFFCURVE",
"84 0 OFFCURVE",
"130 0 CURVE SMOOTH",
"419 0 LINE",
"442 0 OFFCURVE",
"454 12 OFFCURVE",
"454 35 CURVE SMOOTH",
"454 36 LINE SMOOTH",
"454 59 OFFCURVE",
"442 71 OFFCURVE",
"419 71 CURVE",
"149 71 LINE SMOOTH",
"137 71 OFFCURVE",
"131 77 OFFCURVE",
"131 89 CURVE",
"131 207 LINE",
"131 219 OFFCURVE",
"137 225 OFFCURVE",
"149 225 CURVE",
"384 225 LINE"
);
}
);
width = 514;
},
{
layerId = "DD439194-7281-4DC7-85BF-0C2680351E76";
paths = (
{
closed = 1;
nodes = (
"430 225 OFFCURVE",
"454 249 OFFCURVE",
"454 295 CURVE SMOOTH",
"454 430 LINE SMOOTH",
"454 476 OFFCURVE",
"430 500 OFFCURVE",
"384 500 CURVE SMOOTH",
"130 500 LINE SMOOTH",
"84 500 OFFCURVE",
"60 476 OFFCURVE",
"60 430 CURVE SMOOTH",
"60 393 LINE SMOOTH",
"60 370 OFFCURVE",
"72 358 OFFCURVE",
"95 358 CURVE SMOOTH",
"96 358 LINE SMOOTH",
"119 358 OFFCURVE",
"131 370 OFFCURVE",
"131 393 CURVE SMOOTH",
"131 411 LINE SMOOTH",
"131 423 OFFCURVE",
"137 429 OFFCURVE",
"149 429 CURVE SMOOTH",
"365 429 LINE SMOOTH",
"377 429 OFFCURVE",
"383 423 OFFCURVE",
"383 411 CURVE SMOOTH",
"383 314 LINE SMOOTH",
"383 302 OFFCURVE",
"377 296 OFFCURVE",
"365 296 CURVE SMOOTH",
"130 296 LINE SMOOTH",
"84 296 OFFCURVE",
"60 272 OFFCURVE",
"60 226 CURVE SMOOTH",
"60 70 LINE SMOOTH",
"60 24 OFFCURVE",
"84 0 OFFCURVE",
"130 0 CURVE SMOOTH",
"384 0 LINE SMOOTH",
"430 0 OFFCURVE",
"454 24 OFFCURVE",
"454 70 CURVE SMOOTH",
"454 102 LINE SMOOTH",
"454 125 OFFCURVE",
"442 137 OFFCURVE",
"419 137 CURVE SMOOTH",
"418 137 LINE SMOOTH",
"395 137 OFFCURVE",
"383 125 OFFCURVE",
"383 102 CURVE SMOOTH",
"383 89 LINE SMOOTH",
"383 77 OFFCURVE",
"377 71 OFFCURVE",
"365 71 CURVE SMOOTH",
"149 71 LINE SMOOTH",
"137 71 OFFCURVE",
"131 77 OFFCURVE",
"131 89 CURVE",
"131 207 LINE",
"131 219 OFFCURVE",
"137 225 OFFCURVE",
"149 225 CURVE",
"384 225 LINE"
);
}
);
width = 514;
},
{
associatedMasterId = "E2857279-2EBA-495B-814E-9CD52C7A5F8C";
layerId = "95F4BF39-8C7F-49A5-84B3-A147994D6E7B";
name = "Nov 15 19, 16:43";
paths = (
{
closed = 1;
nodes = (
"454 225 OFFCURVE",
"454 225 OFFCURVE",
"454 225 CURVE SMOOTH",
"454 500 LINE SMOOTH",
"454 500 OFFCURVE",
"454 500 OFFCURVE",
"454 500 CURVE SMOOTH",
"60 500 LINE SMOOTH",
"60 500 OFFCURVE",
"60 500 OFFCURVE",
"60 500 CURVE SMOOTH",
"60 358 LINE SMOOTH",
"60 358 OFFCURVE",
"60 358 OFFCURVE",
"60 358 CURVE SMOOTH",
"131 358 LINE SMOOTH",
"131 358 OFFCURVE",
"131 358 OFFCURVE",
"131 358 CURVE SMOOTH",
"131 429 LINE SMOOTH",
"131 429 OFFCURVE",
"131 429 OFFCURVE",
"131 429 CURVE SMOOTH",
"383 429 LINE SMOOTH",
"383 429 OFFCURVE",
"383 429 OFFCURVE",
"383 429 CURVE SMOOTH",
"383 296 LINE SMOOTH",
"383 296 OFFCURVE",
"383 296 OFFCURVE",
"383 296 CURVE SMOOTH",
"60 296 LINE SMOOTH",
"60 296 OFFCURVE",
"60 296 OFFCURVE",
"60 296 CURVE SMOOTH",
"60 0 LINE SMOOTH",
"60 0 OFFCURVE",
"60 0 OFFCURVE",
"60 0 CURVE SMOOTH",
"454 0 LINE SMOOTH",
"454 0 OFFCURVE",
"454 0 OFFCURVE",
"454 0 CURVE SMOOTH",
"454 137 LINE SMOOTH",
"454 137 OFFCURVE",
"454 137 OFFCURVE",
"454 137 CURVE SMOOTH",
"383 137 LINE SMOOTH",
"383 137 OFFCURVE",
"383 137 OFFCURVE",
"383 137 CURVE SMOOTH",
"383 71 LINE SMOOTH",
"383 71 OFFCURVE",
"383 71 OFFCURVE",
"383 71 CURVE SMOOTH",
"131 71 LINE SMOOTH",
"131 71 OFFCURVE",
"131 71 OFFCURVE",
"131 71 CURVE",
"131 225 LINE",
"131 225 OFFCURVE",
"131 225 OFFCURVE",
"131 225 CURVE",
"454 225 LINE"
);
}
);
width = 514;
},
{
layerId = "E2857279-2EBA-495B-814E-9CD52C7A5F8C";
paths = (
{
closed = 1;
nodes = (
"454 225 OFFCURVE",
"454 225 OFFCURVE",
"454 225 CURVE SMOOTH",
"454 500 LINE SMOOTH",
"454 500 OFFCURVE",
"454 500 OFFCURVE",
"454 500 CURVE SMOOTH",
"60 500 LINE SMOOTH",
"60 500 OFFCURVE",
"60 500 OFFCURVE",
"60 500 CURVE SMOOTH",
"60 358 LINE SMOOTH",
"60 358 OFFCURVE",
"60 358 OFFCURVE",
"60 358 CURVE SMOOTH",
"131 358 LINE SMOOTH",
"131 358 OFFCURVE",
"131 358 OFFCURVE",
"131 358 CURVE SMOOTH",
"131 429 LINE SMOOTH",
"131 429 OFFCURVE",
"131 429 OFFCURVE",
"131 429 CURVE SMOOTH",
"383 429 LINE SMOOTH",
"383 429 OFFCURVE",
"383 429 OFFCURVE",
"383 429 CURVE SMOOTH",
"383 296 LINE SMOOTH",
"383 296 OFFCURVE",
"383 296 OFFCURVE",
"383 296 CURVE SMOOTH",
"60 296 LINE SMOOTH",
"60 296 OFFCURVE",
"60 296 OFFCURVE",
"60 296 CURVE SMOOTH",
"60 0 LINE SMOOTH",
"60 0 OFFCURVE",
"60 0 OFFCURVE",
"60 0 CURVE SMOOTH",
"454 0 LINE SMOOTH",
"454 0 OFFCURVE",
"454 0 OFFCURVE",
"454 0 CURVE SMOOTH",
"454 137 LINE SMOOTH",
"454 137 OFFCURVE",
"454 137 OFFCURVE",
"454 137 CURVE SMOOTH",
"383 137 LINE SMOOTH",
"383 137 OFFCURVE",
"383 137 OFFCURVE",
"383 137 CURVE SMOOTH",
"383 71 LINE SMOOTH",
"383 71 OFFCURVE",
"383 71 OFFCURVE",
"383 71 CURVE SMOOTH",
"131 71 LINE SMOOTH",
"131 71 OFFCURVE",
"131 71 OFFCURVE",
"131 71 CURVE",
"131 225 LINE",
"131 225 OFFCURVE",
"131 225 OFFCURVE",
"131 225 CURVE",
"454 225 LINE"
);
}
);
width = 514;
}
);
unicode = 007A;
},
{
glyphname = period;
lastChange = "2019-11-15 19:08:42 +0000";
layers = (
{
layerId = "E2857279-2EBA-495B-814E-9CD52C7A5F8C";
paths = (
{
closed = 1;
nodes = (
"127 0 LINE SMOOTH",
"127 0 OFFCURVE",
"127 0 OFFCURVE",
"127 0 CURVE SMOOTH",
"127 87 LINE SMOOTH",
"127 87 OFFCURVE",
"127 87 OFFCURVE",
"127 87 CURVE SMOOTH",
"40 87 LINE SMOOTH",
"40 87 OFFCURVE",
"40 87 OFFCURVE",
"40 87 CURVE SMOOTH",
"40 0 LINE",
"40 0 OFFCURVE",
"40 0 OFFCURVE",
"40 0 CURVE"
);
}
);
width = 167;
},
{
layerId = "DD439194-7281-4DC7-85BF-0C2680351E76";
paths = (
{
closed = 1;
nodes = (
"107 0 LINE SMOOTH",
"120 0 OFFCURVE",
"127 7 OFFCURVE",
"127 20 CURVE SMOOTH",
"127 67 LINE SMOOTH",
"127 80 OFFCURVE",
"120 87 OFFCURVE",
"107 87 CURVE SMOOTH",
"60 87 LINE SMOOTH",
"47 87 OFFCURVE",
"40 80 OFFCURVE",
"40 67 CURVE SMOOTH",
"40 20 LINE",
"40 7 OFFCURVE",
"47 0 OFFCURVE",
"60 0 CURVE"
);
}
);
width = 167;
}
);
unicode = 002E;
},
{
glyphname = comma;
lastChange = "2019-11-15 19:09:00 +0000";
layers = (
{
layerId = "E2857279-2EBA-495B-814E-9CD52C7A5F8C";
paths = (
{
closed = 1;
nodes = (
"127 -87 LINE SMOOTH",
"127 -87 OFFCURVE",
"127 -87 OFFCURVE",
"127 -87 CURVE SMOOTH",
"127 87 LINE SMOOTH",
"127 87 OFFCURVE",
"127 87 OFFCURVE",
"127 87 CURVE SMOOTH",
"40 87 LINE SMOOTH",
"40 87 OFFCURVE",
"40 87 OFFCURVE",
"40 87 CURVE SMOOTH",
"40 -87 LINE",
"40 -87 OFFCURVE",
"40 -87 OFFCURVE",
"40 -87 CURVE"
);
}
);
width = 167;
},
{
layerId = "DD439194-7281-4DC7-85BF-0C2680351E76";
paths = (
{
closed = 1;
nodes = (
"107 -87 LINE SMOOTH",
"120 -87 OFFCURVE",
"127 -80 OFFCURVE",
"127 -67 CURVE SMOOTH",
"127 67 LINE SMOOTH",
"127 80 OFFCURVE",
"120 87 OFFCURVE",
"107 87 CURVE SMOOTH",
"60 87 LINE SMOOTH",
"47 87 OFFCURVE",
"40 80 OFFCURVE",
"40 67 CURVE SMOOTH",
"40 -67 LINE",
"40 -80 OFFCURVE",
"47 -87 OFFCURVE",
"60 -87 CURVE"
);
}
);
width = 167;
}
);
unicode = 002C;
},
{
glyphname = hyphen;
lastChange = "2019-11-15 19:10:15 +0000";
layers = (
{
layerId = "E2857279-2EBA-495B-814E-9CD52C7A5F8C";
paths = (
{
closed = 1;
nodes = (
"320 215 LINE SMOOTH",
"320 215 OFFCURVE",
"320 215 OFFCURVE",
"320 215 CURVE SMOOTH",
"320 286 LINE SMOOTH",
"320 286 OFFCURVE",
"320 286 OFFCURVE",
"320 286 CURVE SMOOTH",
"40 286 LINE SMOOTH",
"40 286 OFFCURVE",
"40 286 OFFCURVE",
"40 286 CURVE SMOOTH",
"40 215 LINE SMOOTH",
"40 215 OFFCURVE",
"40 215 OFFCURVE",
"40 215 CURVE"
);
}
);
width = 360;
},
{
layerId = "DD439194-7281-4DC7-85BF-0C2680351E76";
paths = (
{
closed = 1;
nodes = (
"285 215 LINE SMOOTH",
"308 215 OFFCURVE",
"320 227 OFFCURVE",
"320 250 CURVE SMOOTH",
"320 251 LINE SMOOTH",
"320 274 OFFCURVE",
"308 286 OFFCURVE",
"285 286 CURVE SMOOTH",
"74 286 LINE SMOOTH",
"51 286 OFFCURVE",
"40 274 OFFCURVE",
"40 251 CURVE SMOOTH",
"40 250 LINE SMOOTH",
"40 227 OFFCURVE",
"52 215 OFFCURVE",
"74 215 CURVE"
);
}
);
width = 360;
}
);
unicode = 002D;
},
{
export = 0;
glyphname = _corner.left_bottom;
lastChange = "2019-11-12 21:08:40 +0000";
layers = (
{
layerId = "E2857279-2EBA-495B-814E-9CD52C7A5F8C";
paths = (
{
closed = 1;
nodes = (
"294 157 OFFCURVE",
"306 145 OFFCURVE",
"329 145 CURVE",
"383 145 LINE",
"383 216 LINE",
"372 216 OFFCURVE",
"365 223 OFFCURVE",
"365 234 CURVE",
"294 234 LINE",
"294 180 LINE SMOOTH"
);
}
);
width = 600;
},
{
layerId = "DD439194-7281-4DC7-85BF-0C2680351E76";
paths = (
{
closed = 1;
nodes = (
"294 157 OFFCURVE",
"306 145 OFFCURVE",
"329 145 CURVE",
"383 145 LINE",
"383 216 LINE",
"372 216 OFFCURVE",
"365 223 OFFCURVE",
"365 234 CURVE",
"294 234 LINE",
"294 180 LINE SMOOTH"
);
}
);
width = 600;
}
);
},
{
export = 0;
glyphname = _corner.left_top;
lastChange = "2019-11-12 21:08:40 +0000";
layers = (
{
layerId = "E2857279-2EBA-495B-814E-9CD52C7A5F8C";
paths = (
{
closed = 1;
nodes = (
"294 145 LINE",
"365 145 LINE",
"365 156 OFFCURVE",
"372 163 OFFCURVE",
"383 163 CURVE",
"383 234 LINE",
"329 234 LINE",
"306 234 OFFCURVE",
"294 222 OFFCURVE",
"294 199 CURVE SMOOTH"
);
}
);
width = 600;
},
{
layerId = "DD439194-7281-4DC7-85BF-0C2680351E76";
paths = (
{
closed = 1;
nodes = (
"294 145 LINE",
"365 145 LINE",
"365 156 OFFCURVE",
"372 163 OFFCURVE",
"383 163 CURVE",
"383 234 LINE",
"329 234 LINE",
"306 234 OFFCURVE",
"294 222 OFFCURVE",
"294 199 CURVE SMOOTH"
);
}
);
width = 600;
}
);
},
{
export = 0;
glyphname = _corner.right_bottom;
lastChange = "2019-11-12 21:08:40 +0000";
layers = (
{
layerId = "E2857279-2EBA-495B-814E-9CD52C7A5F8C";
paths = (
{
closed = 1;
nodes = (
"183 234 LINE",
"112 234 LINE",
"112 223 OFFCURVE",
"105 216 OFFCURVE",
"94 216 CURVE",
"94 145 LINE",
"148 145 LINE",
"171 145 OFFCURVE",
"183 157 OFFCURVE",
"183 180 CURVE SMOOTH"
);
}
);
width = 600;
},
{
layerId = "DD439194-7281-4DC7-85BF-0C2680351E76";
paths = (
{
closed = 1;
nodes = (
"183 234 LINE",
"112 234 LINE",
"112 223 OFFCURVE",
"105 216 OFFCURVE",
"94 216 CURVE",
"94 145 LINE",
"148 145 LINE",
"171 145 OFFCURVE",
"183 157 OFFCURVE",
"183 180 CURVE SMOOTH"
);
}
);
width = 600;
}
);
},
{
export = 0;
glyphname = _corner.right_top;
lastChange = "2019-11-12 21:08:40 +0000";
layers = (
{
layerId = "E2857279-2EBA-495B-814E-9CD52C7A5F8C";
paths = (
{
closed = 1;
nodes = (
"383 323 OFFCURVE",
"371 335 OFFCURVE",
"348 335 CURVE",
"294 335 LINE",
"294 264 LINE",
"305 264 OFFCURVE",
"312 257 OFFCURVE",
"312 246 CURVE",
"383 246 LINE",
"383 300 LINE SMOOTH"
);
}
